<?xml version="1.0" standalone="no"?>
<!DOCTYPE svg PUBLIC "-//W3C//DTD SVG 20010904//EN"
 "http://www.w3.org/TR/2001/REC-SVG-20010904/DTD/svg10.dtd">
<svg version="1.0" xmlns="http://www.w3.org/2000/svg"
 width="512.000000pt" height="512.000000pt" viewBox="0 0 512.000000 512.000000"
 preserveAspectRatio="xMidYMid meet">
<metadata>
Created by potrace 1.11, written by Peter Selinger 2001-2013
</metadata>
<g transform="translate(0.000000,512.000000) scale(0.100000,-0.100000)"
fill="#000000" stroke="none">
<path d="M1911 4133 l-904 -905 -263 263 -264 264 0 -1201 c0 -1136 1 -1202
18 -1206 9 -2 130 -3 267 -3 165 1 254 -2 261 -9 7 -6 294 -292 638 -635 l626
-624 563 561 c309 309 719 717 910 907 l349 346 135 -138 c212 -218 376 -383
380 -383 2 0 3 541 3 1203 l0 1202 -267 -1 c-177 0 -272 3 -279 10 -7 6 -293
291 -637 634 -344 342 -627 622 -628 621 -2 0 -411 -408 -908 -906z m1402 133
c268 -266 487 -486 487 -488 0 -2 -354 -4 -786 -4 -432 1 -787 -2 -789 -5 -2
-3 112 -121 254 -263 l258 -258 -77 -77 c-257 -252 -1487 -1470 -1556 -1540
l-83 -83 -168 -1 -168 -1 -1 857 c-1 471 0 857 2 857 3 0 75 -70 161 -155 86
-85 159 -155 162 -155 4 0 411 405 906 900 495 495 902 900 905 900 3 0 224
-218 493 -484z m487 -696 c0 -3 -386 -389 -857 -857 l-858 -853 160 -154 c88
-86 153 -156 145 -157 -41 -3 -1057 -4 -1068 -1 -11 4 298 314 1336 1338 l366
362 -161 160 c-103 103 -155 162 -145 164 27 5 1082 3 1082 -2z m603 1 l27 -1
0 -857 0 -858 -154 155 c-85 85 -159 155 -164 155 -5 0 -416 -404 -913 -897
-496 -494 -905 -898 -908 -898 -12 0 -982 968 -974 973 4 2 362 3 795 3 434
-1 788 0 788 1 0 2 -252 249 -406 397 l-121 117 616 614 c1140 1137 1096 1093
1133 1097 28 2 182 2 281 -1z"/>
</g>
</svg>
