<?xml version="1.0" standalone="no"?>
<!DOCTYPE svg PUBLIC "-//W3C//DTD SVG 20010904//EN"
 "http://www.w3.org/TR/2001/REC-SVG-20010904/DTD/svg10.dtd">
<svg version="1.0" xmlns="http://www.w3.org/2000/svg"
 width="512.000000pt" height="512.000000pt" viewBox="0 0 512.000000 512.000000"
 preserveAspectRatio="xMidYMid meet">
<metadata>
Created by potrace 1.11, written by Peter Selinger 2001-2013
</metadata>
<g transform="translate(0.000000,512.000000) scale(0.100000,-0.100000)"
fill="#000000" stroke="none">
<path d="M154 5108 c-4 -6 -3 -9 2 -6 11 7 35 -17 27 -26 -4 -3 2 -6 13 -7 18
0 18 -1 -1 -9 -15 -6 -16 -9 -4 -9 9 -1 22 -12 29 -26 7 -13 17 -22 22 -19 4
3 8 -4 8 -15 0 -12 5 -21 11 -21 6 0 9 -7 6 -15 -4 -8 -1 -17 5 -21 7 -4 8 -3
4 4 -4 7 -3 12 2 12 13 0 24 -29 15 -42 -3 -6 -2 -9 3 -6 5 3 15 0 22 -8 10
-11 10 -14 0 -14 -9 0 -9 -3 2 -9 8 -6 18 -7 23 -4 5 3 6 -4 2 -16 -5 -16 -2
-21 12 -21 15 0 19 -7 17 -29 -1 -21 2 -28 15 -27 9 0 15 -6 15 -16 -1 -11 4
-14 14 -11 10 4 13 2 8 -5 -4 -7 -2 -12 3 -12 6 0 11 -7 11 -15 0 -9 7 -18 15
-21 8 -4 12 -11 8 -17 -4 -6 0 -8 11 -4 11 4 15 3 11 -4 -4 -6 1 -20 12 -32
18 -21 18 -21 -2 -7 l-20 15 20 -25 c11 -13 25 -30 32 -37 6 -7 15 -22 18 -33
3 -11 13 -20 21 -20 8 0 12 -4 9 -10 -3 -5 -1 -10 4 -10 6 0 10 -6 9 -12 -2
-7 3 -12 11 -10 12 3 12 1 0 -14 -9 -12 -9 -15 -1 -10 20 12 33 -3 22 -24 -8
-15 -7 -17 11 -13 11 3 19 2 18 -3 -4 -22 2 -33 22 -39 15 -5 17 -10 9 -20 -7
-9 -6 -16 7 -26 17 -13 17 -13 3 6 -14 18 -14 19 2 7 9 -8 14 -20 11 -28 -3
-9 1 -14 12 -14 9 0 13 -4 10 -10 -3 -5 -2 -10 4 -10 10 0 27 -38 23 -52 -1
-5 3 -8 9 -8 5 0 7 -6 3 -12 -5 -9 -2 -9 9 1 15 12 17 11 17 -14 0 -20 4 -26
14 -22 10 4 13 1 9 -8 -3 -8 2 -18 11 -21 9 -4 21 -15 27 -26 9 -16 8 -19 -3
-13 -7 3 -2 -3 11 -14 13 -12 20 -21 16 -21 -3 0 1 -7 9 -16 9 -8 13 -21 9
-27 -4 -6 0 -8 10 -4 12 4 14 2 10 -10 -4 -10 -2 -14 5 -9 6 4 12 -3 14 -16 2
-13 9 -22 15 -21 8 2 10 -4 6 -14 -4 -11 -3 -14 5 -9 7 4 12 1 12 -8 0 -9 5
-16 11 -16 5 0 7 -4 4 -10 -3 -5 2 -10 12 -11 16 0 16 -1 -2 -9 -19 -8 -19 -9
3 -9 13 -1 22 -7 21 -13 -3 -20 12 -49 22 -42 5 3 9 0 9 -6 0 -6 5 -8 13 -4 9
6 9 5 -1 -8 -10 -13 -9 -18 5 -29 15 -12 16 -12 9 1 -4 8 0 6 8 -5 9 -11 14
-25 11 -33 -2 -7 0 -10 5 -7 9 6 14 -8 11 -27 0 -5 4 -8 10 -8 5 0 7 -6 3 -12
-5 -9 -2 -9 9 1 15 12 17 11 17 -13 0 -15 4 -25 9 -22 11 7 23 -22 14 -37 -4
-6 0 -8 10 -4 9 3 18 0 21 -9 3 -9 2 -12 -5 -8 -6 3 -5 -3 2 -14 9 -14 17 -18
25 -11 8 6 10 3 7 -14 -3 -16 4 -28 27 -46 21 -15 30 -29 27 -41 -3 -11 1 -17
12 -16 9 0 15 -5 13 -12 -1 -7 5 -20 13 -28 8 -9 12 -21 8 -27 -4 -7 1 -6 10
2 15 12 17 12 11 -3 -4 -10 1 -23 15 -35 23 -20 29 -37 9 -25 -9 6 -9 3 0 -9
8 -9 22 -19 33 -22 10 -4 19 -10 19 -15 0 -5 -8 -7 -18 -4 -9 4 -2 -3 16 -15
17 -11 32 -28 32 -36 0 -10 5 -13 13 -9 8 5 7 2 -2 -9 -12 -15 -12 -17 1 -12
16 6 44 -37 34 -53 -4 -6 3 -8 16 -5 23 5 23 5 3 -11 -14 -12 -15 -14 -4 -10
10 3 20 0 25 -7 4 -7 3 -10 -3 -6 -5 3 -10 0 -10 -7 0 -7 7 -13 16 -12 9 0 16
-7 16 -16 0 -9 4 -20 9 -25 5 -4 6 -3 2 5 -14 24 2 12 20 -15 17 -27 17 -28
-2 -13 -18 14 -18 14 -5 -3 8 -10 21 -15 29 -12 12 4 12 3 3 -9 -10 -12 -8
-16 8 -21 12 -3 21 -11 21 -16 0 -6 -5 -7 -12 -3 -7 4 -8 3 -4 -4 4 -7 15 -12
24 -13 13 0 13 -2 3 -6 -10 -4 -8 -9 10 -20 18 -11 19 -13 4 -9 -19 6 -20 6
-1 -9 10 -8 22 -12 26 -10 4 2 6 -6 5 -19 -2 -16 4 -28 21 -37 18 -9 21 -15
12 -21 -9 -5 -7 -8 6 -8 11 0 17 -3 13 -6 -3 -3 -1 -11 4 -18 5 -6 17 -20 25
-31 9 -11 12 -14 8 -6 -4 9 -3 12 4 7 6 -4 8 -14 5 -23 -5 -12 -3 -14 7 -8 10
6 12 4 7 -8 -3 -10 -2 -17 4 -17 5 0 14 -11 21 -25 6 -13 16 -21 22 -18 6 4 5
-1 -3 -11 -12 -15 -12 -17 0 -14 8 2 13 -3 11 -11 -2 -8 3 -11 12 -8 9 4 18 1
22 -5 4 -6 3 -8 -4 -4 -6 4 -10 -1 -9 -13 1 -15 4 -17 14 -9 10 8 12 7 7 -6
-3 -9 -1 -16 5 -16 6 0 11 -7 11 -15 0 -8 5 -15 11 -15 5 0 7 -4 4 -10 -3 -5
1 -10 10 -10 9 0 13 -4 10 -10 -3 -6 -1 -10 5 -10 7 0 9 -9 6 -22 -3 -13 -3
-17 0 -11 7 16 36 -10 32 -29 -2 -7 5 -12 14 -12 10 1 14 -4 11 -12 -2 -7 2
-23 11 -36 9 -12 16 -18 16 -12 0 5 -6 16 -12 24 -11 12 -10 12 5 1 9 -7 17
-20 17 -29 0 -8 8 -21 18 -29 10 -8 11 -11 2 -7 -13 7 -13 5 -1 -9 7 -9 18
-14 25 -10 7 4 7 1 -1 -8 -10 -12 -9 -20 4 -39 9 -13 11 -20 5 -16 -8 5 -12
-4 -13 -31 -4 -201 -3 -289 3 -280 5 8 8 6 8 -5 0 -9 -5 -18 -11 -20 -8 -3 -6
-10 5 -21 16 -16 16 -17 -6 -18 l-23 0 23 -9 c12 -5 22 -12 22 -15 0 -4 -4 -3
-10 0 -6 4 -10 -9 -11 -32 0 -21 -2 -60 -4 -87 -2 -31 0 -44 6 -35 7 11 9 11
9 -3 0 -9 -5 -18 -11 -20 -8 -3 -6 -10 5 -21 16 -16 16 -17 -6 -18 -17 -1 -18
-3 -5 -6 19 -5 23 -29 6 -35 -8 -3 -6 -10 5 -21 16 -16 16 -17 -6 -18 l-23 0
23 -9 c12 -5 22 -12 22 -15 0 -4 -4 -3 -10 0 -6 4 -10 -9 -11 -32 0 -21 -2
-60 -4 -87 -2 -31 0 -44 6 -35 7 11 9 11 9 -3 0 -9 -5 -18 -11 -20 -8 -3 -6
-10 5 -21 16 -16 16 -17 -6 -18 l-23 0 23 -9 c12 -5 22 -12 22 -15 0 -4 -4 -3
-10 0 -6 4 -10 -9 -11 -32 -5 -214 -3 -290 4 -300 6 -9 5 -13 -3 -13 -7 0 -10
-6 -7 -12 19 -47 19 -48 1 -48 -17 0 -16 -1 2 -15 10 -8 14 -15 9 -15 -6 0
-11 -11 -11 -24 0 -14 4 -22 8 -20 5 3 5 10 2 16 -4 7 -2 8 4 4 15 -9 15 -12
-3 -30 -13 -13 -13 -16 1 -30 14 -15 13 -16 -8 -17 l-23 0 23 -9 c12 -5 22
-12 22 -15 0 -4 -4 -3 -10 0 -6 4 -10 -9 -11 -32 0 -21 -2 -60 -4 -87 -2 -31
0 -44 6 -35 7 11 9 11 9 -3 0 -9 -5 -18 -11 -20 -8 -3 -6 -10 5 -21 16 -16 16
-17 -6 -18 -17 -1 -18 -3 -5 -6 9 -2 17 -9 17 -14 0 -6 -6 -7 -12 -3 -9 5 -9
2 1 -9 10 -13 10 -17 1 -17 -7 0 -10 -6 -7 -12 19 -47 19 -48 1 -48 -17 0 -16
-1 2 -15 10 -8 15 -15 9 -15 -15 0 -10 -283 5 -288 7 -3 4 -10 -7 -18 -16 -12
-16 -15 -3 -24 13 -9 13 -10 0 -11 -10 0 -8 -3 5 -9 11 -4 235 -8 498 -9 l477
-1 1 28 c0 15 2 39 3 54 1 21 -1 24 -11 16 -18 -15 -16 -3 3 16 14 15 14 16
-1 16 -9 0 -13 5 -10 10 4 6 9 8 13 6 12 -7 5 94 -8 108 -8 11 -8 16 1 22 8 5
9 3 4 -7 -8 -12 -6 -12 8 0 14 11 15 16 5 29 -7 8 -11 29 -9 46 8 78 8 86 -6
74 -18 -15 -16 -3 3 16 14 15 14 16 -1 16 -9 0 -13 5 -10 10 4 6 9 8 13 6 12
-7 5 94 -8 108 -8 11 -8 16 1 22 8 5 9 3 4 -7 -8 -12 -6 -12 8 0 16 13 16 15
1 32 -11 12 -13 19 -5 19 9 0 9 5 1 20 -8 14 -8 20 0 20 7 0 8 6 1 19 -6 10
-8 20 -6 22 2 3 5 28 7 56 3 42 1 50 -9 41 -18 -15 -16 -3 3 16 14 15 14 16
-1 16 -9 0 -13 5 -10 10 4 6 11 7 17 4 7 -5 8 -2 3 6 -4 7 -2 16 6 22 11 8 11
9 -3 5 -26 -9 -29 4 -5 26 16 15 18 19 5 14 -21 -7 -21 -6 -9 26 7 18 6 30 -4
43 -10 14 -10 23 -3 32 8 9 8 20 -1 40 -10 25 -10 26 4 8 17 -23 20 -14 5 15
-8 13 -7 19 0 19 8 0 8 6 0 20 -8 14 -8 20 0 20 7 0 8 6 1 19 -6 10 -8 20 -6
22 2 3 5 28 7 56 3 42 1 50 -9 41 -18 -15 -16 -3 3 16 14 15 14 16 -1 16 -9 0
-13 5 -10 10 4 6 11 7 17 4 7 -5 8 -2 3 6 -4 7 -2 16 6 22 11 8 11 9 -3 5 -26
-9 -29 4 -5 26 16 15 18 19 5 14 -21 -7 -21 -6 -9 26 7 18 6 30 -4 43 -10 14
-10 23 -3 32 8 9 8 20 -1 40 -10 25 -10 26 4 8 17 -23 20 -14 5 15 -8 13 -7
19 0 19 8 0 8 6 0 20 -8 14 -8 20 0 20 7 0 8 6 1 19 -6 10 -8 20 -6 22 2 3 5
28 7 56 3 42 1 50 -9 41 -18 -15 -16 -3 3 16 14 15 14 16 -1 16 -9 0 -13 5
-10 10 4 6 11 7 17 4 7 -5 8 -2 3 6 -4 7 -2 16 6 22 11 8 11 9 -3 5 -26 -9
-29 4 -5 26 16 15 17 18 5 14 -14 -5 -16 -1 -12 21 2 15 6 46 7 69 3 34 1 40
-10 31 -18 -15 -16 -3 3 16 14 15 14 16 -1 16 -9 0 -13 5 -10 10 4 6 9 8 13 6
12 -7 5 94 -8 108 -8 11 -8 16 1 22 8 5 9 3 4 -7 -8 -12 -6 -12 8 0 16 13 16
15 1 32 -13 14 -14 19 -4 19 9 0 7 6 -6 16 -17 14 -17 15 -1 10 14 -5 16 -2 7
13 -8 16 -3 26 28 57 20 21 32 35 26 31 -6 -3 -11 0 -11 8 0 8 4 12 8 10 4 -3
10 2 13 11 3 9 11 12 18 8 10 -6 10 -4 0 8 -10 13 -10 18 -1 24 8 5 9 3 4 -6
-6 -9 -4 -11 4 -6 7 5 10 15 7 23 -3 8 -1 11 4 8 6 -3 10 -1 10 5 0 6 5 8 10
5 6 -4 10 -3 9 2 -4 22 2 34 14 27 9 -6 9 -5 0 8 -11 12 -10 18 5 32 10 9 22
13 25 9 6 -6 11 12 8 30 -1 4 6 10 14 13 8 3 12 10 9 15 -3 5 0 9 6 9 6 0 8 5
4 12 -5 7 -2 9 8 6 9 -4 15 0 15 8 0 8 -5 14 -11 14 -6 0 -4 4 4 9 8 6 18 7
24 4 5 -3 6 -1 2 5 -4 7 -2 12 4 12 6 0 8 5 5 10 -3 6 1 13 10 16 12 5 13 10
4 20 -8 10 -7 12 9 9 15 -2 19 1 15 14 -2 9 5 25 16 35 12 11 21 23 21 28 0
17 30 39 41 32 7 -4 9 -3 5 4 -3 5 -3 12 1 15 5 2 3 2 -4 1 -7 -2 -15 2 -19 8
-4 7 -3 8 4 4 7 -4 12 -2 12 4 0 6 5 8 12 4 8 -5 9 -2 5 9 -4 10 -2 16 6 14 7
-1 11 6 10 16 -1 13 4 17 14 13 10 -4 13 -2 10 8 -3 8 7 23 24 35 23 17 28 26
19 35 -7 10 -6 17 7 27 17 13 17 13 3 -6 -14 -19 -14 -19 3 -6 9 7 17 18 17
24 0 5 11 20 26 33 29 28 21 33 -10 7 -16 -14 -18 -14 -8 -2 6 9 11 18 9 20
-1 2 0 3 2 2 2 -2 10 5 18 15 9 10 11 11 7 2 -7 -13 -5 -13 9 -2 9 8 16 17 15
20 -3 28 4 44 18 38 8 -3 13 -2 9 3 -3 5 1 12 7 14 10 4 10 6 1 6 -7 1 -13 5
-13 11 0 5 7 6 17 3 11 -4 14 -3 9 5 -10 17 13 55 30 48 9 -4 13 1 11 17 -1
12 3 22 10 22 15 0 30 15 14 15 -7 0 -9 5 -6 10 4 6 11 8 16 5 5 -3 6 1 3 9
-4 10 -1 16 9 16 8 0 18 7 21 16 6 15 4 15 -11 3 -16 -13 -17 -12 -4 4 7 9 19
17 26 17 6 0 12 7 13 15 1 8 3 22 4 30 1 8 8 17 15 19 9 4 11 1 7 -6 -4 -7 -3
-8 4 -4 7 4 12 18 12 32 0 14 4 22 10 19 6 -3 10 3 10 15 0 12 4 18 10 15 6
-3 10 3 10 14 0 12 5 21 11 21 5 0 7 5 4 10 -3 6 -1 10 5 10 6 0 9 4 5 9 -3 6
3 8 14 6 18 -3 19 -1 10 22 -8 22 -7 24 5 14 16 -14 25 -4 20 22 -1 12 2 17
11 13 9 -3 12 1 10 15 -3 13 2 19 13 19 13 0 14 2 4 9 -10 6 -8 10 8 14 15 4
21 11 17 21 -3 8 1 17 11 21 13 5 14 8 3 14 -9 6 -5 10 14 15 21 5 26 11 22
27 -5 17 -3 18 10 7 15 -12 15 -11 4 11 -8 15 -9 21 -2 17 6 -4 15 4 21 18 5
14 12 26 15 26 4 0 3 -6 0 -12 -4 -7 1 -4 9 7 9 11 14 25 12 32 -3 7 -1 13 5
13 6 0 8 7 5 16 -5 14 -4 15 8 5 12 -10 16 -6 26 24 7 22 16 33 23 28 7 -4 6
1 -2 10 -12 15 -12 17 4 10 14 -5 17 -3 13 8 -5 14 25 63 34 54 2 -2 10 6 17
18 11 18 11 20 0 10 -21 -20 -31 -15 -11 6 9 10 19 18 22 18 20 1 23 5 10 13
-13 8 -12 10 2 10 10 0 17 6 15 13 -1 6 4 11 12 9 11 -2 12 0 4 10 -9 10 -5
20 12 40 16 18 25 23 29 15 4 -7 4 -2 2 11 -2 12 0 20 5 16 5 -3 9 2 9 10 0 8
10 22 22 30 12 9 19 19 15 22 -4 4 1 13 11 21 11 10 12 12 2 8 -8 -4 -6 0 5 9
46 35 48 38 33 47 -10 6 -10 9 0 9 23 0 50 36 40 54 -6 11 -5 16 5 16 20 0 50
48 43 67 -6 14 -4 14 11 2 15 -12 16 -12 10 4 -4 12 -1 17 11 17 15 0 15 2 2
10 -10 6 -11 10 -2 10 6 0 12 7 12 15 0 20 55 77 65 67 4 -4 2 4 -5 18 -12 23
-12 24 4 11 9 -8 16 -10 15 -5 -3 20 1 35 10 30 5 -3 11 1 14 9 4 10 1 12 -11
9 -9 -3 -5 2 10 11 35 20 61 68 46 83 -8 8 -4 10 13 6 13 -2 19 -2 12 2 -10 4
-10 8 0 19 7 7 17 10 22 7 6 -3 4 2 -4 11 -12 15 -11 17 8 17 11 0 21 5 21 11
0 5 -6 7 -12 4 -7 -4 -5 0 4 8 10 8 15 17 11 20 -3 4 2 7 12 7 14 0 15 3 5 15
-11 13 -10 14 4 9 13 -5 15 -2 9 12 -6 17 -5 17 10 5 15 -12 17 -12 11 3 -3 9
-1 16 5 16 6 0 10 3 10 8 -3 19 2 33 10 27 5 -3 13 0 17 6 4 8 3 9 -4 5 -7 -4
-12 -3 -12 3 0 7 -199 10 -595 10 -554 0 -594 -2 -586 -17 6 -11 4 -21 -5 -30
-8 -7 -14 -10 -14 -5 0 4 -6 -2 -14 -12 -8 -11 -12 -23 -10 -27 2 -4 0 -9 -6
-13 -6 -4 -7 -11 -4 -17 4 -6 2 -8 -3 -5 -6 4 -17 -1 -24 -10 -12 -14 -12 -16
0 -9 9 6 12 5 9 -5 -3 -8 -10 -13 -16 -12 -6 2 -14 -6 -17 -17 -4 -12 -11 -17
-18 -13 -7 4 -7 1 1 -9 11 -14 10 -19 -13 -34 -16 -10 -24 -23 -20 -32 3 -9 0
-12 -9 -9 -10 4 -14 0 -11 -13 2 -11 -1 -19 -8 -17 -7 1 -11 -6 -11 -15 1 -10
-4 -18 -12 -18 -8 0 -13 -6 -11 -12 1 -8 -7 -12 -18 -11 -20 1 -20 1 -1 -13
19 -14 19 -14 -3 -14 -21 0 -22 -2 -10 -17 10 -11 10 -14 2 -9 -12 7 -18 -5
-14 -28 1 -5 -6 -6 -15 -2 -12 4 -15 2 -10 -9 3 -9 0 -15 -11 -15 -12 0 -13
-3 -3 -15 10 -12 8 -14 -9 -10 -18 3 -20 1 -11 -15 9 -16 7 -18 -11 -15 -17 3
-19 2 -9 -10 9 -11 3 -19 -27 -39 -21 -14 -33 -26 -27 -26 5 0 16 6 24 13 12
10 12 9 2 -4 -6 -9 -9 -19 -6 -22 4 -4 -2 -5 -14 -2 -16 3 -19 -1 -14 -17 4
-16 2 -19 -8 -13 -10 6 -12 4 -7 -9 5 -11 3 -15 -5 -10 -7 5 -9 2 -5 -9 3 -8
0 -18 -8 -21 -10 -3 -12 0 -8 12 7 18 5 17 -17 -12 -10 -13 -10 -17 -2 -12 18
11 15 -5 -5 -21 -12 -10 -13 -12 -3 -8 12 5 12 4 -1 -7 -8 -7 -18 -21 -22 -31
-4 -10 -11 -16 -16 -12 -5 3 -13 0 -17 -6 -4 -8 -3 -9 4 -5 18 11 14 -2 -7
-23 -11 -11 -23 -16 -27 -13 -5 4 -2 -1 5 -10 11 -15 11 -19 -2 -24 -8 -3 -17
-15 -20 -26 -3 -11 -10 -17 -16 -14 -5 4 -13 1 -17 -5 -4 -8 -3 -9 4 -5 7 4
12 2 12 -3 0 -6 -7 -11 -15 -11 -9 0 -12 -6 -8 -17 4 -11 3 -14 -5 -9 -7 4
-12 1 -12 -9 0 -10 -5 -13 -12 -9 -10 6 -10 5 0 -8 10 -13 9 -18 -4 -29 -10
-8 -18 -12 -20 -9 -1 3 -6 2 -10 -2 -4 -5 -2 -8 5 -8 9 0 9 -4 -1 -14 -7 -8
-16 -12 -20 -9 -4 2 -5 -4 -1 -13 4 -12 3 -15 -5 -10 -7 4 -14 -3 -18 -19 -3
-14 -11 -22 -17 -18 -6 4 -8 -2 -4 -16 4 -18 3 -20 -8 -11 -11 10 -13 8 -10
-9 4 -19 -6 -26 -29 -22 -5 1 -4 -4 2 -12 10 -11 9 -17 -5 -28 -14 -12 -16
-12 -8 0 5 10 4 12 -4 7 -9 -6 -9 -11 1 -24 7 -9 8 -13 2 -9 -6 3 -22 -6 -35
-21 -18 -20 -19 -22 -3 -9 28 23 39 22 14 -3 -11 -11 -24 -20 -29 -20 -6 0
-13 -5 -17 -12 -4 -7 -3 -8 4 -4 7 4 12 3 12 -2 0 -5 -10 -14 -22 -21 -13 -6
-15 -9 -5 -6 10 3 15 1 12 -5 -3 -6 -13 -10 -20 -10 -10 0 -12 -6 -8 -17 6
-16 4 -16 -9 -5 -14 11 -16 10 -11 -9 4 -14 0 -25 -11 -31 -9 -5 -14 -13 -11
-19 4 -5 1 -9 -5 -9 -6 0 -9 -4 -5 -9 3 -6 -8 -20 -25 -32 -16 -13 -30 -29
-30 -36 0 -7 -7 -10 -17 -6 -16 5 -15 4 1 -9 18 -14 18 -15 -4 -21 -12 -3 -19
-10 -16 -15 3 -6 0 -12 -8 -15 -7 -3 -16 -19 -19 -36 -4 -19 -13 -31 -23 -31
-10 0 -14 -5 -10 -16 3 -8 2 -13 -3 -10 -11 7 -23 -22 -15 -35 3 -5 0 -8 -8
-7 -7 2 -12 -2 -11 -9 2 -8 -4 -10 -15 -6 -9 3 -14 3 -10 -2 4 -4 2 -15 -5
-23 -10 -13 -9 -14 3 -7 8 4 4 -3 -10 -16 -26 -26 -82 -41 -63 -17 9 10 5 20
-12 40 -13 15 -26 24 -29 21 -5 -6 -10 21 -7 40 2 11 -14 8 -28 -5 -11 -11
-11 -9 -1 11 8 15 8 21 1 17 -6 -4 -11 -1 -11 6 0 8 -9 20 -20 28 -15 11 -17
17 -8 27 6 8 7 13 2 12 -15 -4 -44 12 -39 21 7 12 -6 41 -15 35 -4 -3 -11 2
-14 11 -4 10 -2 13 6 8 7 -4 8 -3 4 4 -4 7 -15 12 -24 12 -15 0 -15 2 -2 10
12 8 10 10 -10 10 -20 0 -22 2 -10 10 11 7 11 10 2 10 -8 0 -10 5 -6 12 5 8 2
9 -11 4 -16 -6 -16 -4 -4 11 9 11 10 14 2 9 -8 -4 -13 -1 -13 8 0 15 -12 21
-33 17 -5 -1 -6 3 -2 9 3 6 11 7 17 4 6 -4 6 2 -1 15 -7 11 -14 21 -17 21 -3
0 -2 -6 2 -12 5 -9 2 -9 -9 1 -20 16 -23 35 -4 26 6 -4 1 2 -12 13 -15 12 -21
24 -16 32 5 8 4 11 -1 7 -6 -3 -16 -2 -24 4 -13 7 -13 9 -1 9 11 0 9 4 -4 14
-11 8 -24 12 -29 9 -5 -4 -6 -1 -2 6 6 9 12 9 24 -1 12 -9 12 -7 -2 9 -10 13
-23 20 -28 17 -6 -4 -7 2 -3 16 5 15 4 20 -4 16 -6 -4 -11 0 -11 9 0 10 -5 13
-12 9 -8 -5 -9 -2 -5 9 4 11 1 17 -8 17 -13 0 -20 18 -16 42 0 4 -7 4 -16 1
-11 -4 -14 -3 -9 5 4 7 2 12 -5 12 -8 0 -8 4 1 15 11 13 10 14 -6 9 -10 -4
-16 -4 -12 1 4 4 0 14 -10 22 -9 8 -11 12 -5 8 8 -4 11 -1 7 9 -3 9 -9 14 -12
13 -4 -1 -8 1 -9 6 -5 16 -28 35 -37 29 -5 -3 -6 0 -2 7 5 7 0 19 -12 29 -10
9 -18 25 -16 35 1 9 -4 17 -12 17 -8 0 -17 7 -20 15 -4 8 -11 12 -18 8 -7 -4
-7 -1 1 7 10 11 7 18 -15 37 -15 13 -22 23 -17 21 6 -2 11 2 12 7 1 6 -5 9
-14 7 -11 -3 -14 1 -9 13 4 12 0 18 -14 22 -11 3 -17 9 -14 14 3 5 0 9 -7 9
-8 0 -9 4 0 13 8 11 6 13 -12 13 -12 -1 -22 4 -22 9 0 6 -4 16 -9 24 -7 10 -5
12 5 7 8 -4 6 -1 -4 7 -10 8 -16 21 -15 28 2 7 -2 13 -9 14 -7 0 -18 6 -25 14
-8 9 -8 11 -1 7 6 -3 14 -2 17 3 4 5 -5 8 -18 7 -16 -2 -23 1 -19 10 7 18 -16
56 -29 48 -7 -4 -8 -3 -4 5 4 6 1 14 -8 17 -8 3 -17 13 -20 21 -5 12 -3 13 7
7 7 -5 5 -2 -5 8 -10 9 -18 21 -18 27 0 6 -4 11 -10 11 -5 0 -10 5 -10 11 0 7
-8 18 -17 25 -17 13 -17 14 2 9 16 -5 15 -3 -3 6 -13 7 -21 18 -17 27 3 8 -3
16 -16 19 -16 4 -17 8 -7 14 10 7 11 9 0 9 -8 0 -10 5 -6 13 5 8 2 7 -9 -2
-10 -8 -20 -11 -24 -7 -3 3 0 6 7 6 9 0 7 7 -6 22 -19 22 -19 22 0 8 19 -15
19 -14 2 12 -9 14 -24 29 -33 32 -8 4 -13 12 -10 20 3 8 -4 22 -15 33 -12 10
-18 12 -13 4 6 -10 4 -12 -4 -7 -9 6 -9 11 1 24 10 12 10 14 1 8 -8 -4 -13 -2
-13 4 0 6 -4 8 -10 5 -5 -3 -10 -2 -10 4 0 5 6 12 13 14 6 3 1 6 -13 7 -14 1
-19 4 -12 7 8 3 2 14 -19 33 -23 19 -30 33 -27 48 l6 20 -599 1 c-436 0 -600
-2 -605 -11z m3593 -73 c0 -8 -4 -12 -9 -9 -5 3 -6 10 -3 15 9 13 12 11 12 -6z
m1043 -175 c0 -5 -5 -10 -11 -10 -5 0 -7 5 -4 10 3 6 8 10 11 10 2 0 4 -4 4
-10z m-10 -26 c0 -8 -19 -13 -24 -6 -3 5 1 9 9 9 8 0 15 -2 15 -3z m-230 -334
c0 -5 -5 -10 -11 -10 -5 0 -7 5 -4 10 3 6 8 10 11 10 2 0 4 -4 4 -10z m-3303
-952 c-3 -8 -6 -5 -6 6 -1 11 2 17 5 13 3 -3 4 -12 1 -19z m1278 -198 c10 -11
14 -20 9 -20 -5 0 -15 9 -22 20 -7 11 -11 20 -9 20 2 0 12 -9 22 -20z m49 -48
c3 -5 -1 -9 -9 -9 -8 0 -12 4 -9 9 3 4 7 8 9 8 2 0 6 -4 9 -8z m996 -296 c0
-2 -7 -9 -15 -16 -13 -11 -14 -10 -9 4 5 14 24 23 24 12z m-475 -796 c3 -6 -1
-7 -9 -4 -18 7 -21 14 -7 14 6 0 13 -4 16 -10z m-974 -103 c-10 -9 -11 -8 -5
6 3 10 9 15 12 12 3 -3 0 -11 -7 -18z m0 -160 c-10 -9 -11 -8 -5 6 3 10 9 15
12 12 3 -3 0 -11 -7 -18z m0 -240 c-10 -9 -11 -8 -5 6 3 10 9 15 12 12 3 -3 0
-11 -7 -18z m0 -320 c-10 -9 -11 -8 -5 6 3 10 9 15 12 12 3 -3 0 -11 -7 -18z
m0 -240 c-10 -9 -11 -8 -5 6 3 10 9 15 12 12 3 -3 0 -11 -7 -18z m0 -160 c-10
-9 -11 -8 -5 6 3 10 9 15 12 12 3 -3 0 -11 -7 -18z m974 -377 c3 -6 -1 -7 -9
-4 -18 7 -21 14 -7 14 6 0 13 -4 16 -10z m-974 -23 c-10 -9 -11 -8 -5 6 3 10
9 15 12 12 3 -3 0 -11 -7 -18z m7 -272 c-3 -3 -9 2 -12 12 -6 14 -5 15 5 6 7
-7 10 -15 7 -18z m967 -25 c3 -6 -1 -7 -9 -4 -18 7 -21 14 -7 14 6 0 13 -4 16
-10z m-974 -103 c-10 -9 -11 -8 -5 6 3 10 9 15 12 12 3 -3 0 -11 -7 -18z"/>
<path d="M3630 4899 c0 -5 5 -7 10 -4 6 3 10 8 10 11 0 2 -4 4 -10 4 -5 0 -10
-5 -10 -11z"/>
<path d="M4670 4679 c-7 -11 -9 -23 -7 -26 3 -2 8 5 12 16 3 12 11 18 17 15 7
-4 8 -2 4 4 -10 16 -14 15 -26 -9z"/>
<path d="M4380 4245 c-11 -13 -10 -14 4 -9 9 3 16 10 16 15 0 13 -6 11 -20 -6z"/>
<path d="M2796 3654 c-5 -14 -4 -15 9 -4 17 14 19 20 6 20 -5 0 -12 -7 -15
-16z"/>
<path d="M1266 3497 c3 -10 9 -15 12 -12 3 3 0 11 -7 18 -10 9 -11 8 -5 -6z"/>
<path d="M2686 3493 c-6 -14 -5 -15 5 -6 7 7 10 15 7 18 -3 3 -9 -2 -12 -12z"/>
<path d="M3726 3253 c-6 -14 -5 -15 5 -6 7 7 10 15 7 18 -3 3 -9 -2 -12 -12z"/>
<path d="M1436 3247 c3 -10 9 -15 12 -12 3 3 0 11 -7 18 -10 9 -11 8 -5 -6z"/>
<path d="M1474 3179 c-4 -7 -3 -9 4 -5 5 3 13 0 15 -6 4 -9 6 -10 6 -1 1 17
-16 25 -25 12z"/>
<path d="M3405 2770 c-3 -6 1 -7 9 -4 18 7 21 14 7 14 -6 0 -13 -4 -16 -10z"/>
<path d="M3236 2522 c-3 -5 1 -9 9 -9 8 0 12 4 9 9 -3 4 -7 8 -9 8 -2 0 -6 -4
-9 -8z"/>
<path d="M3099 2303 c-13 -16 -12 -17 4 -4 16 13 21 21 13 21 -2 0 -10 -8 -17
-17z"/>
</g>
</svg>
