<?xml version="1.0" encoding="utf-8"?>
<!-- Generator: Adobe Illustrator 19.2.1, SVG Export Plug-In . SVG Version: 6.00 Build 0)  -->
<svg version="1.0" id="Ebene_1" xmlns="http://www.w3.org/2000/svg" xmlns:xlink="http://www.w3.org/1999/xlink" x="0px" y="0px"
	 viewBox="0 0 145 145" style="enable-background:new 0 0 145 145;" xml:space="preserve">
<style type="text/css">
	.st0{fill:#FFFFFF;}
	.st1{fill:#9C9B9B;}
	.st2{fill:#ECECEC;}
	.st3{fill:#3C3C3B;}
	.st4{fill:#C6C6C5;}
	.st5{fill:#D9D9D9;}
</style>
<g>
	<rect x="0.5" y="0.5" class="st0" width="144" height="144"/>
	<path class="st1" d="M145,145H0V0h145V145z M1,144h143V1H1V144z"/>
	<g>
		<rect x="27.8" y="28.7" class="st2" width="90" height="90"/>
		<path class="st1" d="M118,119H27.5V28.5H118V119z M28,118.5h89.5V29H28V118.5z"/>
	</g>
	<g>
		<circle class="st3" cx="54.5" cy="63.5" r="7.4"/>
		<path class="st1" d="M54.5,55.8c4.2,0,7.7,3.4,7.7,7.7s-3.4,7.7-7.7,7.7s-7.7-3.4-7.7-7.7S50.3,55.8,54.5,55.8z M54.5,70.7
			c3.9,0,7.2-3.2,7.2-7.2s-3.2-7.2-7.2-7.2s-7.2,3.2-7.2,7.2S50.6,70.7,54.5,70.7z"/>
	</g>
	<path class="st1" d="M54.5,54.8c4.8,0,8.7,3.9,8.7,8.7s-3.9,8.7-8.7,8.7s-8.7-3.9-8.7-8.7S49.7,54.8,54.5,54.8z M54.5,71.7
		c4.5,0,8.2-3.7,8.2-8.2s-3.7-8.2-8.2-8.2s-8.2,3.7-8.2,8.2S50,71.7,54.5,71.7z"/>
	<circle class="st3" cx="54.5" cy="63.5" r="2.8"/>
	<circle class="st3" cx="54.5" cy="63.5" r="2.4"/>
	<path class="st3" d="M54.5,54.3c5.1,0,9.3,4.1,9.3,9.3s-4.1,9.3-9.3,9.3s-9.3-4.1-9.3-9.3S49.4,54.3,54.5,54.3z M54.5,72.3
		c4.8,0,8.8-3.9,8.8-8.8s-3.9-8.8-8.8-8.8s-8.8,3.9-8.8,8.8S49.7,72.3,54.5,72.3z"/>
	<g>
		<circle class="st3" cx="90.5" cy="63.5" r="7.4"/>
		<path class="st1" d="M90.5,55.8c4.2,0,7.7,3.4,7.7,7.7s-3.4,7.7-7.7,7.7s-7.7-3.4-7.7-7.7S86.3,55.8,90.5,55.8z M90.5,70.7
			c3.9,0,7.2-3.2,7.2-7.2s-3.2-7.2-7.2-7.2s-7.2,3.2-7.2,7.2S86.6,70.7,90.5,70.7z"/>
	</g>
	<path class="st1" d="M90.5,54.8c4.8,0,8.7,3.9,8.7,8.7s-3.9,8.7-8.7,8.7s-8.7-3.9-8.7-8.7S85.7,54.8,90.5,54.8z M90.5,71.7
		c4.5,0,8.2-3.7,8.2-8.2s-3.7-8.2-8.2-8.2s-8.2,3.7-8.2,8.2S86,71.7,90.5,71.7z"/>
	<circle class="st2" cx="90.5" cy="63.5" r="1.1"/>
	<path class="st3" d="M90.5,54.3c5.1,0,9.3,4.1,9.3,9.3s-4.1,9.3-9.3,9.3s-9.3-4.1-9.3-9.3S85.4,54.3,90.5,54.3z M90.5,72.3
		c4.8,0,8.8-3.9,8.8-8.8s-3.9-8.8-8.8-8.8s-8.8,3.9-8.8,8.8S85.7,72.3,90.5,72.3z"/>
	<circle class="st4" cx="72.5" cy="63.5" r="2.2"/>
	<rect x="70.4" y="63.1" transform="matrix(0.7071 -0.7071 0.7071 0.7071 -23.6665 69.864)" class="st1" width="4.2" height="0.8"/>
	<g>
		<circle class="st3" cx="84.5" cy="80" r="6"/>
		<g>
			<circle class="st3" cx="84.5" cy="80" r="4.3"/>
			<path class="st1" d="M84.5,75.5c2.5,0,4.5,2,4.5,4.5c0,2.5-2,4.5-4.5,4.5c-2.5,0-4.5-2-4.5-4.5C80,77.5,82,75.5,84.5,75.5z
				 M84.5,84.2c2.3,0,4.2-1.9,4.2-4.2s-1.9-4.2-4.2-4.2c-2.3,0-4.2,1.9-4.2,4.2S82.2,84.2,84.5,84.2z"/>
		</g>
		<path class="st1" d="M84.5,74.9c2.8,0,5.1,2.3,5.1,5.1s-2.3,5.1-5.1,5.1c-2.8,0-5.1-2.3-5.1-5.1S81.7,74.9,84.5,74.9z M84.5,84.8
			c2.6,0,4.8-2.1,4.8-4.8c0-2.6-2.1-4.8-4.8-4.8c-2.6,0-4.8,2.1-4.8,4.8C79.7,82.6,81.9,84.8,84.5,84.8z"/>
		<g>
			<circle class="st3" cx="84.5" cy="80" r="0.6"/>
			<path class="st5" d="M84.5,79.3c0.4,0,0.7,0.3,0.7,0.7s-0.3,0.7-0.7,0.7c-0.4,0-0.7-0.3-0.7-0.7S84.1,79.3,84.5,79.3z M84.5,80.5
				c0.3,0,0.5-0.2,0.5-0.5s-0.2-0.5-0.5-0.5c-0.3,0-0.5,0.2-0.5,0.5S84.2,80.5,84.5,80.5z"/>
		</g>
	</g>
	<path class="st5" d="M52,58.6c0.6-0.7,1.5-1.2,2.5-1.2c1,0,1.9,0.5,2.4,1.2v3.1c0.4,0.5,0.7,1.2,0.7,1.9c0,0.7-0.2,1.4-0.7,1.9
		l0,3.1c-0.6,0.7-1.4,1.2-2.4,1.2c-1,0-1.9-0.5-2.5-1.2v-3.1c-0.4-0.5-0.6-1.2-0.6-1.9s0.2-1.3,0.6-1.9L52,58.6z M54.5,61.3
		c-1.2,0-2.2,1-2.2,2.2c0,1.2,1,2.2,2.2,2.2s2.2-1,2.2-2.2C56.7,62.3,55.7,61.3,54.5,61.3z M53.1,60.4c0.4-0.3,0.9-0.3,1.4-0.3
		c0.5,0,1,0,1.4,0.3l-1.4-1.9L53.1,60.4z M55.9,66.6c-0.4,0.3-0.9,0.3-1.4,0.3c-0.5,0-1,0-1.4-0.3l1.4,1.9L55.9,66.6z"/>
</g>
</svg>
