<?xml version="1.0" encoding="utf-8"?>
<!-- Generator: Adobe Illustrator 19.2.1, SVG Export Plug-In . SVG Version: 6.00 Build 0)  -->
<svg version="1.0" id="Ebene_1" xmlns="http://www.w3.org/2000/svg" xmlns:xlink="http://www.w3.org/1999/xlink" x="0px" y="0px"
	 viewBox="0 0 145 145" style="enable-background:new 0 0 145 145;" xml:space="preserve">
<style type="text/css">
	.st0{fill:#FFFFFF;}
	.st1{fill:#9C9B9B;}
	.st2{fill:#ECECEC;}
	.st3{fill:#3C3C3B;}
	.st4{fill:#1D1D1B;}
	.st5{fill:#C6C6C5;}
	.st6{fill:#D9D9D9;}
</style>
<g>
	<rect x="0.5" y="0.5" class="st0" width="144" height="144"/>
	<path class="st1" d="M145,145H0V0h145V145z M1,144h143V1H1V144z"/>
	<g>
		<rect x="27.5" y="27.5" class="st2" width="90" height="90"/>
		<path class="st1" d="M117.8,117.8H27.3V27.3h90.5V117.8z M27.8,117.3h89.5V27.8H27.8V117.3z"/>
	</g>
	<circle class="st3" cx="90.5" cy="63.5" r="7.4"/>
	<path class="st1" d="M90.5,71.2c-4.2,0-7.7-3.4-7.7-7.7s3.4-7.7,7.7-7.7s7.7,3.4,7.7,7.7S94.7,71.2,90.5,71.2z M90.5,56.3
		c-3.9,0-7.2,3.2-7.2,7.2s3.2,7.2,7.2,7.2s7.2-3.2,7.2-7.2S94.4,56.3,90.5,56.3z"/>
	<path class="st1" d="M90.5,72.2c-4.8,0-8.7-3.9-8.7-8.7s3.9-8.7,8.7-8.7s8.7,3.9,8.7,8.7S95.3,72.2,90.5,72.2z M90.5,55.3
		c-4.5,0-8.2,3.7-8.2,8.2s3.7,8.2,8.2,8.2s8.2-3.7,8.2-8.2S95,55.3,90.5,55.3z"/>
	<circle class="st4" cx="90.5" cy="63.5" r="1.6"/>
	<path class="st3" d="M90.5,72.8c-5.1,0-9.3-4.1-9.3-9.3s4.1-9.3,9.3-9.3s9.3,4.1,9.3,9.3S95.6,72.8,90.5,72.8z M90.5,54.8
		c-4.8,0-8.8,3.9-8.8,8.8s3.9,8.8,8.8,8.8s8.8-3.9,8.8-8.8S95.3,54.8,90.5,54.8z"/>
	<g>
		<circle class="st3" cx="54.5" cy="63.5" r="7.4"/>
		<path class="st1" d="M54.5,71.2c-4.2,0-7.7-3.4-7.7-7.7s3.4-7.7,7.7-7.7s7.7,3.4,7.7,7.7S58.7,71.2,54.5,71.2z M54.5,56.3
			c-3.9,0-7.2,3.2-7.2,7.2s3.2,7.2,7.2,7.2s7.2-3.2,7.2-7.2S58.4,56.3,54.5,56.3z"/>
	</g>
	<path class="st1" d="M54.5,72.2c-4.8,0-8.7-3.9-8.7-8.7s3.9-8.7,8.7-8.7s8.7,3.9,8.7,8.7S59.3,72.2,54.5,72.2z M54.5,55.3
		c-4.5,0-8.2,3.7-8.2,8.2s3.7,8.2,8.2,8.2s8.2-3.7,8.2-8.2S59,55.3,54.5,55.3z"/>
	<circle class="st2" cx="54.5" cy="63.5" r="1.1"/>
	<path class="st3" d="M54.5,72.8c-5.1,0-9.3-4.1-9.3-9.3s4.1-9.3,9.3-9.3s9.3,4.1,9.3,9.3S59.6,72.8,54.5,72.8z M54.5,54.8
		c-4.8,0-8.8,3.9-8.8,8.8s3.9,8.8,8.8,8.8s8.8-3.9,8.8-8.8S59.3,54.8,54.5,54.8z"/>
	<circle class="st5" cx="72.5" cy="63.5" r="2.2"/>
	<rect x="70.4" y="63.1" transform="matrix(0.7071 -0.7071 0.7071 0.7071 -23.6665 69.864)" class="st1" width="4.2" height="0.8"/>
	<g>
		<circle class="st3" cx="72.3" cy="81.3" r="7.4"/>
		<path class="st1" d="M72.3,88.9c-4.2,0-7.7-3.4-7.7-7.7s3.4-7.7,7.7-7.7s7.7,3.4,7.7,7.7S76.5,88.9,72.3,88.9z M72.3,74.1
			c-3.9,0-7.2,3.2-7.2,7.2s3.2,7.2,7.2,7.2s7.2-3.2,7.2-7.2S76.2,74.1,72.3,74.1z"/>
	</g>
	<path class="st1" d="M72.3,90c-4.8,0-8.7-3.9-8.7-8.7s3.9-8.7,8.7-8.7s8.7,3.9,8.7,8.7S77.1,90,72.3,90z M72.3,73
		c-4.5,0-8.2,3.7-8.2,8.2s3.7,8.2,8.2,8.2s8.2-3.7,8.2-8.2S76.8,73,72.3,73z"/>
	<g>
		<circle class="st3" cx="72.3" cy="81.3" r="1.1"/>
		<path class="st6" d="M72.3,82.4c-0.7,0-1.2-0.5-1.2-1.2s0.5-1.2,1.2-1.2s1.2,0.5,1.2,1.2S72.9,82.4,72.3,82.4z M72.3,80.3
			c-0.5,0-0.9,0.4-0.9,0.9s0.4,0.9,0.9,0.9s0.9-0.4,0.9-0.9S72.8,80.3,72.3,80.3z"/>
	</g>
	<path class="st3" d="M72.3,90.5c-5.1,0-9.3-4.1-9.3-9.3s4.1-9.3,9.3-9.3s9.3,4.1,9.3,9.3S77.4,90.5,72.3,90.5z M72.3,72.5
		c-4.8,0-8.8,3.9-8.8,8.8s3.9,8.8,8.8,8.8s8.8-3.9,8.8-8.8S77.1,72.5,72.3,72.5z"/>
</g>
</svg>
