<?xml version="1.0" encoding="utf-8"?>
<!-- Generator: Adobe Illustrator 21.0.0, SVG Export Plug-In . SVG Version: 6.00 Build 0)  -->
<svg version="1.1" id="Ebene_1" xmlns="http://www.w3.org/2000/svg" xmlns:xlink="http://www.w3.org/1999/xlink" x="0px" y="0px"
	 viewBox="0 0 145 145" style="enable-background:new 0 0 145 145;" xml:space="preserve">
<style type="text/css">
	.st0{display:none;}
	.st1{display:inline;fill:#FFFFFF;}
	.st2{display:inline;fill:#9C9B9B;}
	.st3{display:inline;}
	.st4{fill:#ECECEC;stroke:#9C9B9B;stroke-width:0.5;stroke-miterlimit:10;}
	.st5{fill:#3C3C3B;}
	.st6{fill:#9C9B9B;}
	.st7{fill:#D9D9D9;}
	.st8{fill:#ECECEC;}
	.st9{fill:#C6C6C5;}
	.st10{fill:#FFFFFF;stroke:#9C9B9B;stroke-miterlimit:10;}
	.st11{fill:#FFFFFF;stroke:#9C9B9B;stroke-width:0.25;stroke-miterlimit:10;}
	.st12{font-family:'Raleway';}
	.st13{font-size:4.8298px;}
</style>
<g class="st0">
	<rect x="-396.5" y="-71.5" class="st1" width="144" height="144"/>
	<path class="st2" d="M-252,73h-145V-72h145V73z M-396,72h143V-71h-143V72z"/>
	<g class="st3">
		<circle class="st4" cx="-324.5" cy="0.8" r="45"/>
		<g>
			<g>
				<circle class="st5" cx="-306.5" cy="0.8" r="7.4"/>
				<path class="st6" d="M-306.5,8.4c-4.2,0-7.7-3.4-7.7-7.7s3.4-7.7,7.7-7.7s7.7,3.4,7.7,7.7S-302.3,8.4-306.5,8.4z M-306.5-6.4
					c-3.9,0-7.2,3.2-7.2,7.2s3.2,7.2,7.2,7.2s7.2-3.2,7.2-7.2S-302.6-6.4-306.5-6.4z"/>
			</g>
			<path class="st6" d="M-306.5,9.5c-4.8,0-8.7-3.9-8.7-8.7s3.9-8.7,8.7-8.7s8.7,3.9,8.7,8.7S-301.7,9.5-306.5,9.5z M-306.5-7.5
				c-4.5,0-8.2,3.7-8.2,8.2S-311,9-306.5,9s8.2-3.7,8.2-8.2S-302-7.5-306.5-7.5z"/>
			<g>
				<circle class="st5" cx="-306.5" cy="0.8" r="1.1"/>
				<path class="st7" d="M-306.5,1.9c-0.7,0-1.2-0.5-1.2-1.2s0.5-1.2,1.2-1.2s1.2,0.5,1.2,1.2S-305.8,1.9-306.5,1.9z M-306.5-0.2
					c-0.5,0-0.9,0.4-0.9,0.9s0.4,0.9,0.9,0.9s0.9-0.4,0.9-0.9S-306-0.2-306.5-0.2z"/>
			</g>
			<path class="st5" d="M-306.5,10c-5.1,0-9.3-4.1-9.3-9.3s4.1-9.3,9.3-9.3s9.3,4.1,9.3,9.3S-301.4,10-306.5,10z M-306.5-8
				c-4.8,0-8.8,3.9-8.8,8.8s3.9,8.8,8.8,8.8s8.8-3.9,8.8-8.8S-301.7-8-306.5-8z"/>
			<g>
				<circle class="st5" cx="-342.5" cy="0.8" r="7.4"/>
				<path class="st6" d="M-342.5,8.4c-4.2,0-7.7-3.4-7.7-7.7s3.4-7.7,7.7-7.7s7.7,3.4,7.7,7.7S-338.3,8.4-342.5,8.4z M-342.5-6.4
					c-3.9,0-7.2,3.2-7.2,7.2s3.2,7.2,7.2,7.2s7.2-3.2,7.2-7.2S-338.6-6.4-342.5-6.4z"/>
			</g>
			<path class="st6" d="M-342.5,9.5c-4.8,0-8.7-3.9-8.7-8.7s3.9-8.7,8.7-8.7s8.7,3.9,8.7,8.7S-337.7,9.5-342.5,9.5z M-342.5-7.5
				c-4.5,0-8.2,3.7-8.2,8.2S-347,9-342.5,9s8.2-3.7,8.2-8.2S-338-7.5-342.5-7.5z"/>
			<circle class="st8" cx="-342.5" cy="0.8" r="1.1"/>
			<path class="st5" d="M-342.5,10c-5.1,0-9.3-4.1-9.3-9.3s4.1-9.3,9.3-9.3s9.3,4.1,9.3,9.3S-337.4,10-342.5,10z M-342.5-8
				c-4.8,0-8.8,3.9-8.8,8.8s3.9,8.8,8.8,8.8s8.8-3.9,8.8-8.8S-337.7-8-342.5-8z"/>
			<circle class="st9" cx="-324.5" cy="0.8" r="2.2"/>
			
				<rect x="-326.6" y="0.4" transform="matrix(0.7071 -0.7071 0.7071 0.7071 -95.5891 -229.2019)" class="st6" width="4.2" height="0.8"/>
		</g>
	</g>
</g>
<rect x="0.8" y="0.6" class="st10" width="143.7" height="143.7"/>
<rect x="27.5" y="27.5" class="st4" width="90" height="90"/>
<rect x="49.1" y="66" class="st11" width="46.8" height="13"/>
<text transform="matrix(1 0 0 1 55.75 74.682)" class="st12 st13">B.110.123.456.X</text>
</svg>
