<?xml version="1.0" standalone="no"?>
<!DOCTYPE svg PUBLIC "-//W3C//DTD SVG 20010904//EN"
 "http://www.w3.org/TR/2001/REC-SVG-20010904/DTD/svg10.dtd">
<svg version="1.0" xmlns="http://www.w3.org/2000/svg"
 width="1009.000000pt" height="1009.000000pt" viewBox="0 0 1009.000000 1009.000000"
 preserveAspectRatio="xMidYMid meet">
<metadata>
Created by potrace 1.11, written by Peter Selinger 2001-2013
</metadata>
<g transform="translate(0.000000,1009.000000) scale(0.100000,-0.100000)"
fill="#000000" stroke="none">
<path d="M750 6985 c0 -1057 1 -1114 18 -1108 9 3 27 15 39 27 11 12 44 35 72
51 28 17 51 36 51 43 0 6 4 12 9 12 5 0 40 25 76 55 37 30 74 55 81 55 8 0 14
4 14 8 0 5 34 28 74 51 41 23 80 48 85 55 6 7 30 21 53 32 24 10 47 24 51 31
4 7 15 13 23 13 8 0 41 13 72 28 42 21 67 27 94 24 37 -4 37 -4 20 -28 -9 -13
-22 -24 -29 -24 -6 0 -13 -3 -15 -7 -3 -9 -64 -53 -72 -53 -2 0 -39 -20 -80
-45 -42 -25 -81 -45 -86 -45 -6 0 -10 -7 -10 -16 0 -8 -4 -13 -9 -10 -15 10
-161 -74 -161 -92 0 -8 -3 -12 -6 -9 -7 7 -94 -40 -106 -58 -4 -5 -8 -14 -8
-19 0 -12 72 3 90 19 8 7 31 21 50 30 19 10 37 21 40 24 3 3 27 17 53 31 27
14 53 33 58 43 5 9 18 17 27 17 10 0 27 7 38 15 12 8 24 11 28 8 3 -3 6 0 6 8
0 8 12 20 28 27 15 6 50 25 77 42 28 16 66 38 85 47 19 9 43 24 53 32 13 11
17 11 17 1 0 -9 3 -10 14 -1 16 14 27 59 15 63 -5 2 24 4 64 6 40 2 107 14
151 27 75 23 102 25 80 7 -5 -4 -27 -14 -49 -21 -21 -8 -47 -23 -56 -35 -14
-16 -20 -18 -30 -9 -9 10 -18 8 -38 -6 -14 -10 -36 -22 -48 -25 -13 -4 -23
-14 -23 -23 0 -8 -6 -13 -12 -10 -7 2 -25 -4 -39 -14 -15 -10 -38 -23 -53 -29
-14 -5 -26 -16 -26 -25 0 -8 -8 -15 -17 -16 -15 0 -15 -2 2 -9 15 -7 10 -8
-20 -7 -30 2 -55 -6 -98 -30 -33 -18 -63 -33 -67 -33 -4 0 -17 -16 -29 -35
-11 -20 -27 -38 -36 -41 -8 -4 -15 -15 -15 -26 0 -16 -3 -18 -13 -9 -8 6 -18
7 -23 2 -5 -4 -49 -30 -99 -56 -121 -64 -298 -170 -334 -201 -16 -13 -33 -24
-38 -24 -4 0 -21 -12 -37 -26 -20 -20 -27 -33 -23 -52 6 -32 -22 -61 -92 -96
-28 -15 -51 -31 -51 -37 0 -5 -27 -35 -60 -66 -57 -54 -74 -83 -49 -83 6 0 23
9 39 20 15 11 31 16 35 12 5 -4 5 -2 2 4 -4 7 9 26 29 44 20 17 33 34 30 37
-12 12 28 43 55 43 15 0 35 7 43 16 15 14 16 -60 16 -815 0 -900 -3 -855 53
-811 14 11 30 20 36 20 6 0 11 6 11 14 0 8 8 13 18 12 15 -3 49 5 92 21 8 3
24 8 35 10 11 2 44 15 73 28 29 14 55 25 57 25 2 0 30 12 62 26 32 14 67 29
78 33 11 5 41 18 66 30 25 11 53 21 62 21 23 0 67 22 67 33 0 5 7 6 16 3 13
-5 132 46 144 63 9 13 111 52 123 48 12 -4 86 89 87 109 0 6 9 19 19 28 10 9
36 45 57 79 20 34 64 101 96 149 32 49 58 90 58 93 0 2 23 44 52 92 86 147
198 402 198 454 0 11 11 30 24 43 14 12 34 45 45 73 11 28 28 70 39 94 25 56
69 188 88 265 9 34 18 129 21 222 5 156 5 166 -17 213 -13 27 -31 51 -40 54
-16 5 -67 65 -55 65 12 0 75 -47 124 -93 97 -91 141 -216 121 -344 -12 -76
-54 -270 -69 -320 -9 -30 -8 -33 15 -39 13 -3 24 -8 24 -10 0 -3 -11 -31 -25
-64 -14 -33 -25 -64 -25 -70 0 -6 -9 -30 -19 -53 -10 -23 -31 -70 -45 -104
-14 -34 -37 -73 -51 -87 -14 -14 -25 -34 -25 -45 0 -43 -115 -323 -140 -341
-4 -3 -13 -22 -19 -43 -14 -41 -70 -138 -99 -171 -20 -23 -212 -330 -212 -340
0 -3 -8 -14 -18 -24 -37 -40 -53 -65 -55 -83 -1 -10 -7 -19 -13 -19 -7 0 -14
-7 -18 -15 -3 -8 -9 -14 -13 -13 -16 3 -69 -16 -91 -33 -12 -9 -42 -21 -65
-24 -23 -4 -62 -18 -88 -30 -25 -13 -63 -27 -85 -31 -21 -4 -62 -18 -90 -31
-29 -13 -58 -23 -65 -21 -8 1 -29 -7 -46 -20 -18 -13 -50 -26 -70 -29 -38 -6
-93 -29 -103 -43 -3 -4 -15 -10 -27 -14 -16 -5 -23 -2 -26 11 -4 15 -5 15 -6
-3 -1 -13 -14 -26 -35 -37 -19 -9 -37 -25 -41 -36 -3 -12 -15 -21 -26 -21 -10
0 -19 -6 -19 -12 0 -10 -2 -10 -9 0 -7 11 -9 11 -14 -1 -3 -8 -16 -17 -29 -20
-47 -11 -102 -35 -106 -46 -3 -9 -7 -9 -18 0 -25 20 -44 3 -44 -40 0 -31 -6
-44 -26 -60 -15 -12 -34 -21 -43 -21 -16 -1 -51 -23 -51 -33 0 -2 7 -8 16 -11
23 -9 72 14 77 36 3 10 10 18 16 18 7 0 11 -30 11 -85 l0 -85 280 0 280 0 9
23 c14 34 58 178 65 212 5 25 1 21 -26 -22 -34 -56 -54 -69 -45 -30 7 33 95
237 108 254 9 10 15 11 23 3 16 -16 26 -12 26 9 0 16 10 21 48 27 26 5 53 7
60 6 6 -2 12 3 12 9 0 7 3 10 6 6 4 -3 19 0 35 9 17 8 29 10 29 4 0 -5 7 -10
16 -10 13 0 11 -8 -10 -43 -71 -112 -216 -434 -216 -477 l0 -24 17 24 c9 14
18 27 19 29 1 1 7 0 13 -3 6 -4 3 -27 -9 -64 -10 -31 -25 -84 -34 -117 -9 -33
-25 -76 -35 -95 -33 -62 -101 -314 -101 -372 0 -10 7 -18 15 -18 8 0 14 3 13
7 -1 5 4 21 10 36 7 16 12 36 12 47 0 10 7 40 15 66 8 27 26 89 41 139 14 49
32 98 40 109 8 11 14 31 14 44 0 12 6 25 14 28 8 3 13 11 11 17 -2 7 13 46 33
87 l37 75 938 3 937 2 0 2385 0 2385 -319 0 c-277 0 -320 -2 -325 -15 -4 -10
3 -19 18 -25 13 -5 38 -21 55 -37 40 -37 93 -78 103 -79 4 -1 17 -2 28 -3 12
-1 22 -11 26 -27 9 -35 55 -104 69 -104 13 0 47 -55 39 -63 -9 -9 -37 4 -65
30 -24 22 -199 112 -247 128 -13 4 -22 9 -19 11 2 2 23 -3 47 -11 49 -17 70
-19 70 -5 0 15 -70 47 -120 55 -25 4 -53 11 -63 17 -12 6 -19 5 -23 -6 -5 -12
-10 -13 -24 -4 -10 7 -17 15 -14 19 4 7 -44 24 -58 21 -5 -1 -8 7 -8 18 0 11
3 20 8 20 19 0 158 -42 166 -51 6 -5 14 -9 19 -9 17 0 -15 31 -79 76 l-62 44
-961 0 -961 0 0 -1115z m1675 1080 c101 4 207 -31 137 -46 -15 -3 -31 -2 -37
1 -11 8 -33 10 -79 10 -15 0 -35 5 -42 11 -11 9 -14 8 -14 -1 0 -8 -8 -10 -24
-6 -14 3 -27 2 -30 -3 -7 -10 -45 -3 -64 12 -11 9 -4 14 30 22 23 6 48 8 53 4
6 -4 37 -6 70 -4z m501 -255 c14 -14 47 -47 74 -74 75 -73 105 -186 72 -267
-6 -15 -16 -45 -22 -68 -7 -28 -19 -46 -35 -53 -13 -6 -26 -20 -29 -32 -9 -35
-104 -155 -147 -184 -21 -15 -38 -32 -39 -39 0 -6 -10 -19 -22 -27 -12 -9 -19
-16 -15 -16 9 0 -6 -14 -110 -107 -45 -40 -85 -73 -90 -73 -13 0 -66 -60 -59
-67 12 -13 55 10 104 57 30 27 58 50 63 50 15 0 118 78 176 134 36 34 49 52
40 58 -9 6 -9 10 1 20 9 9 15 9 24 0 17 -17 -5 -52 -72 -115 -73 -68 -131
-117 -138 -117 -3 0 -19 -11 -36 -23 -53 -41 -161 -113 -181 -122 -19 -8 -19
-9 3 -12 12 -3 22 -8 22 -12 0 -8 -145 -92 -285 -166 -49 -26 -96 -52 -102
-58 -9 -6 -13 -5 -14 4 0 11 -2 11 -6 -1 -8 -19 -29 -40 -41 -40 -6 0 -2 18 9
40 23 48 23 63 3 145 -11 44 -21 65 -32 65 -15 0 -14 -11 4 -92 6 -27 4 -28
-29 -28 -27 0 -37 -5 -42 -21 -9 -29 4 -38 21 -15 8 11 14 17 14 13 0 -4 10
-3 21 4 21 11 22 10 15 -22 -3 -18 -16 -44 -29 -57 -27 -29 -94 -65 -110 -59
-7 2 -19 1 -27 -3 -30 -14 -70 -20 -70 -10 0 5 18 19 39 30 22 11 43 25 47 32
6 10 5 10 -7 1 -16 -13 -74 -28 -141 -38 -33 -4 -48 -11 -48 -21 0 -12 -11
-14 -47 -12 -32 2 -47 7 -45 16 1 8 -10 12 -34 12 -21 0 -33 -4 -29 -10 4 -6
-12 -10 -40 -10 -31 0 -47 5 -51 15 -7 18 -51 20 -56 3 -3 -7 -14 -9 -31 -4
-15 3 -25 11 -22 16 3 6 -1 7 -10 4 -20 -8 -92 23 -100 43 -4 11 -1 13 12 8
37 -15 53 -17 53 -6 0 14 47 15 52 0 2 -6 67 -11 176 -14 l173 -4 27 27 c30
28 58 50 107 82 33 22 30 25 -11 10 -47 -18 -212 -37 -230 -27 -11 6 -35 6
-66 -2 -70 -16 -305 -15 -315 2 -10 14 -108 67 -126 67 -19 0 -41 40 -28 53 8
8 11 8 11 -1 0 -7 5 -12 11 -12 6 0 8 7 5 17 -6 14 -3 14 16 -3 32 -30 62 -44
92 -44 13 0 26 -4 28 -9 2 -4 13 -12 26 -15 16 -6 22 -3 22 8 0 22 37 20 49
-1 8 -16 32 -18 208 -21 183 -3 202 -2 256 18 31 12 73 36 92 54 29 28 35 40
35 75 0 22 -3 41 -7 41 -5 0 -16 14 -26 31 -17 31 -17 31 2 26 16 -4 19 0 18
21 -4 49 21 34 37 -22 9 -31 23 -80 31 -110 l16 -55 57 33 c31 18 75 44 97 58
22 13 76 44 120 67 82 44 240 144 263 168 7 7 17 13 21 13 4 0 27 18 52 41 24
22 54 47 67 56 12 8 22 21 22 28 0 6 12 25 28 41 41 43 82 99 82 112 0 7 -8
12 -18 12 -27 0 -62 -29 -62 -51 0 -10 -4 -19 -8 -19 -4 0 -39 -29 -76 -65
-38 -36 -89 -78 -115 -92 -25 -15 -65 -46 -89 -70 -23 -24 -44 -43 -47 -43 -3
0 -5 14 -5 30 0 17 4 30 9 30 6 0 22 11 36 24 15 14 54 43 88 66 34 23 76 59
92 81 53 70 136 149 148 142 7 -4 23 -6 36 -4 15 2 21 -1 17 -8 -11 -17 10
-13 24 4 11 13 10 14 -5 9 -13 -5 -16 -2 -13 12 1 10 13 21 26 24 13 3 23 8
23 13 -2 22 0 27 12 25 32 -7 108 227 93 288 -4 16 -32 53 -62 82 -30 29 -54
58 -54 63 0 14 56 -20 86 -51z m-96 -6 c0 -8 -4 -12 -10 -9 -5 3 -10 10 -10
16 0 5 5 9 10 9 6 0 10 -7 10 -16z m304 -132 c7 -15 17 -38 21 -52 7 -24 6
-23 -15 5 -13 17 -42 50 -64 74 l-41 43 42 -21 c24 -12 49 -34 57 -49z m33
-160 c3 -13 0 -29 -6 -35 -8 -8 -11 -3 -11 22 0 18 -5 42 -11 54 -10 22 -10
22 6 2 9 -11 18 -30 22 -43z m-88 -105 c-16 -70 -77 -189 -91 -181 -7 4 -8 2
-4 -4 4 -7 2 -12 -4 -12 -6 0 -8 -4 -5 -10 3 -5 -3 -10 -14 -10 -12 0 -21 -7
-21 -15 0 -8 5 -15 11 -15 8 0 8 -5 -1 -15 -14 -17 -35 -21 -25 -5 3 6 -1 10
-9 10 -9 0 -16 2 -16 5 0 3 25 35 55 72 59 73 125 195 126 234 0 13 3 18 6 11
3 -7 -1 -36 -8 -65z m133 -6 c-1 -68 -35 -166 -89 -253 -79 -127 -145 -195
-363 -372 -9 -6 -42 -29 -74 -51 -57 -38 -58 -39 -37 -55 24 -17 19 -30 -11
-30 -10 0 -18 -6 -18 -14 0 -17 -51 -56 -74 -56 -9 0 -16 -6 -16 -13 0 -9 -10
-12 -31 -9 -27 4 -30 2 -25 -14 4 -15 -7 -27 -52 -56 -32 -21 -64 -38 -70 -38
-7 0 -12 -4 -12 -10 0 -19 -38 -31 -58 -19 -19 12 -19 12 0 31 11 11 22 17 25
14 4 -3 13 0 21 6 8 7 24 17 35 23 12 6 23 19 25 29 4 17 -1 18 -42 13 -25 -4
-46 -3 -46 1 1 13 25 39 50 52 14 7 66 40 115 73 50 32 100 59 113 59 12 0 22
7 22 14 0 7 32 34 70 60 39 26 107 86 153 135 45 49 87 89 94 89 7 0 13 6 13
14 0 7 11 21 25 30 13 9 43 42 67 74 23 31 45 58 49 60 4 2 15 24 23 50 10 30
24 51 39 57 18 8 26 27 42 97 21 93 38 97 37 9z m-110 -33 c-6 -6 -7 0 -4 19
5 21 7 23 10 9 2 -10 0 -22 -6 -28z m-1802 11 c0 -8 4 -8 14 0 10 8 19 7 37
-6 39 -29 70 -45 98 -49 36 -7 50 -22 31 -34 -19 -12 -33 -13 -26 -1 3 4 -6 6
-21 3 -15 -3 -24 -1 -20 5 7 11 -80 36 -94 28 -5 -4 -9 -1 -9 6 0 6 -8 9 -20
6 -23 -6 -45 16 -36 38 6 17 46 21 46 4z m-62 -16 c2 -8 -5 -13 -17 -13 -12 0
-21 6 -21 16 0 18 31 15 38 -3z m-213 -23 c3 -6 -1 -13 -9 -16 -21 -8 -10 -24
15 -24 30 0 23 -23 -13 -44 -34 -18 -73 -61 -85 -92 -7 -18 -6 -18 19 -2 72
47 96 57 102 42 3 -8 -1 -14 -9 -14 -24 0 -17 -17 10 -24 34 -9 31 -20 -9 -44
-71 -42 -122 -151 -99 -212 9 -25 9 -30 -3 -30 -10 0 -14 -12 -14 -40 0 -31 4
-40 18 -41 14 0 14 -2 -3 -9 -14 -6 -16 -9 -4 -9 8 -1 24 -8 35 -17 18 -15 18
-15 -8 -10 -15 4 -30 2 -33 -4 -12 -19 -35 -10 -35 13 0 13 -3 27 -7 31 -5 4
-9 20 -10 34 -2 30 -12 79 -21 102 -6 17 -7 25 -17 126 -10 99 11 170 70 229
24 25 53 45 64 45 12 0 21 5 21 10 0 13 17 13 25 0z m501 -68 c9 -5 9 -10 -1
-19 -14 -13 -41 0 -31 16 8 13 16 14 32 3z m1547 -9 c-6 -19 -81 -120 -94
-129 -11 -6 56 104 77 127 21 24 25 24 17 2z m-1803 -35 c0 -5 -9 -8 -20 -8
-22 0 -28 26 -7 33 12 4 27 -10 27 -25z m110 12 c0 -4 18 -15 40 -25 46 -21
53 -39 13 -31 -16 3 -43 7 -60 8 -18 1 -33 6 -33 10 0 13 -30 9 -30 -4 -1 -18
-30 22 -30 40 0 11 9 13 35 9 19 -3 35 -2 35 3 0 5 7 7 15 4 8 -4 15 -9 15
-14z m140 -64 c0 -11 -19 -15 -25 -6 -3 5 1 10 9 10 9 0 16 -2 16 -4z m190
-46 c0 -11 -2 -20 -3 -20 -2 0 -12 9 -22 20 -18 19 -17 20 3 20 15 0 22 -6 22
-20z m30 -130 c0 -11 -2 -20 -3 -20 -2 0 -12 9 -22 20 -18 19 -17 20 3 20 15
0 22 -6 22 -20z m132 -27 c21 -19 24 -43 5 -43 -11 0 -37 39 -37 55 0 10 14 4
32 -12z m428 -33 c0 -5 -8 -10 -17 -10 -15 0 -16 2 -3 10 19 12 20 12 20 0z
m-1470 -10 c0 -5 -4 -10 -10 -10 -5 0 -10 5 -10 10 0 6 5 10 10 10 6 0 10 -4
10 -10z m1410 -54 c-6 -8 -18 -12 -26 -9 -19 7 -7 23 18 23 17 0 18 -3 8 -14z
m-50 -36 c-6 -11 -13 -20 -15 -20 -3 0 -5 9 -5 20 0 11 7 20 15 20 13 0 14 -4
5 -20z m519 -203 c-2 -1 -13 -9 -24 -17 -19 -14 -19 -14 -6 3 7 9 18 17 24 17
6 0 8 -1 6 -3z m163 -175 c16 -29 28 -55 26 -57 -2 -3 -26 11 -52 30 -49 35
-182 95 -210 95 -26 0 -28 20 -4 30 13 6 41 21 63 34 l40 25 53 -52 c29 -29
67 -76 84 -105z m-1743 105 c6 -8 8 -16 5 -19 -3 -4 8 -9 25 -13 36 -8 48 -22
32 -38 -13 -13 -71 5 -101 30 -16 14 -16 17 -2 34 19 23 26 23 41 6z m1126
-37 c-3 -5 -11 -10 -16 -10 -6 0 -7 5 -4 10 3 6 11 10 16 10 6 0 7 -4 4 -10z
m-595 -30 c0 -5 -5 -10 -11 -10 -5 0 -7 5 -4 10 3 6 8 10 11 10 2 0 4 -4 4
-10z m1081 -75 c75 -38 128 -85 173 -150 31 -44 40 -70 49 -130 8 -55 15 -75
26 -76 12 -1 12 -2 -1 -6 -16 -4 -18 -18 -19 -101 0 -53 -4 -117 -8 -142 -7
-36 -9 -24 -10 65 -2 167 -35 291 -101 375 -29 36 -128 110 -148 110 -6 0 -25
20 -42 45 -17 25 -35 45 -40 45 -6 0 -10 4 -10 10 0 11 58 -9 131 -45z m-151
10 c19 -19 30 -35 26 -35 -5 0 -4 -6 1 -12 11 -14 24 -48 19 -48 -2 0 -20 13
-40 29 -21 17 -53 35 -72 41 -41 14 -43 25 -6 44 36 20 33 21 72 -19z m-360 6
c0 -10 -42 -23 -49 -15 -7 6 20 24 37 24 6 0 12 -4 12 -9z m-55 -51 c-3 -5
-12 -10 -19 -10 -13 0 -89 -33 -116 -50 -8 -6 -24 -14 -36 -19 -11 -5 -53 -30
-92 -55 -75 -49 -82 -52 -82 -35 0 5 15 16 33 24 18 7 40 22 50 33 10 10 35
27 57 37 22 10 40 22 40 26 0 11 60 42 67 35 3 -3 15 1 27 9 23 17 81 21 71 5z
m356 -32 c31 -16 73 -47 94 -68 35 -36 37 -42 41 -117 l4 -78 -29 56 c-34 64
-147 174 -209 204 -39 19 -40 20 -19 32 26 14 44 10 118 -29z m369 -3 c19 -19
32 -35 29 -35 -3 0 -20 16 -39 35 -19 19 -32 35 -29 35 3 0 20 -16 39 -35z
m-148 -44 c80 -54 125 -122 153 -231 26 -101 30 -221 11 -336 -19 -123 -86
-320 -115 -344 -3 -3 -11 -18 -17 -35 -9 -28 -13 -30 -51 -27 -23 2 -44 -2
-48 -7 -9 -16 -25 -13 -25 3 0 8 -6 16 -12 18 -9 3 -8 9 5 22 9 10 20 35 23
58 4 22 13 42 21 45 12 5 43 53 43 68 0 3 -7 5 -16 5 -10 0 -14 6 -10 18 3 9
14 67 26 127 11 61 28 142 38 180 11 47 17 113 17 200 0 116 -2 135 -23 173
-12 23 -26 42 -30 42 -8 1 -46 50 -38 50 3 0 24 -13 48 -29z m-932 -110 c0 -5
-16 -15 -35 -21 -19 -6 -35 -16 -35 -21 0 -5 -6 -9 -14 -9 -7 0 -17 -10 -21
-22 -6 -20 -8 -21 -12 -5 -5 20 13 47 32 47 7 0 23 9 36 20 26 21 49 26 49 11z
m-142 -85 c-7 -8 -17 -12 -22 -9 -4 3 -2 9 5 14 22 13 31 11 17 -5z m-48 -15
c0 -11 -66 -51 -85 -51 -8 0 -20 -9 -27 -20 -7 -11 -19 -20 -28 -20 -23 0 16
33 80 68 65 36 60 34 60 23z m-712 -53 c-6 -16 -36 -34 -44 -26 -8 9 17 37 34
38 8 0 12 -5 10 -12z m81 -254 c-12 -14 -11 -16 6 -12 11 2 19 11 19 21 -1 12
6 17 22 17 15 0 24 -6 24 -16 0 -11 -5 -14 -17 -10 -10 4 -14 4 -11 0 9 -8
-60 -64 -78 -64 -8 0 -14 -4 -14 -10 0 -5 -7 -10 -16 -10 -20 0 -13 20 12 34
10 6 21 12 24 14 2 2 -2 7 -10 12 -10 7 -11 10 -2 10 6 0 12 6 12 14 0 8 8 16
18 18 24 6 27 1 11 -18z m-109 -85 c0 -4 -7 -6 -15 -3 -8 4 -15 10 -15 15 0 4
7 6 15 3 8 -4 15 -10 15 -15z m1815 -71 c-3 -13 -15 -52 -25 -88 -10 -36 -21
-81 -25 -101 -3 -20 -17 -49 -30 -63 -32 -34 -31 -21 0 54 14 33 32 84 39 113
17 65 34 107 41 107 4 0 4 -10 0 -22z m285 -97 c0 -4 -5 -23 -11 -42 -6 -19
-12 -39 -14 -46 -3 -9 -12 -10 -34 -2 -27 10 -30 14 -25 37 12 49 24 62 54 62
17 0 30 -4 30 -9z m-691 -40 c-3 -6 -10 -7 -18 -2 -7 5 -10 14 -6 21 9 14 29
-2 24 -19z m824 -3 c97 -39 153 -91 181 -168 10 -28 17 -52 15 -54 -2 -2 -44
12 -93 31 -56 22 -120 38 -174 44 -47 5 -87 11 -88 12 -1 1 2 13 7 26 8 21 13
23 51 17 36 -6 40 -5 28 9 -7 8 -21 15 -31 15 -10 0 -21 4 -24 10 -10 16 17
90 32 90 8 0 51 -15 96 -32z m-955 -24 c-9 -9 -21 -13 -27 -10 -20 13 -11 26
16 26 25 0 26 -1 11 -16z m-56 -36 c4 -12 -30 -32 -107 -60 -83 -31 -202 -71
-249 -84 -27 -7 -56 -20 -65 -28 -9 -7 -32 -21 -52 -30 -20 -10 -52 -30 -70
-47 -35 -31 -44 -35 -53 -20 -7 11 3 41 14 41 4 0 52 27 108 60 55 33 104 60
110 60 5 0 15 6 22 14 6 8 41 25 76 36 36 12 68 28 70 35 4 9 18 11 42 8 20
-2 55 2 77 10 51 19 72 20 77 5z m813 -10 c14 -6 25 -19 25 -30 0 -15 -8 -18
-45 -18 -50 0 -49 -1 -33 35 13 28 17 30 53 13z m-595 -54 c0 -16 -16 -19 -25
-4 -8 13 4 32 16 25 5 -4 9 -13 9 -21z m-130 -29 c-13 -16 -40 -20 -40 -7 0
14 12 22 33 22 16 0 17 -3 7 -15z m675 -5 c8 -12 64 -39 92 -43 11 -2 27 -8
35 -14 7 -6 34 -14 61 -17 79 -12 173 -73 205 -134 19 -37 -1 -52 -27 -21 -11
13 -20 27 -21 31 0 12 -96 64 -177 96 -84 33 -118 39 -127 23 -3 -5 -23 0 -43
10 -21 10 -45 19 -55 19 -21 0 -21 1 -6 35 11 25 51 35 63 15z m65 0 c0 -13
-11 -13 -30 0 -12 8 -11 10 8 10 12 0 22 -4 22 -10z m-802 -40 c35 0 52 -17
25 -26 -10 -3 -26 -10 -37 -16 -11 -6 -22 -6 -27 -1 -19 19 -192 -28 -309 -84
-82 -40 -190 -104 -190 -114 0 -17 -41 -32 -54 -19 -8 8 -6 15 10 28 12 9 27
27 33 39 12 23 241 143 273 143 10 0 35 7 56 16 20 10 45 19 56 21 10 2 33 10
50 17 51 23 60 24 72 10 6 -8 25 -14 42 -14z m985 15 c32 -8 88 -28 125 -43
73 -31 78 -40 81 -133 1 -59 -27 -158 -40 -138 -14 22 -11 61 7 80 15 17 15
22 -6 64 -33 67 -124 131 -207 142 -24 3 -50 12 -57 19 -7 7 -24 14 -37 17
-13 2 -1 5 26 6 28 0 77 -6 108 -14z m-550 -52 c-8 -21 -19 -49 -24 -62 -5
-13 -12 -21 -16 -18 -7 8 37 117 48 117 4 0 1 -17 -8 -37z m133 27 c9 0 8 -9
0 -35 -15 -43 -13 -41 -58 -49 l-37 -7 21 51 c18 43 25 51 42 46 12 -3 26 -6
32 -6z m148 -40 c16 -16 -5 -30 -44 -30 -39 0 -39 1 -28 26 10 21 16 24 37 19
14 -4 30 -10 35 -15z m272 -78 c81 -41 124 -97 124 -162 0 -25 -6 -54 -13 -65
-13 -16 -14 -14 -19 22 -9 66 -70 147 -130 175 -16 7 -28 16 -28 20 0 3 -13 9
-30 13 -16 4 -30 11 -30 15 0 5 -10 18 -22 30 l-22 20 54 -18 c31 -11 83 -33
116 -50z m-486 -49 c-17 -32 -51 -92 -77 -133 -25 -41 -93 -151 -151 -244 -57
-93 -114 -190 -126 -215 -39 -84 -99 -179 -116 -184 -12 -3 2 33 50 127 38 73
78 157 90 187 13 30 43 97 68 149 25 52 70 151 101 219 48 105 60 125 81 128
14 2 28 7 32 11 4 4 24 9 43 10 l36 3 -31 -58z m180 34 c0 -7 -7 -22 -15 -33
-8 -10 -19 -36 -25 -57 -10 -35 -52 -111 -103 -184 -12 -17 -47 -70 -77 -117
-30 -46 -57 -83 -61 -81 -3 3 -15 -5 -25 -17 -11 -12 -13 -18 -6 -14 7 4 12 1
12 -9 0 -8 -7 -18 -15 -21 -8 -3 -43 -45 -78 -93 -54 -74 -72 -91 -121 -114
-70 -33 -73 -33 -50 1 10 15 39 68 65 119 26 50 67 122 92 160 24 37 56 89 70
115 15 26 43 63 61 83 19 20 36 40 38 44 2 5 37 58 78 119 l74 112 43 0 c29 0
43 -4 43 -13z m70 -40 c0 -47 -24 -106 -69 -169 -31 -46 -165 -188 -176 -188
-7 0 -7 0 66 113 32 48 81 135 109 193 28 57 55 102 60 99 6 -4 10 -25 10 -48z
m270 -82 c26 -38 35 -64 38 -106 4 -55 3 -57 -40 -103 -25 -25 -51 -46 -59
-46 -23 0 -39 -21 -39 -52 0 -22 -11 -36 -47 -63 -27 -19 -53 -35 -60 -35 -6
0 -13 -4 -15 -8 -8 -19 -220 -132 -248 -132 -12 0 -19 -4 -16 -9 4 -5 -7 -12
-24 -16 -17 -4 -44 -18 -60 -32 -38 -32 -138 -83 -162 -83 -10 0 -18 -4 -18
-8 0 -4 -12 -13 -27 -20 -16 -6 -48 -23 -73 -36 -25 -14 -47 -22 -50 -20 -2 3
0 8 5 12 15 10 73 97 77 113 4 16 55 56 119 91 59 33 134 89 179 134 19 19 62
53 95 74 108 69 230 202 268 290 8 19 26 46 41 59 31 29 33 50 6 79 -31 33
-24 33 28 -1 27 -17 64 -54 82 -82z m-677 75 c-5 -19 -23 -39 -23 -25 0 9 20
45 24 45 2 0 2 -9 -1 -20z m423 -229 c-51 -63 -173 -168 -235 -200 -13 -7 -37
-29 -54 -48 -17 -20 -47 -46 -67 -59 -19 -13 -46 -32 -60 -41 l-25 -18 26 35
c14 19 37 52 51 72 14 20 31 43 39 50 13 13 140 88 212 125 18 10 27 22 27 38
0 17 12 30 43 48 23 14 53 37 66 51 48 51 33 15 -23 -53z m218 -155 c-7 -31
-19 -33 -34 -6 -9 17 -7 22 12 29 29 11 30 9 22 -23z m-154 -130 c0 -7 -72
-47 -77 -43 -2 3 11 14 29 25 33 20 48 26 48 18z m-115 -71 c-31 -25 -45 -31
-45 -17 0 7 55 40 70 41 3 1 -8 -10 -25 -24z m-646 -12 c-42 -111 -135 -250
-155 -231 -4 5 120 212 147 244 17 21 20 17 8 -13z m483 -73 c-18 -11 -35 -20
-37 -20 -3 0 -29 -16 -59 -35 -30 -19 -61 -35 -68 -35 -7 1 3 9 22 19 19 11
44 28 54 40 11 12 26 21 35 21 9 1 27 7 41 15 38 22 49 18 12 -5z m-441 -139
c-17 -22 -45 -44 -61 -50 -33 -11 -35 -9 -20 20 8 14 89 66 108 69 2 0 -10
-18 -27 -39z m-90 3 c-9 -13 -23 -25 -32 -27 -15 -4 -15 -2 -1 22 8 15 23 27
32 27 17 0 17 -2 1 -22z m314 16 c-3 -5 -10 -10 -16 -10 -5 0 -33 -12 -62 -26
-75 -37 -99 -46 -92 -34 3 6 12 10 18 10 7 0 24 8 37 18 24 17 97 50 113 51 5
1 5 -3 2 -9z m-380 -59 c-13 -13 -85 -43 -85 -36 0 3 19 14 43 25 50 22 54 23
42 11z m155 -45 c0 -3 -4 -8 -10 -11 -5 -3 -10 -1 -10 4 0 6 5 11 10 11 6 0
10 -2 10 -4z m-209 -37 c-17 -28 -88 -76 -98 -65 -10 10 32 58 66 76 49 26 54
25 32 -11z m-131 -133 c0 -13 -29 -31 -37 -22 -4 4 25 36 33 36 2 0 4 -6 4
-14z m-90 -46 c-6 -11 -17 -20 -24 -20 -8 0 -19 -6 -25 -14 -16 -19 -51 -27
-51 -11 0 7 21 24 48 38 58 31 66 32 52 7z m30 -34 c0 -3 -4 -8 -10 -11 -5 -3
-10 -1 -10 4 0 6 5 11 10 11 6 0 10 -2 10 -4z m-157 -26 c-3 -11 -7 -20 -9
-20 -2 0 -4 9 -4 20 0 11 4 20 9 20 5 0 7 -9 4 -20z m-33 -15 c0 -14 -5 -25
-11 -25 -6 0 -25 -6 -42 -13 -43 -18 -132 -47 -145 -47 -7 0 -5 10 3 27 12 23
20 27 45 25 20 -2 32 2 36 12 3 9 14 16 24 16 10 0 31 7 46 15 39 20 44 19 44
-10z m-520 -185 c0 -5 -2 -10 -4 -10 -3 0 -8 5 -11 10 -3 6 -1 10 4 10 6 0 11
-4 11 -10z m456 -158 c-18 -16 -18 -16 -6 6 6 13 14 21 18 18 3 -4 -2 -14 -12
-24z m-29 -68 c-7 -22 -20 -51 -30 -65 -17 -23 -17 -23 -1 16 9 22 21 53 26
68 15 42 19 27 5 -19z"/>
<path d="M2916 7357 c-15 -19 -26 -44 -26 -57 0 -13 -3 -21 -6 -17 -4 3 -13 0
-20 -8 -19 -19 -18 -24 5 -18 18 5 50 53 70 106 14 36 7 34 -23 -6z"/>
<path d="M2823 7217 c1 -5 -7 -14 -18 -20 -29 -18 -45 -34 -45 -47 0 -6 -4 -8
-10 -5 -5 3 -10 -3 -10 -15 0 -12 -6 -20 -14 -18 -7 2 -28 -17 -47 -41 -19
-24 -49 -51 -66 -60 -18 -9 -33 -22 -33 -30 0 -8 -3 -11 -6 -8 -6 6 -89 -57
-153 -116 l-24 -22 5 27 5 26 -51 -35 c-32 -22 -50 -41 -48 -52 2 -13 1 -13
-6 -2 -8 11 -17 8 -48 -13 -21 -14 -44 -26 -50 -26 -6 0 -19 -9 -29 -20 -17
-19 -17 -20 1 -19 34 2 65 14 62 24 -2 6 8 12 22 13 19 3 22 1 13 -10 -7 -7
-9 -19 -5 -26 9 -13 122 52 238 136 39 29 74 52 78 52 7 0 40 29 117 102 10
10 21 29 25 44 4 14 27 44 51 67 24 22 42 46 39 54 -3 7 1 13 9 13 8 0 19 8
24 18 7 14 6 18 -9 18 -10 0 -18 -4 -17 -9z"/>
<path d="M2408 6733 c7 -3 16 -2 19 1 4 3 -2 6 -13 5 -11 0 -14 -3 -6 -6z"/>
<path d="M1922 6670 l-23 -30 22 8 c12 5 24 18 26 30 4 27 3 27 -25 -8z"/>
<path d="M2335 6680 c-3 -5 3 -10 14 -10 11 0 23 5 26 10 3 6 -3 10 -14 10
-11 0 -23 -4 -26 -10z"/>
<path d="M1998 6653 c7 -3 16 -2 19 1 4 3 -2 6 -13 5 -11 0 -14 -3 -6 -6z"/>
<path d="M2300 6645 c0 -8 4 -15 9 -15 5 0 11 7 15 15 3 9 0 15 -9 15 -8 0
-15 -7 -15 -15z"/>
<path d="M1840 6515 c-14 -8 -20 -14 -15 -14 6 0 21 6 35 14 14 8 21 14 15 14
-5 0 -21 -6 -35 -14z"/>
<path d="M2682 4607 c-39 -23 -68 -43 -62 -45 6 -2 25 5 43 17 17 11 46 27 63
35 30 13 55 37 37 35 -4 -1 -41 -20 -81 -42z"/>
<path d="M5756 7483 c-75 -500 -103 -682 -146 -955 -42 -260 -45 -239 43 -236
l72 3 27 185 c15 102 27 186 27 188 1 1 61 1 134 0 l132 -3 25 -185 26 -185
78 -3 78 -3 -6 28 c-6 31 -120 761 -165 1058 -16 105 -41 272 -57 373 l-28
182 -86 0 -86 0 -68 -447z m252 -488 c11 -82 19 -151 17 -153 -2 -2 -53 -6
-114 -9 -101 -5 -111 -4 -111 11 0 30 92 714 107 796 7 34 47 -222 101 -645z"/>
<path d="M6372 7113 l3 -818 75 0 75 0 3 328 2 327 53 0 52 0 74 -297 c41
-164 78 -313 83 -330 l9 -33 73 0 c40 0 75 2 78 5 3 3 -37 161 -88 351 l-92
346 40 36 c91 82 130 205 131 412 1 191 -36 318 -117 408 -66 73 -98 82 -289
82 l-167 0 2 -817z m318 630 c62 -36 100 -151 100 -303 0 -144 -27 -236 -85
-290 -23 -21 -38 -25 -106 -29 l-79 -3 0 321 0 321 71 0 c48 0 80 -5 99 -17z"/>
<path d="M7052 7848 l3 -83 97 -3 98 -3 2 -732 3 -732 73 -3 72 -3 0 735 0
735 103 3 102 3 3 83 3 82 -281 0 -281 0 3 -82z"/>
<path d="M8375 7337 c-41 -41 -55 -89 -55 -189 0 -76 0 -77 -27 -80 -26 -3
-28 -7 -31 -50 -3 -47 -3 -48 27 -48 l31 0 2 -332 3 -333 43 -3 42 -3 0 335 0
336 40 0 40 0 0 50 0 50 -40 0 -40 0 0 78 c0 89 17 127 55 120 19 -4 24 1 32
39 10 42 9 45 -14 54 -44 17 -74 10 -108 -24z"/>
<path d="M7966 7080 c-95 -29 -148 -165 -149 -385 -2 -258 66 -405 187 -405
85 0 133 56 167 191 19 72 21 103 16 238 -5 165 -18 230 -59 291 -43 62 -102
88 -162 70z m94 -133 c31 -50 43 -150 37 -302 -5 -150 -15 -198 -47 -233 -41
-44 -98 -17 -121 57 -6 20 -14 101 -16 179 -7 198 17 311 70 331 32 12 57 2
77 -32z"/>
<path d="M8090 6217 c-77 -18 -116 -41 -180 -107 -165 -168 -261 -529 -279
-1049 -24 -709 72 -1224 268 -1435 60 -64 108 -93 183 -112 218 -56 401 102
482 416 43 169 51 145 -60 196 -53 25 -98 44 -100 42 -1 -2 -12 -46 -23 -98
-27 -123 -80 -232 -129 -265 -45 -31 -119 -34 -164 -7 -57 33 -111 135 -147
279 -95 374 -95 1202 0 1576 26 103 45 151 85 212 40 62 78 85 139 85 94 0
146 -58 198 -220 18 -55 35 -100 40 -100 11 0 187 89 187 95 0 25 -71 217
-102 277 -88 170 -238 251 -398 215z"/>
<path d="M4040 4865 l0 -1317 253 4 253 3 69 34 c274 135 415 566 415 1271 0
253 -11 402 -46 600 -61 355 -188 586 -372 677 l-76 38 -248 3 -248 4 0 -1317z
m479 1026 c130 -67 212 -273 252 -641 15 -142 15 -589 0 -764 -30 -329 -111
-560 -224 -634 -37 -25 -50 -27 -159 -30 l-118 -4 0 1046 0 1046 105 0 c85 0
113 -4 144 -19z"/>
<path d="M5566 6153 c-3 -16 -19 -120 -36 -233 -17 -113 -71 -470 -121 -795
-50 -324 -115 -750 -144 -945 -30 -195 -64 -411 -75 -480 -11 -69 -20 -131
-20 -137 0 -10 30 -13 119 -13 l118 0 38 273 c20 149 39 284 42 300 l6 27 216
-2 216 -3 13 -95 c8 -52 26 -185 41 -295 l26 -200 123 -3 123 -3 -6 23 c-7 34
-79 486 -120 763 -60 404 -275 1799 -280 1823 -5 21 -9 22 -139 22 l-134 0 -6
-27z m234 -1038 c50 -369 92 -676 95 -682 3 -10 -38 -13 -187 -13 l-191 0 6
38 c3 20 24 174 46 342 23 168 57 418 76 555 19 138 40 292 47 342 6 51 13 92
14 90 2 -1 44 -304 94 -672z"/>
<path d="M6460 4865 l0 -1315 115 0 115 0 2 897 3 898 246 -895 246 -895 117
-3 116 -3 0 1316 0 1315 -120 0 -120 0 -2 -877 -3 -878 -240 875 -240 875
-118 3 -117 3 0 -1316z"/>
<path d="M8760 4865 l0 -1315 380 0 380 0 0 135 0 135 -265 0 -265 0 0 470 0
470 255 0 255 0 0 135 0 135 -255 0 -255 0 0 440 0 440 265 0 265 0 0 135 0
135 -380 0 -380 0 0 -1315z"/>
<path d="M976 5934 c-9 -24 -7 -27 9 -14 8 6 19 9 25 5 5 -3 10 -4 10 -1 0 3
-9 10 -19 15 -15 8 -20 7 -25 -5z"/>
<path d="M840 5890 c-94 -61 -90 -56 -90 -115 0 -56 8 -67 30 -40 7 8 19 15
26 15 8 0 14 10 14 24 0 13 7 29 15 36 18 15 20 40 3 40 -6 0 -8 3 -5 6 4 4
14 1 23 -7 14 -11 18 -11 29 4 7 9 18 17 25 17 10 0 10 3 0 15 -9 10 -9 15 -1
15 6 0 11 5 11 10 0 18 -35 10 -80 -20z"/>
<path d="M2413 5328 c-6 -18 -18 -50 -27 -70 -9 -21 -12 -38 -7 -38 6 0 15 18
21 40 6 22 15 40 19 40 5 0 11 14 13 30 6 40 -6 38 -19 -2z"/>
<path d="M462 5331 c-11 -6 -10 -10 4 -15 10 -4 24 0 33 9 14 13 13 15 -4 15
-11 0 -26 -4 -33 -9z"/>
<path d="M360 5234 c0 -14 3 -14 15 -4 8 7 15 14 15 16 0 2 -7 4 -15 4 -8 0
-15 -7 -15 -16z"/>
<path d="M271 5093 c-11 -16 -26 -35 -34 -43 -15 -18 -27 -42 -66 -140 -39
-96 -49 -144 -30 -138 8 3 18 18 23 34 13 43 40 108 47 114 3 3 9 16 12 30 4
14 22 50 42 80 45 71 51 122 6 63z"/>
<path d="M2273 5024 c-24 -40 -43 -83 -43 -94 0 -11 -18 -58 -39 -105 -22 -47
-38 -85 -36 -85 16 0 173 346 162 356 -1 1 -21 -31 -44 -72z"/>
<path d="M2078 4638 c-38 -67 -69 -130 -66 -134 2 -1 25 35 52 82 27 47 46 87
44 90 -3 3 -17 -14 -30 -38z"/>
<path d="M1581 4186 c-9 -11 -6 -12 14 -8 14 2 28 8 31 13 9 15 -33 10 -45 -5z"/>
<path d="M1808 4103 c7 -3 16 -2 19 1 4 3 -2 6 -13 5 -11 0 -14 -3 -6 -6z"/>
<path d="M1330 4070 c-30 -26 -20 -36 11 -11 13 11 21 22 18 25 -3 3 -16 -3
-29 -14z"/>
<path d="M1230 4020 c0 -13 20 -13 40 0 12 8 9 10 -12 10 -16 0 -28 -4 -28
-10z"/>
<path d="M1530 4008 c-50 -24 -54 -25 -75 -27 -21 -1 -19 -21 2 -21 23 0 123
49 123 60 0 6 -1 10 -2 9 -2 0 -23 -10 -48 -21z"/>
<path d="M1347 3983 c-4 -3 -7 -11 -7 -17 0 -6 5 -5 12 2 6 6 9 14 7 17 -3 3
-9 2 -12 -2z"/>
<path d="M1290 3955 c-14 -16 -10 -18 14 -9 9 3 16 10 16 15 0 14 -16 11 -30
-6z"/>
<path d="M1176 3926 l-29 -24 36 11 c19 6 33 15 31 18 -2 4 4 10 13 12 15 4
15 5 -2 5 -11 1 -33 -9 -49 -22z"/>
<path d="M1370 3939 c0 -5 5 -7 10 -4 6 3 10 8 10 11 0 2 -4 4 -10 4 -5 0 -10
-5 -10 -11z"/>
<path d="M1110 3890 c0 -5 7 -7 15 -4 8 4 15 8 15 10 0 2 -7 4 -15 4 -8 0 -15
-4 -15 -10z"/>
<path d="M1033 3765 c-18 -8 -33 -16 -33 -19 0 -5 71 22 79 30 9 8 -15 3 -46
-11z"/>
<path d="M750 3732 c0 -10 5 -10 23 -1 31 16 31 17 3 15 -14 0 -26 -7 -26 -14z"/>
<path d="M528 3410 c-28 -17 -28 -30 -1 -30 20 0 48 30 37 39 -5 5 -21 1 -36
-9z"/>
<path d="M1328 3103 c7 -3 16 -2 19 1 4 3 -2 6 -13 5 -11 0 -14 -3 -6 -6z"/>
<path d="M2026 2534 c-3 -26 -6 -73 -6 -105 0 -52 -2 -58 -22 -61 -18 -2 -23
-10 -23 -33 0 -23 5 -31 23 -33 22 -3 22 -5 22 -153 0 -207 8 -224 110 -231
44 -3 45 -2 48 30 3 28 0 32 -22 32 -50 0 -56 19 -56 176 l0 144 35 0 c33 0
35 2 35 35 0 33 -2 35 -35 35 l-35 0 0 105 0 105 -34 0 c-32 0 -34 -2 -40 -46z"/>
<path d="M5595 2548 c-3 -18 -6 -64 -8 -103 -2 -65 -4 -70 -25 -73 -19 -3 -23
-9 -20 -35 2 -24 8 -33 26 -35 22 -3 22 -5 22 -158 0 -208 3 -213 118 -228
l42 -6 0 35 c0 30 -3 35 -23 35 -13 0 -32 6 -42 14 -16 12 -19 31 -23 159 l-4
146 38 3 c36 3 39 6 42 35 3 30 1 32 -35 35 l-38 3 -3 103 -3 102 -29 0 c-25
0 -30 -5 -35 -32z"/>
<path d="M8807 2573 c-4 -3 -7 -152 -7 -330 l0 -323 35 0 35 0 0 330 0 330
-28 0 c-16 0 -32 -3 -35 -7z"/>
<path d="M8980 2506 c0 -101 -8 -136 -31 -136 -15 0 -19 -7 -19 -35 0 -28 4
-35 19 -35 17 0 19 -12 23 -157 5 -203 13 -217 113 -224 50 -4 50 -4 53 28 3
29 1 32 -30 35 -49 5 -58 31 -58 186 l0 132 35 0 c33 0 35 2 35 35 0 33 -2 35
-35 35 l-35 0 0 105 0 105 -35 0 -35 0 0 -74z"/>
<path d="M750 2245 l0 -325 45 0 45 0 0 110 0 110 53 0 c66 0 115 25 142 70
16 29 20 53 20 140 0 180 -38 219 -212 220 l-93 0 0 -325z m207 215 c7 -14 13
-62 13 -110 0 -111 -12 -130 -81 -130 l-49 0 0 136 0 135 52 -3 c44 -3 54 -7
65 -28z"/>
<path d="M3407 2563 c-4 -3 -7 -150 -7 -325 l0 -318 45 0 45 0 0 325 0 325
-38 0 c-21 0 -42 -3 -45 -7z"/>
<path d="M3800 2246 l0 -326 45 0 44 0 3 142 3 143 59 -143 60 -142 43 0 c24
0 43 4 43 8 0 5 -27 75 -60 157 -33 82 -60 155 -60 162 0 7 27 80 59 161 33
81 56 151 52 155 -5 5 -26 7 -47 5 l-39 -3 -55 -148 -55 -148 -5 148 -5 148
-42 3 -43 3 0 -325z"/>
<path d="M6970 2245 l0 -325 40 0 40 0 0 325 0 325 -40 0 -40 0 0 -325z"/>
<path d="M7370 2245 l0 -325 130 0 130 0 0 35 0 35 -90 0 -91 0 3 108 3 107
68 3 67 3 0 39 0 40 -65 0 -65 0 0 105 0 105 80 0 80 0 0 35 0 35 -125 0 -125
0 0 -325z"/>
<path d="M4867 2553 c-4 -3 -7 -58 -8 -122 0 -89 -3 -111 -11 -94 -6 12 -23
27 -38 33 -60 25 -123 -39 -136 -137 -10 -82 1 -214 21 -257 41 -85 145 -87
180 -2 l13 31 7 -30 c11 -50 14 -55 30 -55 13 0 15 39 15 320 l0 320 -33 0
c-19 0 -37 -3 -40 -7z m-20 -283 c15 -45 16 -207 2 -249 -27 -78 -82 -52 -94
44 -10 73 -2 194 14 223 20 37 63 27 78 -18z"/>
<path d="M4160 2495 l0 -56 38 3 37 3 0 50 0 50 -37 3 -38 3 0 -56z"/>
<path d="M7700 2495 l0 -56 38 3 37 3 0 50 0 50 -37 3 -38 3 0 -56z"/>
<path d="M1193 2366 c-61 -28 -83 -100 -36 -117 19 -7 25 -3 38 21 36 69 92
52 97 -29 l3 -44 -45 -12 c-93 -24 -130 -68 -130 -154 0 -85 30 -121 102 -121
22 0 40 10 64 35 l32 35 7 -30 c5 -21 13 -30 26 -30 18 0 19 9 19 168 0 182
-8 227 -44 261 -30 28 -91 36 -133 17z m107 -249 c0 -45 -30 -127 -51 -138
-72 -38 -88 98 -16 141 44 27 67 26 67 -3z"/>
<path d="M1513 2364 c-29 -14 -63 -65 -63 -93 0 -9 39 -31 56 -31 2 0 10 15
18 34 29 70 96 44 96 -38 0 -43 -1 -44 -37 -51 -84 -15 -127 -58 -138 -134 -8
-56 12 -113 43 -130 12 -6 37 -11 57 -11 30 0 44 7 70 36 l33 36 7 -31 c5 -22
12 -31 27 -31 19 0 20 5 16 183 -3 162 -5 186 -24 217 -34 59 -96 76 -161 44z
m105 -279 c-8 -91 -72 -151 -99 -91 -25 55 26 146 83 146 19 0 20 -5 16 -55z"/>
<path d="M1887 2369 c-11 -6 -27 -29 -37 -51 l-17 -40 -7 46 c-6 36 -11 46
-27 46 -18 0 -19 -9 -19 -226 l0 -225 38 3 37 3 5 155 c5 168 18 210 61 210
18 0 20 5 17 42 -3 46 -18 56 -51 37z"/>
<path d="M2303 2365 c-31 -13 -63 -59 -63 -90 0 -13 48 -42 55 -33 1 2 10 18
19 36 13 25 23 32 46 32 35 0 39 -6 47 -68 l5 -49 -38 -8 c-67 -12 -112 -44
-130 -92 -23 -61 -14 -130 21 -160 44 -39 116 -26 148 25 l16 27 12 -32 c6
-18 17 -33 25 -33 21 0 20 346 -1 396 -23 56 -95 78 -162 49z m105 -273 c-3
-26 -11 -60 -19 -76 -32 -67 -82 -59 -87 13 -3 36 1 46 31 76 19 19 45 35 57
35 21 0 22 -4 18 -48z"/>
<path d="M2693 2370 c-12 -5 -32 -23 -45 -40 l-23 -32 -5 34 c-4 25 -11 34
-27 36 l-23 3 0 -225 0 -226 39 0 39 0 4 168 c2 140 6 172 21 195 9 15 26 27
36 27 40 0 46 -25 49 -212 l4 -179 36 3 37 3 0 180 c-1 150 -4 186 -18 216
-25 52 -72 70 -124 49z"/>
<path d="M4443 2370 c-13 -5 -32 -24 -42 -41 l-20 -32 -6 37 c-6 30 -11 37
-29 34 -21 -3 -21 -7 -24 -225 l-2 -223 44 0 45 0 3 174 c3 154 5 176 22 195
26 29 54 27 66 -5 6 -14 10 -102 10 -195 l0 -169 40 0 40 0 0 173 c0 180 -8
233 -39 261 -23 21 -78 29 -108 16z"/>
<path d="M5123 2373 c-30 -6 -70 -55 -83 -101 -13 -49 -13 -207 1 -257 16 -56
68 -105 113 -105 73 0 116 42 116 115 0 30 -3 35 -23 35 -19 0 -26 -8 -36 -39
-23 -78 -82 -58 -101 35 -7 31 -8 60 -3 65 4 4 44 9 88 11 l80 3 -3 60 c-4 81
-17 127 -45 153 -24 23 -67 33 -104 25z m73 -98 c7 -19 14 -48 14 -65 0 -30 0
-30 -55 -30 -30 0 -55 3 -55 8 1 23 23 98 32 109 20 24 48 15 64 -22z"/>
<path d="M5457 2369 c-9 -5 -26 -27 -36 -47 l-20 -37 -7 43 c-5 32 -11 42 -25
42 -18 0 -19 -12 -19 -226 l0 -225 38 3 37 3 5 155 c5 168 18 210 61 210 18 0
20 5 17 42 -3 45 -18 56 -51 37z"/>
<path d="M5875 2366 c-35 -15 -65 -55 -65 -86 0 -20 51 -50 57 -33 15 42 31
58 60 61 28 3 32 -1 43 -32 19 -58 11 -79 -36 -92 -100 -29 -134 -70 -134
-164 0 -44 4 -56 29 -81 42 -42 92 -40 137 5 l33 33 10 -28 c5 -16 17 -29 25
-29 24 0 23 346 -1 397 -26 56 -94 77 -158 49z m102 -276 c-3 -28 -12 -62 -19
-77 -31 -64 -81 -55 -86 16 -3 36 1 46 31 76 19 19 45 35 57 35 21 0 22 -3 17
-50z"/>
<path d="M6255 2366 c-17 -7 -37 -26 -45 -42 l-14 -29 -5 35 c-5 27 -11 36
-28 38 l-23 3 0 -225 0 -226 40 0 40 0 0 158 c0 169 13 223 54 231 40 7 46
-23 46 -211 l0 -179 41 3 41 3 -1 184 c-2 195 -8 224 -53 255 -27 19 -53 20
-93 2z"/>
<path d="M7982 2367 c-13 -7 -31 -26 -41 -41 l-18 -28 -7 36 c-5 27 -12 36
-26 36 -19 0 -20 -8 -20 -225 l0 -225 39 0 40 0 3 174 c3 154 5 176 22 195 26
29 54 27 66 -5 6 -14 10 -102 10 -195 l0 -169 40 0 40 0 0 173 c0 180 -8 233
-39 261 -25 23 -81 29 -109 13z"/>
<path d="M8560 2367 c-27 -9 -41 -23 -60 -62 -22 -44 -24 -63 -24 -160 0 -91
3 -118 21 -157 43 -95 167 -108 208 -21 23 48 17 88 -14 88 -19 0 -27 -7 -33
-31 -19 -73 -76 -68 -97 9 -7 24 -11 55 -9 68 3 23 7 24 87 27 l84 3 -6 78
c-6 94 -26 138 -72 157 -40 16 -40 16 -85 1z m88 -136 l5 -51 -52 0 c-50 0
-51 1 -51 29 0 39 17 83 38 99 26 20 54 -16 60 -77z"/>
<path d="M9263 2366 c-61 -28 -83 -100 -36 -117 19 -7 25 -3 38 21 37 71 95
50 95 -34 0 -43 -1 -44 -37 -51 -93 -17 -133 -65 -133 -160 1 -63 10 -84 47
-103 42 -23 83 -15 119 23 l32 35 7 -30 c5 -21 13 -30 26 -30 18 0 19 9 19
163 -1 183 -8 230 -43 264 -30 30 -90 39 -134 19z m99 -271 c-6 -88 -38 -134
-81 -120 -46 14 -31 113 23 146 46 28 62 21 58 -26z"/>
<path d="M9643 2370 c-13 -5 -32 -24 -42 -41 l-20 -32 -6 37 c-6 30 -11 37
-29 34 -21 -3 -21 -7 -24 -225 l-2 -223 44 0 45 0 3 174 c3 154 5 176 22 195
26 29 54 27 66 -5 6 -14 10 -102 10 -195 l0 -169 40 0 40 0 0 166 c0 173 -10
242 -40 269 -22 20 -78 28 -107 15z"/>
<path d="M2920 2335 l0 -35 50 0 c28 0 50 -4 50 -9 0 -5 -22 -71 -50 -147 -31
-85 -50 -155 -50 -181 l0 -43 95 0 95 0 0 30 c0 29 -1 30 -50 30 -27 0 -50 4
-50 9 0 5 23 73 50 151 31 88 50 159 50 186 l0 44 -95 0 -95 0 0 -35z"/>
<path d="M4160 2145 l0 -225 35 0 35 0 0 225 0 225 -35 0 -35 0 0 -225z"/>
<path d="M6490 2335 l0 -35 50 0 c28 0 50 -3 50 -6 0 -4 -22 -69 -50 -146 -31
-88 -50 -156 -50 -184 l0 -44 95 0 95 0 0 30 c0 29 -1 30 -48 30 -27 0 -51 2
-54 5 -3 3 19 74 48 157 30 84 54 169 54 190 l0 38 -95 0 -95 0 0 -35z"/>
<path d="M7700 2145 l0 -225 35 0 35 0 0 225 0 225 -35 0 -35 0 0 -225z"/>
<path d="M8220 2335 l0 -35 50 0 c28 0 50 -1 50 -3 0 -1 -25 -71 -55 -155 -30
-84 -55 -169 -55 -188 l0 -34 100 0 100 0 0 30 c0 29 -1 30 -50 30 -37 0 -50
4 -50 14 0 8 23 79 50 157 28 78 50 159 50 181 l0 38 -95 0 -95 0 0 -35z"/>
<path d="M9870 2335 l0 -34 54 -3 53 -3 -53 -150 c-30 -82 -54 -167 -54 -187
l0 -38 100 0 100 0 0 30 c0 29 -1 30 -49 30 -28 0 -52 3 -54 8 -2 4 18 68 45
142 27 74 51 159 55 188 l6 52 -102 0 -101 0 0 -35z"/>
</g>
</svg>
