<svg xmlns="http://www.w3.org/2000/svg" viewBox="0 0 334.474 227.193"><defs><style>.cls-1{fill:#f9ebd5;}.cls-2{fill:#928973;}.cls-3{fill:#eb7e1d;}.cls-4{fill:#fcfaf6;}.cls-5{opacity:0.58;}.cls-6{fill:#e5cf91;}.cls-7{fill:#eb5f1b;}.cls-8{fill:#4a4a49;stroke:#4a4a49;stroke-miterlimit:10;stroke-width:0.149px;}</style></defs><title>logo</title><g id="Calque_2" data-name="Calque 2"><g id="Ebene_1" data-name="Ebene 1"><path class="cls-1" d="M236.9,93.071c0,7.2-7.6,13-9.7,19.5-2.2,6.7.5,15.9-3.6,21.5s-13.7,5.9-19.4,10c-5.6,4.1-8.8,13.1-15.5,15.3-6.5,2.1-14.4-3.3-21.5-3.3-7.2,0-15.1,5.4-21.5,3.3-6.7-2.2-9.9-11.3-15.5-15.3-5.6-4.1-15.3-4.4-19.4-10s-1.4-14.8-3.6-21.5c-2.1-6.5-9.7-12.3-9.7-19.5s7.6-13,9.7-19.5c2.2-6.7-.5-15.9,3.6-21.5s13.7-5.9,19.3-10,8.8-13.1,15.5-15.3c6.5-2.1,14.4,3.3,21.5,3.3,7.2,0,15.1-5.4,21.5-3.3,6.7,2.2,9.9,11.3,15.5,15.3,5.6,4.1,15.3,4.4,19.3,10,4.1,5.6,1.4,14.8,3.6,21.5C229.2,80.071,236.9,85.871,236.9,93.071Z" transform="translate(0 -25.552)"/><path class="cls-2" d="M130.1,144.071a.349.349,0,0,0-.2-.1l8.2,9.4C135.6,150.071,133.2,146.271,130.1,144.071Z" transform="translate(0 -25.552)"/><path class="cls-2" d="M204.2,42.071l-7.4-8.5C199.2,36.571,201.4,39.971,204.2,42.071Z" transform="translate(0 -25.552)"/><path class="cls-2" d="M140.4,155.871l-2.2-2.5A26.369,26.369,0,0,0,140.4,155.871Z" transform="translate(0 -25.552)"/><path class="cls-2" d="M193.5,29.771l3.3,3.8A43.076,43.076,0,0,0,193.5,29.771Z" transform="translate(0 -25.552)"/><path class="cls-3" d="M104.4,78.971l68.1,77.9c1.6.4,3.2.9,4.7,1.4l-71.4-81.6C105.4,77.371,104.9,78.171,104.4,78.971Z" transform="translate(0 -25.552)"/><path class="cls-3" d="M108.3,123.171l15.6,17.8a28.641,28.641,0,0,1,6.1,2.9l-21.8-24.9C108.2,120.371,108.2,121.771,108.3,123.171Z" transform="translate(0 -25.552)"/><path class="cls-3" d="M110.7,133.871l.4.5c1.9,2.3,4.7,3.7,7.8,4.9l-10.4-11.8A14,14,0,0,0,110.7,133.871Z" transform="translate(0 -25.552)"/><path class="cls-3" d="M101.3,83.371l63.7,72.8a16.352,16.352,0,0,1,2.2-.2,6.151,6.151,0,0,1,1.3.1l-65.6-75C102.3,81.871,101.8,82.671,101.3,83.371Z" transform="translate(0 -25.552)"/><path class="cls-3" d="M107.2,112.571a15.827,15.827,0,0,1,.5,2.1l39.5,45.1a10.876,10.876,0,0,0,3.6,0l-47.6-54.4A30.284,30.284,0,0,1,107.2,112.571Z" transform="translate(0 -25.552)"/><path class="cls-3" d="M98.6,88.171l60.7,69.4c1-.3,1.9-.5,2.8-.8l-62.2-71.1A14.94,14.94,0,0,0,98.6,88.171Z" transform="translate(0 -25.552)"/><path class="cls-3" d="M97.5,93.071a17.96,17.96,0,0,0,.2,2.2l56,64c.9-.2,1.9-.5,2.8-.8l-58.8-67.3A11.076,11.076,0,0,0,97.5,93.071Z" transform="translate(0 -25.552)"/><path class="cls-3" d="M123.5,45.171l84.6,96.7a27.729,27.729,0,0,1,2.6-1l-84.6-96.7A20.035,20.035,0,0,1,123.5,45.171Z" transform="translate(0 -25.552)"/><path class="cls-3" d="M177.8,27.671l58.9,67.3a13.42,13.42,0,0,0,.2-2,14.774,14.774,0,0,0-.2-2.1l-56-64.1A19.072,19.072,0,0,1,177.8,27.671Z" transform="translate(0 -25.552)"/><path class="cls-3" d="M167.2,29.971a5.7,5.7,0,0,1-1.3-.1l65.6,75c.5-.7,1.1-1.5,1.6-2.3l-63.7-72.9A5.835,5.835,0,0,1,167.2,29.971Z" transform="translate(0 -25.552)"/><path class="cls-3" d="M172.2,29.271l62.2,71.2c.5-.8.9-1.7,1.3-2.5L175,28.571C174.1,28.771,173.2,29.071,172.2,29.271Z" transform="translate(0 -25.552)"/><path class="cls-3" d="M148.7,26.271l77.8,89a13.1,13.1,0,0,1,.6-2.7.753.753,0,0,1,.2-.4l-74.7-85.4A13.064,13.064,0,0,0,148.7,26.271Z" transform="translate(0 -25.552)"/><path class="cls-3" d="M157,27.871l71.4,81.7a15.762,15.762,0,0,1,1.5-2.4l-68.2-77.9C160.2,28.871,158.6,28.371,157,27.871Z" transform="translate(0 -25.552)"/><path class="cls-3" d="M183.6,26.371l47.9,54.8a27.778,27.778,0,0,1-4.3-7.6,11.7,11.7,0,0,1-.5-2l-39.6-45.2A13.667,13.667,0,0,0,183.6,26.371Z" transform="translate(0 -25.552)"/><path class="cls-3" d="M204.2,42.071h0l22,25.1c-.1-1.4-.1-2.8-.1-4.2l-15.7-18A23.631,23.631,0,0,1,204.2,42.071Z" transform="translate(0 -25.552)"/><path class="cls-3" d="M215.4,46.871l10.5,12a14.614,14.614,0,0,0-2-6.3l-1.5-1.7A18.051,18.051,0,0,0,215.4,46.871Z" transform="translate(0 -25.552)"/><path class="cls-3" d="M145.6,26.771a11.507,11.507,0,0,0-2.5,1.2l82.9,94.8c0-1.3,0-2.6.1-3.9l-80.5-92.1Z" transform="translate(0 -25.552)"/><path class="cls-3" d="M113.4,49.571l86.5,98.9c.6-.7,1.1-1.4,1.7-2.1l-85.9-98.2C114.9,48.571,114.2,49.071,113.4,49.571Z" transform="translate(0 -25.552)"/><path class="cls-3" d="M108.4,59.771l84.7,96.9c.6-.6,1.3-1.2,1.9-1.9l-86.1-98.4A30.487,30.487,0,0,0,108.4,59.771Z" transform="translate(0 -25.552)"/><path class="cls-3" d="M107.2,73.571c-.1.2-.1.3-.2.5l74.7,85.3a17.229,17.229,0,0,0,3.9.4l-77.8-88.9A11.741,11.741,0,0,1,107.2,73.571Z" transform="translate(0 -25.552)"/><path class="cls-3" d="M110.8,52.071c-.3.5-.6.9-.9,1.4l86.7,99.2a17.684,17.684,0,0,0,1.6-2.2l-86.8-99.2C111.3,51.571,111,51.771,110.8,52.071Z" transform="translate(0 -25.552)"/><path class="cls-3" d="M108.2,67.371l80.5,92h.1a13.335,13.335,0,0,0,2.4-1.1l-82.9-94.8C108.2,64.771,108.2,66.071,108.2,67.371Z" transform="translate(0 -25.552)"/><path class="cls-3" d="M130.1,42.071c-.5.4-1,.6-1.6,1l84.8,97c.9-.3,1.8-.6,2.7-1l-85.2-97.6A4.349,4.349,0,0,1,130.1,42.071Z" transform="translate(0 -25.552)"/><path class="cls-3" d="M132.7,39.771l85.9,98.2a17.611,17.611,0,0,0,2.3-1.4l-86.5-98.9C133.8,38.371,133.3,39.071,132.7,39.771Z" transform="translate(0 -25.552)"/><path class="cls-3" d="M118.2,47.071l85.3,97.5c.2-.2.5-.4.7-.6l1.5-.9-84.8-97C120,46.471,119.1,46.771,118.2,47.071Z" transform="translate(0 -25.552)"/><path class="cls-3" d="M136,35.571l86.8,99.2a6.034,6.034,0,0,0,.8-.8,6.376,6.376,0,0,0,.8-1.4l-86.8-99.1C137.1,34.171,136.5,34.871,136,35.571Z" transform="translate(0 -25.552)"/><path class="cls-3" d="M139.3,31.371l86.1,98.4a18.654,18.654,0,0,0,.5-3.4l-84.8-96.9C140.5,30.071,139.9,30.771,139.3,31.371Z" transform="translate(0 -25.552)"/><path class="cls-4" d="M185.5,160.571c-3,0-6.1-1-9.2-1.9-3-.9-6.2-1.9-9.1-1.9s-6.1,1-9.1,1.9c-4.3,1.3-8.7,2.7-12.7,1.4-4.1-1.3-7-5.1-9.7-8.8a29.75,29.75,0,0,0-6-6.6,34.117,34.117,0,0,0-8.2-3.7c-4.3-1.5-8.7-3-11.3-6.5-2.5-3.4-2.6-8.1-2.7-12.6-.1-3.1-.1-6.4-1-9.1-.8-2.5-2.6-5-4.4-7.6-2.7-3.8-5.4-7.7-5.4-12.1,0-4.5,2.7-8.4,5.4-12.1,1.8-2.6,3.6-5,4.4-7.6.9-2.7.9-5.9,1-9.1.1-4.5.2-9.2,2.7-12.6,2.5-3.5,7-5,11.3-6.5a32.437,32.437,0,0,0,8.2-3.7c2.2-1.6,4-4,6-6.6,2.7-3.7,5.6-7.4,9.7-8.8,4-1.3,8.4.1,12.7,1.4,3,.9,6.2,1.9,9.1,1.9s6.1-1,9.1-1.9c4.3-1.3,8.7-2.6,12.7-1.4,4.1,1.3,7,5.1,9.7,8.8a29.75,29.75,0,0,0,6,6.6,34.117,34.117,0,0,0,8.2,3.7c4.3,1.5,8.7,3,11.3,6.5,2.5,3.4,2.6,8.1,2.7,12.6.1,3.1.1,6.4,1,9.1.8,2.5,2.6,5,4.4,7.6,2.7,3.8,5.4,7.7,5.4,12.1,0,4.5-2.7,8.4-5.4,12.1-1.8,2.6-3.6,5-4.4,7.6-.9,2.7-.9,5.9-1,9.1-.1,4.5-.2,9.2-2.7,12.6-2.5,3.5-7,5-11.3,6.5a32.437,32.437,0,0,0-8.2,3.7c-2.2,1.6-4,4-6,6.6-2.7,3.7-5.6,7.5-9.7,8.8A10.6,10.6,0,0,1,185.5,160.571Zm-36.6-133.6a8.077,8.077,0,0,0-3.1.5c-3.7,1.2-6.4,4.8-9,8.3a29.976,29.976,0,0,1-6.3,6.9c-2.4,1.8-5.6,2.9-8.6,3.9-4.3,1.5-8.3,2.9-10.6,5.9-2.2,3.1-2.3,7.3-2.4,11.8-.1,3.2-.1,6.6-1.1,9.5-.9,2.8-2.8,5.4-4.6,8-2.5,3.6-5.1,7.3-5.1,11.3s2.6,7.7,5.1,11.3c1.8,2.6,3.7,5.2,4.6,8a36.956,36.956,0,0,1,1.1,9.5c.1,4.5.2,8.7,2.4,11.8,2.3,3.1,6.3,4.5,10.6,6,3,1,6.2,2.1,8.6,3.9,2.4,1.7,4.4,4.4,6.3,6.9,2.6,3.5,5.3,7.1,9,8.3,3.5,1.1,7.5-.1,11.8-1.4a32.083,32.083,0,0,1,9.5-1.9c3.1,0,6.4,1,9.5,1.9,4.3,1.3,8.3,2.5,11.8,1.4,3.7-1.2,6.4-4.8,9-8.3a29.976,29.976,0,0,1,6.3-6.9c2.4-1.8,5.6-2.9,8.6-3.9,4.3-1.5,8.3-2.9,10.6-6,2.2-3.1,2.3-7.3,2.4-11.8.1-3.2.1-6.6,1.1-9.5.9-2.8,2.8-5.4,4.6-8,2.5-3.6,5.1-7.3,5.1-11.3s-2.6-7.7-5.1-11.3c-1.8-2.6-3.7-5.2-4.6-8a36.912,36.912,0,0,1-1.1-9.5c-.1-4.5-.2-8.7-2.4-11.8-2.3-3.1-6.3-4.5-10.6-6-3-1-6.2-2.1-8.6-3.9-2.4-1.7-4.4-4.4-6.3-6.9-2.6-3.5-5.3-7.1-9-8.3-3.5-1.1-7.5.1-11.8,1.4a32.083,32.083,0,0,1-9.5,1.9c-3.1,0-6.4-1-9.5-1.9C154.6,27.871,151.6,26.971,148.9,26.971Z" transform="translate(0 -25.552)"/><circle class="cls-1" cx="167.207" cy="67.495" r="49"/><g class="cls-5"><path class="cls-6" d="M132.1,58.971l64.2,73.4c.7-.5,1.4-1,2.1-1.6L134,57.171A16.1,16.1,0,0,0,132.1,58.971Z" transform="translate(0 -25.552)"/><path class="cls-6" d="M140.2,52.271l63.8,73c.6-.7,1.1-1.3,1.7-2l-63.3-72.4C141.6,51.371,140.9,51.771,140.2,52.271Z" transform="translate(0 -25.552)"/><path class="cls-6" d="M167.8,44.171l47.9,54.8q.151-1.8.3-3.6l-44.6-51A21.133,21.133,0,0,0,167.8,44.171Z" transform="translate(0 -25.552)"/><path class="cls-6" d="M135,129.871l-8.7-9.9A51.019,51.019,0,0,0,135,129.871Z" transform="translate(0 -25.552)"/><path class="cls-6" d="M135.9,55.371l64.4,73.6c.6-.6,1.3-1.2,1.9-1.8L138,53.771C137.3,54.271,136.6,54.771,135.9,55.371Z" transform="translate(0 -25.552)"/><path class="cls-6" d="M149.8,47.371l60.4,69.1c.4-.8.8-1.7,1.2-2.5l-59-67.5A11.422,11.422,0,0,0,149.8,47.371Z" transform="translate(0 -25.552)"/><path class="cls-6" d="M155.2,45.671l57.4,65.6a22.906,22.906,0,0,0,1-2.8l-55.5-63.5C157.1,45.171,156.2,45.371,155.2,45.671Z" transform="translate(0 -25.552)"/><path class="cls-6" d="M161.2,44.471l53.3,60.9a28.17,28.17,0,0,0,.7-3.1l-50.8-58C163.3,44.271,162.3,44.371,161.2,44.471Z" transform="translate(0 -25.552)"/><path class="cls-6" d="M144.8,49.571l62.5,71.5c.5-.7,1-1.5,1.5-2.3l-61.6-70.4Z" transform="translate(0 -25.552)"/><path class="cls-6" d="M122.9,72.271l59,67.5c.9-.3,1.7-.6,2.6-.9l-60.4-69A26.518,26.518,0,0,0,122.9,72.271Z" transform="translate(0 -25.552)"/><path class="cls-6" d="M175.4,44.871l40.6,46.4c-.1-1.4-.1-2.9-.3-4.3l-36.1-41.2A25.924,25.924,0,0,0,175.4,44.871Z" transform="translate(0 -25.552)"/><path class="cls-6" d="M118.3,90.871l44.5,50.9c1.2.1,2.4.2,3.6.2l-47.8-54.7Z" transform="translate(0 -25.552)"/><path class="cls-6" d="M199,55.971l9.2,10.5A44.007,44.007,0,0,0,199,55.971Z" transform="translate(0 -25.552)"/><path class="cls-6" d="M125.6,67.371l61.6,70.4,2.4-1.2-62.5-71.5A15.021,15.021,0,0,0,125.6,67.371Z" transform="translate(0 -25.552)"/><path class="cls-6" d="M119.1,83.871l50.8,58c1.1-.1,2.1-.1,3.2-.3l-53.2-60.9C119.6,81.771,119.3,82.771,119.1,83.871Z" transform="translate(0 -25.552)"/><path class="cls-6" d="M120.7,77.671l55.5,63.4c1-.2,1.9-.4,2.9-.6l-57.3-65.5C121.4,75.871,121,76.771,120.7,77.671Z" transform="translate(0 -25.552)"/><path class="cls-6" d="M184.6,47.371l30.2,34.6a59.414,59.414,0,0,0-1.8-6l-22.8-26.1A39.9,39.9,0,0,0,184.6,47.371Z" transform="translate(0 -25.552)"/><path class="cls-6" d="M128.6,62.871l63.3,72.3a16.507,16.507,0,0,0,2.2-1.4l-63.8-73A19.565,19.565,0,0,1,128.6,62.871Z" transform="translate(0 -25.552)"/><path class="cls-6" d="M121.4,110.271l22.6,25.9a39.9,39.9,0,0,0,5.6,2.5l-30.1-34.4C120.1,106.371,120.7,108.371,121.4,110.271Z" transform="translate(0 -25.552)"/><path class="cls-6" d="M118.7,99.171l36,41.1a31.464,31.464,0,0,0,4.2.9l-40.5-46.3A30.175,30.175,0,0,0,118.7,99.171Z" transform="translate(0 -25.552)"/></g><path class="cls-7" d="M167.2,142.771a49.7,49.7,0,1,1,49.7-49.7A49.763,49.763,0,0,1,167.2,142.771Zm0-97.9a48.2,48.2,0,1,0,48.2,48.2A48.226,48.226,0,0,0,167.2,44.871Z" transform="translate(0 -25.552)"/><path class="cls-7" d="M181.3,101.471a29.923,29.923,0,0,0-5.5-3.1c-2.1-1-4.4-2.2-6.8-3.4-2.7-1.4-5.2-2.8-7.7-4a36.757,36.757,0,0,1-6.7-4.3,20.275,20.275,0,0,1-4.8-5.4,14.479,14.479,0,0,1-1.8-7.4,14.919,14.919,0,0,1,.2-2.1,3.328,3.328,0,0,0-.6,1,12.631,12.631,0,0,0-1.4,5.7,12.375,12.375,0,0,0,1.5,6.2,17.45,17.45,0,0,0,4,4.6,36.1,36.1,0,0,0,5.8,3.7c2.2,1.1,4.5,2.3,6.8,3.6,2.1,1.1,4.1,2.1,5.9,3a31.682,31.682,0,0,1,4.9,2.8,15.292,15.292,0,0,1,3.4,3.3,8.313,8.313,0,0,1,1.3,4.6,7.3,7.3,0,0,1-.9,3.5,10.012,10.012,0,0,1-2.5,3,13.607,13.607,0,0,1-4,2,17.353,17.353,0,0,1-5.3.8,25.189,25.189,0,0,1-4.8-.5,22.078,22.078,0,0,1-4.5-1.1,10.02,10.02,0,0,1-3.5-2,16.645,16.645,0,0,1-2.9-3.1,27.917,27.917,0,0,1-3-6.9h-1.7v14.2s7.5,1.5,9.6,1.7c5.5.6,10.8.9,11.9.9a22.762,22.762,0,0,0,8-1.3,21.152,21.152,0,0,0,6.3-3.4l.2-.2a14.516,14.516,0,0,0,2.4-4.2A10.524,10.524,0,0,0,181.3,101.471Z" transform="translate(0 -25.552)"/><path class="cls-3" d="M151.2,80.371a17.467,17.467,0,0,0,4.4,5,33.486,33.486,0,0,0,6.4,4.1c2.5,1.3,5.1,2.6,7.7,4,2.3,1.2,4.6,2.4,6.7,3.4a29.634,29.634,0,0,1,5.7,3.3,11.936,11.936,0,0,1,4.9,11.7,12.079,12.079,0,0,0,1-5,12.888,12.888,0,0,0-1.5-6.4,16.547,16.547,0,0,0-4.1-4.7,34.42,34.42,0,0,0-6-3.8c-2.3-1.1-4.7-2.3-7.2-3.5-2.2-1.1-4.3-2-6.2-3a44.708,44.708,0,0,1-5-2.8,12.626,12.626,0,0,1-3.3-3.2,7.079,7.079,0,0,1-1.2-4.1,7.216,7.216,0,0,1,.8-3.2,8.977,8.977,0,0,1,2.4-2.8,10.312,10.312,0,0,1,3.6-1.9,10.718,10.718,0,0,1,4.4-.7c3.8.2,7.3,0,12.8,3.9a13.988,13.988,0,0,1,4.7,8.1h1.7v-13.2s-13.4-2.5-19.3-2.1a24.934,24.934,0,0,0-7.4,1.2,18.957,18.957,0,0,0-5.8,3.2,6.034,6.034,0,0,1-.8.8,12.407,12.407,0,0,0-1,5A13.543,13.543,0,0,0,151.2,80.371Z" transform="translate(0 -25.552)"/><path class="cls-8" d="M12,195.271a7.536,7.536,0,0,0-4-1.7c-2.3,0-3.6,1.4-3.6,3.2,0,1.7,1.4,2.9,4.4,5.1,3.2,2.3,5.1,4.5,5.1,7.5,0,3.7-3.5,6.1-7.2,6.1a10.133,10.133,0,0,1-6.6-2.4l1.4-1.9a8.387,8.387,0,0,0,5.1,2c2.3,0,4.1-1.2,4.1-3.8,0-2.9-3.5-4.8-5.4-6.2-1.9-1.5-4.1-2.9-4.1-6.2,0-3.1,3-5.5,6.7-5.5a7.893,7.893,0,0,1,5.8,2.3Z" transform="translate(0 -25.552)"/><path class="cls-8" d="M30.9,213.671a8.82,8.82,0,0,1-5,1.7c-7.9,0-8.9-6.5-8.9-8.8,0-4.2,2.8-8.7,9-8.7a7.1,7.1,0,0,1,4.5,1.4l-1,1.7a7.813,7.813,0,0,0-3.4-.9c-2.7,0-5.8,1.8-5.8,6.3,0,3.5,1.8,6.7,5.8,6.7a7.789,7.789,0,0,0,4.1-1.2Z" transform="translate(0 -25.552)"/><path class="cls-8" d="M37.1,200.371a8.347,8.347,0,0,1,5.7-2.5c3.8,0,5.9,2.1,5.9,6.3v10.7h-3v-10.1c0-3.1-1.3-4.8-4-4.8-2.4,0-4.5,1.6-4.5,4.8v10h-3v-24.3h3v9.9Z" transform="translate(0 -25.552)"/><path class="cls-8" d="M56.6,200.371a8.347,8.347,0,0,1,5.7-2.5c3.8,0,5.9,2.1,5.9,6.3v10.7h-3v-10.1c0-3.1-1.3-4.8-4-4.8-2.4,0-4.5,1.6-4.5,4.8v10h-3v-16.7h3v2.3Z" transform="translate(0 -25.552)"/><path class="cls-8" d="M75.1,206.871c0,3.3,2.3,6.4,5.6,6.4a9.2,9.2,0,0,0,4.6-1.4l.9,1.6a10.139,10.139,0,0,1-5.5,1.9c-5.2,0-8.6-3.2-8.6-9.1,0-5.8,4.1-8.4,7.9-8.4,5.1,0,6.8,4.6,6.4,8.9H75.1Zm8.5-2c0-2.6-1.1-4.8-3.7-4.8-3.2,0-4.5,2.7-4.6,4.8Z" transform="translate(0 -25.552)"/><path class="cls-8" d="M89.7,192.871a1.878,1.878,0,0,1,1.9-1.8,1.815,1.815,0,0,1,1.9,1.8,1.9,1.9,0,1,1-3.8,0Zm3.4,5.5v16.7h-3v-16.7Z" transform="translate(0 -25.552)"/><path class="cls-8" d="M110,212.371h0a6.91,6.91,0,0,1-5.7,3c-4.5,0-7.4-3.6-7.4-8.9,0-4.3,3.1-8.5,7.7-8.5a6.074,6.074,0,0,1,5.3,2.5h.1v-10h3v24.5h-3Zm0-6.2c0-3.1-1.7-6.1-5-6.1-3.5,0-4.9,2.7-4.9,6.3s1.5,6.9,4.7,6.9C108.5,213.271,110,209.871,110,206.171Z" transform="translate(0 -25.552)"/><path class="cls-8" d="M119.8,206.871c0,3.3,2.3,6.4,5.6,6.4a9.2,9.2,0,0,0,4.6-1.4l.9,1.6a10.142,10.142,0,0,1-5.5,1.9c-5.2,0-8.6-3.2-8.6-9.1,0-5.8,4.1-8.4,7.9-8.4,5.1,0,6.8,4.6,6.4,8.9H119.8Zm8.5-2c0-2.6-1.1-4.8-3.7-4.8-3.2,0-4.5,2.7-4.6,4.8Z" transform="translate(0 -25.552)"/><path class="cls-8" d="M137.7,200.371l1.2-1.3a4.152,4.152,0,0,1,2.5-1.2,4.309,4.309,0,0,1,2.8,1.6l-1.4,1.9a4.729,4.729,0,0,0-2.2-.7c-1.5,0-2.8,1.5-2.8,5.2v9h-3v-16.7h2.9Z" transform="translate(0 -25.552)"/><path class="cls-8" d="M175.8,204.371v9.5a24.808,24.808,0,0,1-8.1,1.6c-8.3,0-12.6-5.7-12.6-12.1,0-5.9,4.6-12,13-12a11.909,11.909,0,0,1,7.5,2.3l-1.3,1.9a10.523,10.523,0,0,0-6.1-1.9c-6.1,0-9.5,4.1-9.5,9.6,0,5.9,4,9.9,9.1,9.9a10.733,10.733,0,0,0,4.7-.8v-7.9h3.3Z" transform="translate(0 -25.552)"/><path class="cls-8" d="M188.4,213.271a6.232,6.232,0,0,1-4.2,2.2c-2.8,0-4.7-2-4.7-5.1,0-2.9,2.5-4.7,5.9-5.8l4-1.3a3.391,3.391,0,0,0-3.3-3.3,6.54,6.54,0,0,0-4.4,1.8l-1.2-1.5a7.692,7.692,0,0,1,5.7-2.3c2.5,0,6.2.8,6.2,5.7v7.3a11.409,11.409,0,0,0,.7,4.1h-3.3a6.1,6.1,0,0,1-.5-2.8Zm-1.8-7.2c-2.6.8-4,2.1-4,4.2a2.608,2.608,0,0,0,2.4,2.8c2.1,0,4.9-2.6,4.5-7.8Z" transform="translate(0 -25.552)"/><path class="cls-8" d="M205.2,200.971a5.558,5.558,0,0,0-3.1-1.1c-1.1,0-2.4.5-2.4,1.9s1.5,2.1,3.4,3.5c2.1,1.6,3.5,3,3.5,5.3,0,2.8-2.8,4.7-5.8,4.7a7.01,7.01,0,0,1-5.1-2.1l1.5-1.7a5.783,5.783,0,0,0,3.6,1.7c1.4,0,2.8-.7,2.8-2.4,0-1.9-1.7-2.8-3.3-3.9-1.9-1.4-3.6-2.5-3.6-4.8,0-2.6,2.6-4.3,5.5-4.3a6.566,6.566,0,0,1,4.1,1.5Z" transform="translate(0 -25.552)"/><path class="cls-8" d="M214,198.371h4.4v1.7H214v9.4c0,2.3.5,3.7,2.3,3.7a4.52,4.52,0,0,0,2.3-.6l.7,1.7a6.236,6.236,0,0,1-3.4,1.1c-3.3,0-4.9-1.9-4.9-5.3v-10h-2.3v-1.7H211v-4l3-1Z" transform="translate(0 -25.552)"/><path class="cls-8" d="M224.7,200.371l1.2-1.3a4.152,4.152,0,0,1,2.5-1.2,4.309,4.309,0,0,1,2.8,1.6l-1.4,1.9a4.729,4.729,0,0,0-2.2-.7c-1.5,0-2.8,1.5-2.8,5.2v9h-3v-16.7h2.9Z" transform="translate(0 -25.552)"/><path class="cls-8" d="M232.3,206.471a8.205,8.205,0,1,1,16.4,0c0,5.2-3.3,8.9-8.2,8.9C235.6,215.471,232.3,211.671,232.3,206.471Zm3.2,0c0,3.1,1.1,6.8,5,6.8s5-3.7,5-6.8c0-3-1.2-6.4-5-6.4C236.8,200.071,235.5,203.471,235.5,206.471Z" transform="translate(0 -25.552)"/><path class="cls-8" d="M255.5,200.971h0a6.909,6.909,0,0,1,5.5-3c6.5,0,7.6,5.8,7.6,8.2,0,5.1-3,9.2-7.9,9.2a6.3,6.3,0,0,1-5.1-2.6h-.1v10.5h-3v-25h3v2.7Zm9.9,5.2c0-3-1.5-6.1-4.6-6.1-3.4,0-5.2,2.6-5.2,6.9,0,3.2,1.5,6.3,5.2,6.3C264.3,213.271,265.4,209.271,265.4,206.171Z" transform="translate(0 -25.552)"/><path class="cls-8" d="M271.3,206.471a8.205,8.205,0,1,1,16.4,0c0,5.2-3.3,8.9-8.2,8.9C274.6,215.471,271.3,211.671,271.3,206.471Zm3.3,0c0,3.1,1.1,6.8,5,6.8s5-3.7,5-6.8c0-3-1.2-6.4-5-6.4S274.6,203.471,274.6,206.471Z" transform="translate(0 -25.552)"/><path class="cls-8" d="M294.5,200.371l1.2-1.3a4.157,4.157,0,0,1,2.5-1.2,4.308,4.308,0,0,1,2.8,1.6l-1.4,1.9a4.726,4.726,0,0,0-2.2-.7c-1.5,0-2.8,1.5-2.8,5.2v9h-3v-16.7h2.9Z" transform="translate(0 -25.552)"/><path class="cls-8" d="M306.9,198.371h4.4v1.7h-4.4v9.4c0,2.3.5,3.7,2.3,3.7a4.525,4.525,0,0,0,2.3-.6l.7,1.7a6.233,6.233,0,0,1-3.4,1.1c-3.3,0-4.9-1.9-4.9-5.3v-10h-2.3v-1.7h2.3v-4l3-1v5Z" transform="translate(0 -25.552)"/><path class="cls-8" d="M322.5,213.271a6.228,6.228,0,0,1-4.2,2.2c-2.8,0-4.7-2-4.7-5.1,0-2.9,2.5-4.7,5.9-5.8l4-1.3a3.39,3.39,0,0,0-3.3-3.3,6.54,6.54,0,0,0-4.4,1.8l-1.2-1.5a7.692,7.692,0,0,1,5.7-2.3c2.5,0,6.2.8,6.2,5.7v7.3a11.409,11.409,0,0,0,.7,4.1h-3.3a6.089,6.089,0,0,1-.5-2.8Zm-1.8-7.2c-2.6.8-4,2.1-4,4.2a2.609,2.609,0,0,0,2.4,2.8c2.1,0,4.9-2.6,4.5-7.8Z" transform="translate(0 -25.552)"/><path class="cls-8" d="M331.4,215.071v-24.6h3v24.5h-3Z" transform="translate(0 -25.552)"/><path class="cls-8" d="M58.5,246.271h0a4.992,4.992,0,0,1-4.1,2.2c-3.2,0-5.3-2.6-5.3-6.4,0-3.1,2.3-6.2,5.6-6.2a4.275,4.275,0,0,1,3.8,1.8h0v-7.2h2.2v17.7H58.5Zm0-4.5c0-2.3-1.2-4.4-3.6-4.4-2.5,0-3.5,2-3.5,4.5,0,2.6,1.1,5,3.4,5C57.4,246.871,58.5,244.471,58.5,241.771Z" transform="translate(0 -25.552)"/><path class="cls-8" d="M63.9,232.171a1.4,1.4,0,0,1,2.8,0,1.4,1.4,0,1,1-2.8,0Zm2.4,4v12H64.1v-12Z" transform="translate(0 -25.552)"/><path class="cls-8" d="M71.3,242.271a4.369,4.369,0,0,0,4.1,4.6,6.108,6.108,0,0,0,3.3-1l.6,1.2a7.191,7.191,0,0,1-4,1.4c-3.8,0-6.2-2.3-6.2-6.5s3-6.1,5.7-6.1c3.7,0,4.9,3.3,4.6,6.4Zm6.2-1.4c0-1.9-.8-3.5-2.7-3.5-2.3,0-3.2,1.9-3.3,3.5Z" transform="translate(0 -25.552)"/><path class="cls-8" d="M89,230.471h2.2v7.5h0a4.972,4.972,0,0,1,3.9-2.2c4.7,0,5.5,4.2,5.5,5.9,0,3.7-2.2,6.7-5.7,6.7a4.553,4.553,0,0,1-3.7-1.9h0v1.6H89v-17.6Zm9.2,11.3c0-2.2-1.1-4.4-3.3-4.4-2.5,0-3.8,1.9-3.8,5,0,2.3,1.1,4.5,3.8,4.5C97.5,246.871,98.2,243.971,98.2,241.771Z" transform="translate(0 -25.552)"/><path class="cls-8" d="M104.7,242.271a4.37,4.37,0,0,0,4.1,4.6,6.108,6.108,0,0,0,3.3-1l.6,1.2a7.186,7.186,0,0,1-4,1.4c-3.8,0-6.2-2.3-6.2-6.5s3-6.1,5.7-6.1c3.7,0,4.9,3.3,4.6,6.4Zm6.2-1.4c0-1.9-.8-3.5-2.7-3.5-2.3,0-3.2,1.9-3.3,3.5Z" transform="translate(0 -25.552)"/><path class="cls-8" d="M121.2,238.071a3.951,3.951,0,0,0-2.2-.8c-.8,0-1.8.4-1.8,1.4s1.1,1.5,2.5,2.6c1.5,1.2,2.6,2.2,2.6,3.8,0,2-2,3.4-4.2,3.4a5.206,5.206,0,0,1-3.7-1.5l1.1-1.2a4.2,4.2,0,0,0,2.6,1.2c1,0,2-.5,2-1.7,0-1.4-1.3-2-2.4-2.8-1.4-1-2.6-1.8-2.6-3.4,0-1.9,1.9-3.1,4-3.1a4.747,4.747,0,0,1,3,1.1Z" transform="translate(0 -25.552)"/><path class="cls-8" d="M127.5,236.171h3.2v1.3h-3.2v6.8c0,1.7.3,2.7,1.7,2.7a3.53,3.53,0,0,0,1.7-.4l.5,1.2a4.376,4.376,0,0,1-2.5.8c-2.4,0-3.6-1.4-3.6-3.8v-7.2h-1.7v-1.3h1.7v-2.9l2.2-.7v3.5Z" transform="translate(0 -25.552)"/><path class="cls-8" d="M134.6,242.271a4.369,4.369,0,0,0,4.1,4.6,6.114,6.114,0,0,0,3.3-1l.6,1.2a7.188,7.188,0,0,1-4,1.4c-3.8,0-6.2-2.3-6.2-6.5s3-6.1,5.7-6.1c3.7,0,4.9,3.3,4.6,6.4Zm6.1-1.4c0-1.9-.8-3.5-2.7-3.5-2.3,0-3.2,1.9-3.3,3.5Z" transform="translate(0 -25.552)"/><path class="cls-8" d="M147.5,237.571a6.058,6.058,0,0,1,4.1-1.8c2.8,0,4.3,1.5,4.3,4.6v7.7h-2.2v-7.3c0-2.3-1-3.4-2.9-3.4a3.256,3.256,0,0,0-3.3,3.5v7.2h-2.1v-12h2.1Z" transform="translate(0 -25.552)"/><path class="cls-8" d="M180.6,240.471v6.9a17.106,17.106,0,0,1-5.8,1.1c-6,0-9.1-4.1-9.1-8.8,0-4.3,3.3-8.7,9.4-8.7a8.866,8.866,0,0,1,5.4,1.6l-1,1.4a7.917,7.917,0,0,0-4.4-1.3c-4.4,0-6.8,3-6.8,6.9,0,4.3,2.9,7.1,6.6,7.1a6.916,6.916,0,0,0,3.4-.6v-5.6Z" transform="translate(0 -25.552)"/><path class="cls-8" d="M189.7,246.871a4.7,4.7,0,0,1-3,1.6c-2,0-3.4-1.4-3.4-3.7,0-2.1,1.8-3.4,4.3-4.2l2.9-.9a2.428,2.428,0,0,0-2.4-2.4,4.9,4.9,0,0,0-3.2,1.3l-.8-1.1a5.213,5.213,0,0,1,4.1-1.6c1.8,0,4.5.6,4.5,4.1v5.3a7.114,7.114,0,0,0,.5,2.9h-2.4a4.226,4.226,0,0,1-.3-2Zm-1.3-5.2c-1.9.6-2.9,1.5-2.9,3a1.834,1.834,0,0,0,1.7,2c1.5,0,3.5-1.9,3.2-5.7Z" transform="translate(0 -25.552)"/><path class="cls-8" d="M201.8,238.071a3.956,3.956,0,0,0-2.2-.8c-.8,0-1.8.4-1.8,1.4s1.1,1.5,2.5,2.6c1.5,1.2,2.6,2.2,2.6,3.8,0,2-2,3.4-4.2,3.4a5.209,5.209,0,0,1-3.7-1.5l1.1-1.2a4.2,4.2,0,0,0,2.6,1.2c1,0,2-.5,2-1.7,0-1.4-1.3-2-2.4-2.8-1.4-1-2.6-1.8-2.6-3.4,0-1.9,1.9-3.1,4-3.1a4.747,4.747,0,0,1,3,1.1Z" transform="translate(0 -25.552)"/><path class="cls-8" d="M208.2,236.171h3.2v1.3h-3.2v6.8c0,1.7.3,2.7,1.7,2.7a3.536,3.536,0,0,0,1.7-.4l.5,1.2a4.376,4.376,0,0,1-2.5.8c-2.4,0-3.6-1.4-3.6-3.8v-7.2h-1.6v-1.3h1.7v-2.9l2.2-.7v3.5Z" transform="translate(0 -25.552)"/><path class="cls-8" d="M216,237.571l.9-.9a3.08,3.08,0,0,1,1.8-.9,3.118,3.118,0,0,1,2,1.2l-1,1.4a3.32,3.32,0,0,0-1.6-.5c-1.1,0-2,1.1-2,3.8v6.5h-2.2v-12H216v1.4Z" transform="translate(0 -25.552)"/><path class="cls-8" d="M221.4,241.971a5.907,5.907,0,1,1,11.8,0c0,3.7-2.4,6.4-5.9,6.4C223.8,248.471,221.4,245.771,221.4,241.971Zm2.3,0c0,2.3.8,4.9,3.6,4.9s3.6-2.6,3.6-4.9c0-2.2-.9-4.6-3.6-4.6S223.7,239.871,223.7,241.971Z" transform="translate(0 -25.552)"/><path class="cls-8" d="M235.2,243.371v-2h6v2Z" transform="translate(0 -25.552)"/><path class="cls-8" d="M246.8,231.271v16.7c0,3.5-1.9,4.7-4.1,4.7v-1.4a1.835,1.835,0,0,0,1.3-.9,6.845,6.845,0,0,0,.5-2.7v-16.4Z" transform="translate(0 -25.552)"/><path class="cls-8" d="M249.7,241.971a5.907,5.907,0,1,1,11.8,0c0,3.7-2.4,6.4-5.9,6.4C252.1,248.471,249.7,245.771,249.7,241.971Zm2.4,0c0,2.3.8,4.9,3.6,4.9s3.6-2.6,3.6-4.9c0-2.2-.9-4.6-3.6-4.6S252.1,239.871,252.1,241.971Z" transform="translate(0 -25.552)"/><path class="cls-8" d="M264.3,230.471h2.2v7.5h0a4.972,4.972,0,0,1,3.9-2.2c4.7,0,5.5,4.2,5.5,5.9,0,3.7-2.2,6.7-5.7,6.7a4.55,4.55,0,0,1-3.7-1.9h0v1.6h-2.2Zm9.3,11.3c0-2.2-1.1-4.4-3.3-4.4-2.5,0-3.8,1.9-3.8,5,0,2.3,1.1,4.5,3.8,4.5C272.8,246.871,273.6,243.971,273.6,241.771Z" transform="translate(0 -25.552)"/><path class="cls-8" d="M284.3,238.071a3.954,3.954,0,0,0-2.2-.8c-.8,0-1.8.4-1.8,1.4s1.1,1.5,2.5,2.6c1.5,1.2,2.5,2.2,2.5,3.8,0,2-2,3.4-4.2,3.4a5.2,5.2,0,0,1-3.7-1.5l1.1-1.2a4.2,4.2,0,0,0,2.6,1.2c1,0,2-.5,2-1.7,0-1.4-1.3-2-2.4-2.8-1.4-1-2.6-1.8-2.6-3.4,0-1.9,1.9-3.1,4-3.1a4.749,4.749,0,0,1,3,1.1Z" transform="translate(0 -25.552)"/></g></g></svg>