<svg id="Flashcable_CMYK" data-name="Flashcable CMYK" xmlns="http://www.w3.org/2000/svg" xmlns:xlink="http://www.w3.org/1999/xlink" viewBox="0 0 432.58 130.02"><defs><style>.cls-1{fill:#95665e;}.cls-2{fill:url(#Unbenannter_Verlauf_2);}.cls-3{fill:#c00303;}.cls-4{fill:#bf563b;}.cls-5{fill:#181716;}</style><linearGradient id="Unbenannter_Verlauf_2" x1="37.17" y1="118.53" x2="37.17" y2="118.53" gradientUnits="userSpaceOnUse"><stop offset="0.2" stop-color="#be111f"/><stop offset="0.9" stop-color="#7d0a08"/></linearGradient></defs><title>Logo_Flashcable</title><path class="cls-1" d="M66.29,63.42a56.93,56.93,0,0,0-12.89,8.23L53.14,73c-.45,2.21-.86,4.16-1.21,5.79a114.58,114.58,0,0,1-8,23.82q2.75,7.57,3.89,7.34,1.6-.33.06-15.93c5.4-7.61,14.82-22,19.8-31.18Z"/><path class="cls-1" d="M36.94,115c-.71-2-1-2.88-1-2.88a74.2,74.2,0,0,1-3.57-19c-1.62,2.34-3.15,4.69-4.51,7-.82,1.38-2.13,3.67-3.55,6.65-.24.5-3.77,8-2.39,10.65a.86.86,0,0,0,.31.35c1.14.7,4.25-1.72,6-4.46l.16-.26c-.28,1.2-2.06,9.17-.08,12a1,1,0,0,0,.62.49c1.62.31,4-5.2,6-10.29a10,10,0,0,0,1.38,4.75c.37.54.57.64.75.66,1,.1,2.07-2.58,2.43-3.58a26.18,26.18,0,0,0,1.45-8.49c-1,1.78-1.89,3.32-2.73,4.59C38.15,113.13,38.05,113.34,36.94,115Z"/><path class="cls-2" d="M37.17,118.53"/><path class="cls-1" d="M50.69,40.81l.76-1.05-.55-.16-.76,1.06Z"/><path class="cls-1" d="M50.89,39.6A359.69,359.69,0,0,1,6.1,23.93h0l-.67-.23A1.15,1.15,0,0,0,4,24.37a1.1,1.1,0,0,0,.65,1.44l.82.32h0a382,382,0,0,0,44.7,14.53l.56.15.76-1.05Z"/><path class="cls-1" d="M48.12,44.63l.77-1.18-.6-.07-.77,1.19Z"/><path class="cls-1" d="M48.29,43.38c-3.07-.34-6.14-.69-9.2-1.07Q31,41.31,23,40.15c-5.61-.81-11.2-1.72-16.8-2.59L3,37H3l-.92-.12a1.13,1.13,0,0,0-1.28,1,1.18,1.18,0,0,0,1,1.31l.87.12h0c1.12.18,2.24.33,3.36.47,4.74.62,9.48,1.28,14.22,1.85s9.44,1.09,14.16,1.58c4.37.46,8.74.89,13.11,1.31l.6.06.77-1.18Z"/><path class="cls-1" d="M49.45,42.61l.74-1.07-.58-.12-.74,1.09Z"/><path class="cls-1" d="M49.61,41.42C37,38.94,24.46,36,12.06,32.6c-2.59-.72-5.18-1.47-7.76-2.21h0l-.79-.2a1.15,1.15,0,0,0-.57,2.23l.87.22h0c1.65.46,3.31.89,5,1.31,12.54,3.19,25.17,6,37.92,8.19l2.18.37.58.1.74-1.07Z"/><path class="cls-1" d="M46.87,46.65l.8-1.29-.63,0-.8,1.31Z"/><path class="cls-1" d="M47,45.34Q34.1,45,21.15,44.57q-9.38-.3-18.75-.77H1.46A1.23,1.23,0,0,0,.24,44.94a1.07,1.07,0,0,0,1.09,1.14l.76,0h0q16.58.26,33.16.45,5.49.06,11,.09h.63l.8-1.29Z"/><path class="cls-1" d="M51.95,39.07l.7-.93-.53-.2-.71.95Z"/><path class="cls-1" d="M52.12,37.93A284.79,284.79,0,0,1,8.35,17.67h0l-.63-.27a1.18,1.18,0,0,0-1.54.48,1.06,1.06,0,0,0,.47,1.47l.89.44A286.27,286.27,0,0,0,45.87,37c1.84.66,3.68,1.29,5.54,1.92l.54.19.7-.93Z"/><path class="cls-1" d="M53.09,37.54l.73-.93-.51-.24-.73.94Z"/><path class="cls-1" d="M53.32,36.37A240.6,240.6,0,0,1,11,11.7h0l-.48-.28A1.15,1.15,0,0,0,9,11.76a1,1,0,0,0,.33,1.45l.72.49h0l0,0,0,0h0A246.55,246.55,0,0,0,52.58,37.31l.51.23.73-.93Z"/><path class="cls-1" d="M39.59,61.51q.28-.73.57-1.46l.18-.44-.73.33c-.25.63-.49,1.26-.73,1.9Z"/><path class="cls-1" d="M39.62,59.94A281.18,281.18,0,0,0,7.19,77h0l-.08,0-.1.06H7l-.66.41a1.1,1.1,0,0,0,1.17,1.87l.19-.13h0l.65-.44a276.68,276.68,0,0,1,30.54-17l.7-.34q.28-.73.57-1.46l.18-.44Z"/><path class="cls-1" d="M45.61,48.8c.27-.47.53-.92.8-1.38l-.66,0L45,48.85Z"/><path class="cls-1" d="M45.76,47.46q-8.41.54-16.82,1.1-8.25.56-16.49,1.2C9,50,5.51,50.4,2,50.61H2l-1,.1A1.17,1.17,0,0,0,1.28,53l1-.1h0c8.1-.8,16.19-1.69,24.29-2.46,6.12-.58,12.25-1.1,18.37-1.62l.65-.06c.27-.47.53-.92.8-1.38Z"/><path class="cls-1" d="M38.09,65.82q.33-1,.69-2.07l-.71.41q-.35,1-.68,2.1Z"/><path class="cls-1" d="M38.07,64.16A247.6,247.6,0,0,0,9.59,83.07l0,0-.84.62A1.1,1.1,0,0,0,10,85.5l.78-.61h0l1.93-1.52a237.27,237.27,0,0,1,24.65-17.1l.7-.43q.33-1,.69-2.07Z"/><path class="cls-1" d="M36,73.9l-.66.6c-.16.82-.32,1.64-.45,2.47l.65-.63Q35.71,75.13,36,73.9Z"/><path class="cls-1" d="M16.12,94l0,.05-.72.85a1.05,1.05,0,0,0,1.56,1.41h0A192.13,192.13,0,0,1,34.78,77a.28.28,0,0,0,.09-.16c.13-.8.28-1.59.44-2.38A200.14,200.14,0,0,0,16.12,94Z"/><path class="cls-1" d="M35.3,74.5c-.16.82-.32,1.64-.45,2.47l.65-.63q.21-1.22.46-2.44Z"/><path class="cls-1" d="M36.68,70.76q.28-1.14.61-2.27l-.69.51c-.21.76-.41,1.52-.59,2.29Z"/><path class="cls-1" d="M36.59,69A218,218,0,0,0,12.72,88.66a3.55,3.55,0,0,0-.24.27h0l-.8.79a1.06,1.06,0,1,0,1.5,1.5l.15-.15h0A212.16,212.16,0,0,1,36,71.29l.68-.53q.28-1.14.61-2.27Z"/><path class="cls-1" d="M44.8,50v0l-.68.1,0,0c-2.89.42-5.77.86-8.65,1.32-7,1.14-14,2.38-21,3.65-4,.72-7.93,1.58-11.91,2.35h0l-1.14.24A1.17,1.17,0,1,0,1.84,60l1-.2h0c10.71-2.25,21.4-4.62,32.15-6.69,2.82-.55,5.65-1,8.48-1.5l0,0h0v0l.67-.11c.26-.49.52-1,.78-1.45Z"/><path class="cls-1" d="M42.68,54.38c.26-.53.52-1.07.78-1.59l-.69.17c-.27.53-.53,1.07-.79,1.61Z"/><path class="cls-1" d="M42.77,53q-14.61,3.49-29,7.91C10.32,61.94,6.87,63.1,3.4,64.19l0,0h0l-1,.33a1.16,1.16,0,1,0,.75,2.2l.68-.25Q22.64,59.65,42,54.57l.7-.19c.26-.53.52-1.07.78-1.59Z"/><path class="cls-1" d="M41.13,57.74c.26-.59.52-1.17.79-1.75l-.71.24c-.26.58-.52,1.17-.78,1.76Z"/><path class="cls-1" d="M41.21,56.23A356.49,356.49,0,0,0,4.91,70.76L4,71.22a1.15,1.15,0,1,0,1.06,2l.83-.43A335.69,335.69,0,0,1,40.43,58l.7-.26c.26-.59.52-1.17.79-1.75Z"/><path class="cls-1" d="M54.58,36.08l.72-.89-.71-.4-.73.9Z"/><path class="cls-1" d="M54.59,34.78A209.72,209.72,0,0,1,14.21,5.84l-.06-.05h0l-.35-.31a1.08,1.08,0,1,0-1.42,1.64l.72.62h0l.07.06.9.76c1.25,1.08,2.51,2.15,3.78,3.2a214.29,214.29,0,0,0,36,23.93l.72.39.72-.89Z"/><path class="cls-1" d="M55.61,33.56A186.92,186.92,0,0,1,20.6,4L17.5.65h0L17.2.32a1,1,0,0,0-1.5,1.43l.62.66h0c.78.82,2.91,3,3,3.18,11.45,12.28,21.43,20,35.53,28.82l.47.29.7-.84Z"/><path class="cls-3" d="M86.07,18.54a18.63,18.63,0,0,0-16.75-6c-10.93,1.46-15.09.76-15.09.76s1.84,1.79,6.55,2.88c-2.55.83-5.82,2-13.28,2a37.38,37.38,0,0,0,7.13,2.69,20.36,20.36,0,0,0-7,3.79,57,57,0,0,1,8.79-1.56c2.33-.12,4.83,1.58,3.24,4.36a13.68,13.68,0,0,1-1.2,2c-1.23,1.77-1,1.46-1.46,2.12s-.89,1.22-1.5,2a69.89,69.89,0,0,0-6,7.26A87.4,87.4,0,0,0,38.4,63.22c-.11.31-.23.62-.33.94h0c-.22.68-.43,1.37-.64,2.07l-.06,0Q37,67.61,36.59,69l.09-.06c-.2.75-.39,1.51-.58,2.28l-.1.08q-.38,1.58-.7,3.21l.05,0c-.18.83-.35,1.67-.51,2.52a73.16,73.16,0,0,0,2.56,34.18c3.64-5.46,9.72-17.78,13-32.9.32-1.49.67-3.18,1-5A183.57,183.57,0,0,0,36.56,87.48a12.33,12.33,0,0,1,.26-1.74c10.42-57.53,47-57,47-57S87.95,17,137.56,12.64C115.55,10.19,86.07,18.54,86.07,18.54Z"/><path class="cls-4" d="M39.06,82.56c1.77-1.79,4.15-4.13,6.85-6.59C53.65,68.9,60.2,64.24,65.37,62.1,72.19,59.27,76.08,56.34,78.8,52c3-4.82,4.59-11.72,5-21.61C77.87,30.82,48.91,35.45,39.06,82.56Z"/><path class="cls-5" d="M88.59,77.89v5.22h15.29A1,1,0,0,1,105,84.23v1.21a1,1,0,0,1-1.12,1.12H88.59v41.21a1,1,0,0,1-1.12,1.12H85.89a1,1,0,0,1-1.12-1.12V86.56H78.43a1,1,0,0,1-1.12-1.12V84.23a1,1,0,0,1,1.12-1.12h6.34V77.43c0-9.6,4.85-14.92,13.52-14.92a17.24,17.24,0,0,1,9,2.24c.65.37.84.84.37,1.49L107,67.36a.87.87,0,0,1-1.4.37A12.69,12.69,0,0,0,98.48,66C91.86,66,88.59,70,88.59,77.89Z"/><path class="cls-5" d="M117.41,128.9a1,1,0,0,1-1.12-1.12v-63a1,1,0,0,1,1.12-1.12H119a1,1,0,0,1,1.12,1.12v63A1,1,0,0,1,119,128.9Z"/><path class="cls-5" d="M163.47,99.43v13.15c0,11.66-5.59,17.44-16.88,17.44-10.07,0-15.76-4.94-15.76-13.52s5.87-13.61,16.22-13.61h12.59v-2.52c0-10.16-4.1-14.92-13-14.92a14.42,14.42,0,0,0-11.19,4.66,1.07,1.07,0,0,1-1.58,0l-.93-.93a1.18,1.18,0,0,1,0-1.68A19.21,19.21,0,0,1,146.87,82C158,82,163.47,87.78,163.47,99.43Zm-3.82,12.31v-5.41H147.52c-8.3,0-12.87,3.54-12.87,10.16s4.2,10.07,11.94,10.07C155.64,126.57,159.65,121.91,159.65,111.74Z"/><path class="cls-5" d="M189.11,130c-7.18,0-12.68-2.05-16.5-6.06a1.07,1.07,0,0,1,0-1.58l.84-.93a1,1,0,0,1,1.59,0c3.26,3.45,7.93,5.13,13.8,5.13,7.37,0,11.66-3.54,11.66-9.79,0-5.69-3.36-8.3-12.68-9.51-10.72-1.4-14.55-4.76-14.55-12.12C173.26,87,179.32,82,189,82c5.41,0,9.88,1.49,13.33,4.38a1.07,1.07,0,0,1,.09,1.58l-.65.93A1,1,0,0,1,200,89a16,16,0,0,0-10.72-3.54c-7.74,0-12.22,3.64-12.22,9.7,0,5.22,3,7.46,12,8.67a27.73,27.73,0,0,1,8.39,2c4.38,1.68,6.53,4.66,6.81,11.1C204.31,125,198.44,130,189.11,130Z"/><path class="cls-5" d="M246,99v28.81a1,1,0,0,1-1.12,1.12h-1.58a1,1,0,0,1-1.12-1.12v-28c0-9.79-4-14.36-12.59-14.36-8.3,0-12.5,4.76-12.5,14.36v28A1,1,0,0,1,216,128.9h-1.59a1,1,0,0,1-1.12-1.12v-63a1,1,0,0,1,1.12-1.12H216a1,1,0,0,1,1.12,1.12V88.62h.09C219.51,84.23,223.8,82,230,82,240.68,82,246,87.68,246,99Z"/><path class="cls-5" d="M287.58,122.84a1.07,1.07,0,0,1,0,1.58A17.73,17.73,0,0,1,274.16,130c-10.82,0-16.69-6.06-16.69-17.53V99.43C257.47,87.87,263.15,82,274,82q8.25,0,12.87,4.76a1.07,1.07,0,0,1,0,1.58l-.84.93q-1,1-1.68,0a13.86,13.86,0,0,0-10.16-3.82c-8.86,0-12.87,4.76-12.87,14.92v11.28c0,10.16,4.29,14.92,13.24,14.92a14,14,0,0,0,10.54-4.66.92.92,0,0,1,1.58-.09Z"/><path class="cls-5" d="M327.21,99.43v13.15c0,11.66-5.59,17.44-16.88,17.44-10.07,0-15.76-4.94-15.76-13.52s5.88-13.61,16.23-13.61h12.59v-2.52c0-10.16-4.1-14.92-13-14.92a14.42,14.42,0,0,0-11.19,4.66,1.07,1.07,0,0,1-1.59,0l-.93-.93a1.18,1.18,0,0,1,0-1.68A19.21,19.21,0,0,1,310.61,82C321.71,82,327.21,87.78,327.21,99.43Zm-3.82,12.31v-5.41H311.27c-8.3,0-12.87,3.54-12.87,10.16s4.2,10.07,11.94,10.07C319.38,126.57,323.39,121.91,323.39,111.74Z"/><path class="cls-5" d="M372.06,99.34v13.24c0,11.47-5.78,17.44-16.69,17.44s-16.69-6-16.69-17.44V64.75a1,1,0,0,1,1.12-1.12h1.58a1,1,0,0,1,1.12,1.12V88.9h.09c2.33-4.57,6.71-6.9,13.15-6.9C366.66,82,372.06,87.78,372.06,99.34Zm-3.82.84c0-10.07-4-14.73-12.87-14.73-8.58,0-12.87,4.94-12.87,14.73v11.56c0,10.16,4,14.83,12.87,14.83s12.87-4.66,12.87-14.83Z"/><path class="cls-5" d="M385.21,128.9a1,1,0,0,1-1.12-1.12v-63a1,1,0,0,1,1.12-1.12h1.58a1,1,0,0,1,1.12,1.12v63a1,1,0,0,1-1.12,1.12Z"/><path class="cls-5" d="M432.58,99.34v6.81a1,1,0,0,1-1.12,1.12H403.68v4.38c0,10.35,4.29,14.92,13.89,14.92a14.5,14.5,0,0,0,11.19-5.22,1,1,0,0,1,1.68-.09l.84.93a1.07,1.07,0,0,1,.09,1.58,17.89,17.89,0,0,1-14,6.25c-11.66,0-17.53-5.88-17.53-17.53V99.34c0-11.56,5.5-17.34,16.41-17.34S432.58,87.78,432.58,99.34Zm-3.73,4.48v-3.64c0-10.16-3.92-14.73-12.59-14.73S403.68,90,403.68,100.18v3.64Z"/></svg>