<svg id="Ebene_1" data-name="Ebene 1" xmlns="http://www.w3.org/2000/svg" viewBox="0 0 50 50"><defs><style>.cls-1{fill:#43536d;}.cls-2{stroke:#43536d;stroke-miterlimit:10;}</style></defs><title>icon-text-right-align</title><path class="cls-1" d="M42.5,3A4.51,4.51,0,0,1,47,7.5v35A4.51,4.51,0,0,1,42.5,47H7.5A4.51,4.51,0,0,1,3,42.5V7.5A4.51,4.51,0,0,1,7.5,3h35m0-.5H7.5a5,5,0,0,0-5,5v35a5,5,0,0,0,5,5h35a5,5,0,0,0,5-5V7.5a5,5,0,0,0-5-5Z"/><rect class="cls-2" x="18" y="18.5" width="22" height="1" rx="0.5" ry="0.5"/><rect class="cls-2" x="10" y="26.5" width="30" height="1" rx="0.5" ry="0.5"/><rect class="cls-2" x="16" y="22.5" width="24" height="1" rx="0.5" ry="0.5"/><rect class="cls-2" x="26" y="30.5" width="14" height="1" rx="0.5" ry="0.5"/><rect class="cls-2" x="20" y="34.5" width="20" height="1" rx="0.5" ry="0.5"/><rect class="cls-2" x="26" y="14.5" width="14" height="1" rx="0.5" ry="0.5"/></svg>