<svg id="Ebene_1" data-name="Ebene 1" xmlns="http://www.w3.org/2000/svg" viewBox="0 0 50 50"><defs><style>.cls-1,.cls-2{fill:#43536d;}.cls-2{stroke:#43536d;stroke-miterlimit:10;}</style></defs><title>icon-parent-2-columns</title><path class="cls-1" d="M42.5,3A4.51,4.51,0,0,1,47,7.5v35A4.51,4.51,0,0,1,42.5,47H7.5A4.51,4.51,0,0,1,3,42.5V7.5A4.51,4.51,0,0,1,7.5,3h35m0-.5H7.5a5,5,0,0,0-5,5v35a5,5,0,0,0,5,5h35a5,5,0,0,0,5-5V7.5a5,5,0,0,0-5-5Z"/><path class="cls-1" d="M19.25,6.25a4.51,4.51,0,0,1,4.5,4.5v8.5a4.51,4.51,0,0,1-4.5,4.5h-8.5a4.51,4.51,0,0,1-4.5-4.5v-8.5a4.51,4.51,0,0,1,4.5-4.5h8.5m0-.5h-8.5a5,5,0,0,0-5,5v8.5a5,5,0,0,0,5,5h8.5a5,5,0,0,0,5-5v-8.5a5,5,0,0,0-5-5Z"/><rect class="cls-2" x="10.75" y="11.25" width="8.5" height="1" rx="0.5" ry="0.5"/><rect class="cls-2" x="10.75" y="17.25" width="8.5" height="1" rx="0.5" ry="0.5"/><rect class="cls-2" x="10.75" y="14.25" width="8.5" height="1" rx="0.5" ry="0.5"/><path class="cls-1" d="M39.25,6.25a4.51,4.51,0,0,1,4.5,4.5v8.5a4.51,4.51,0,0,1-4.5,4.5h-8.5a4.51,4.51,0,0,1-4.5-4.5v-8.5a4.51,4.51,0,0,1,4.5-4.5h8.5m0-.5h-8.5a5,5,0,0,0-5,5v8.5a5,5,0,0,0,5,5h8.5a5,5,0,0,0,5-5v-8.5a5,5,0,0,0-5-5Z"/><rect class="cls-2" x="30.75" y="11.25" width="8.5" height="1" rx="0.5" ry="0.5"/><rect class="cls-2" x="30.75" y="17.25" width="8.5" height="1" rx="0.5" ry="0.5"/><rect class="cls-2" x="30.75" y="14.25" width="8.5" height="1" rx="0.5" ry="0.5"/><path class="cls-1" d="M19.25,26.25a4.51,4.51,0,0,1,4.5,4.5v8.5a4.51,4.51,0,0,1-4.5,4.5h-8.5a4.51,4.51,0,0,1-4.5-4.5v-8.5a4.51,4.51,0,0,1,4.5-4.5h8.5m0-.5h-8.5a5,5,0,0,0-5,5v8.5a5,5,0,0,0,5,5h8.5a5,5,0,0,0,5-5v-8.5a5,5,0,0,0-5-5Z"/><rect class="cls-2" x="10.75" y="31.25" width="8.5" height="1" rx="0.5" ry="0.5"/><rect class="cls-2" x="10.75" y="37.25" width="8.5" height="1" rx="0.5" ry="0.5"/><rect class="cls-2" x="10.75" y="34.25" width="8.5" height="1" rx="0.5" ry="0.5"/><path class="cls-1" d="M39.25,26.25a4.51,4.51,0,0,1,4.5,4.5v8.5a4.51,4.51,0,0,1-4.5,4.5h-8.5a4.51,4.51,0,0,1-4.5-4.5v-8.5a4.51,4.51,0,0,1,4.5-4.5h8.5m0-.5h-8.5a5,5,0,0,0-5,5v8.5a5,5,0,0,0,5,5h8.5a5,5,0,0,0,5-5v-8.5a5,5,0,0,0-5-5Z"/><rect class="cls-2" x="30.75" y="31.25" width="8.5" height="1" rx="0.5" ry="0.5"/><rect class="cls-2" x="30.75" y="37.25" width="8.5" height="1" rx="0.5" ry="0.5"/><rect class="cls-2" x="30.75" y="34.25" width="8.5" height="1" rx="0.5" ry="0.5"/></svg>