<svg xmlns="http://www.w3.org/2000/svg" viewBox="0 0 45 45"><defs><style>.cls-1{fill:#43536d;}.cls-2{fill:#fff;}</style></defs><title>icon-parent-4-columns</title><g id="Parentblock_4_Cols" data-name="Parentblock 4 Cols"><path class="cls-1" d="M14.011,35.708V14.292c0-.107-.117-.194-.261-.194s-.261.087-.261.194V35.708c0,.107.117.194.261.194S14.011,35.815,14.011,35.708Z" transform="translate(-2.5 -2.5)"/><path class="cls-1" d="M25.261,35.708V14.292c0-.107-.117-.194-.261-.194s-.261.087-.261.194V35.708c0,.107.117.194.261.194S25.261,35.815,25.261,35.708Z" transform="translate(-2.5 -2.5)"/><path class="cls-1" d="M36.511,35.708V14.292c0-.107-.117-.194-.261-.194s-.261.087-.261.194V35.708c0,.107.117.194.261.194S36.511,35.815,36.511,35.708Z" transform="translate(-2.5 -2.5)"/><path class="cls-1" d="M11.837,28.936H4.413c-.146,0-.265.16-.265.358s.119.357.265.357h7.424c.146,0,.265-.16.265-.357S11.983,28.936,11.837,28.936Z" transform="translate(-2.5 -2.5)"/><path class="cls-1" d="M11.837,30.367H4.413c-.146,0-.265.16-.265.358s.119.358.265.358h7.424c.146,0,.265-.161.265-.358S11.983,30.367,11.837,30.367Z" transform="translate(-2.5 -2.5)"/><path class="cls-1" d="M11.837,27.505H4.413c-.146,0-.265.16-.265.357s.119.358.265.358h7.424c.146,0,.265-.16.265-.358S11.983,27.505,11.837,27.505Z" transform="translate(-2.5 -2.5)"/><path class="cls-1" d="M4.413,26.789h7.424c.146,0,.265-.161.265-.358s-.119-.358-.265-.358H4.413c-.146,0-.265.161-.265.358S4.267,26.789,4.413,26.789Z" transform="translate(-2.5 -2.5)"/><path class="cls-1" d="M10.688,18.917a.36.36,0,0,1,.366.366v4.289a.359.359,0,0,1-.366.366H5.562a.356.356,0,0,1-.366-.366V19.283a.357.357,0,0,1,.366-.366ZM9.34,21.506l1.3,1.386v-3.4c0-.1-.057-.157-.17-.157H5.784a.161.161,0,0,0-.169.157v3.4l1.647-1.987a.309.309,0,0,1,.222-.105.279.279,0,0,1,.222.091l.706.772.053.052a.264.264,0,0,0,.143.053.285.285,0,0,0,.157-.066L9,21.493a.293.293,0,0,1,.17-.065A.21.21,0,0,1,9.34,21.506Zm.694-.68a.631.631,0,1,1,.183-.444A.605.605,0,0,1,10.034,20.826Z" transform="translate(-2.5 -2.5)"/><path class="cls-1" d="M34.337,28.936H26.913c-.146,0-.265.16-.265.358s.119.357.265.357h7.424c.146,0,.265-.16.265-.357S34.483,28.936,34.337,28.936Z" transform="translate(-2.5 -2.5)"/><path class="cls-1" d="M34.337,30.367H26.913c-.146,0-.265.16-.265.358s.119.358.265.358h7.424c.146,0,.265-.161.265-.358S34.483,30.367,34.337,30.367Z" transform="translate(-2.5 -2.5)"/><path class="cls-1" d="M34.337,27.505H26.913c-.146,0-.265.16-.265.357s.119.358.265.358h7.424c.146,0,.265-.16.265-.358S34.483,27.505,34.337,27.505Z" transform="translate(-2.5 -2.5)"/><path class="cls-1" d="M26.913,26.789h7.424c.146,0,.265-.161.265-.358s-.119-.358-.265-.358H26.913c-.146,0-.265.161-.265.358S26.767,26.789,26.913,26.789Z" transform="translate(-2.5 -2.5)"/><path class="cls-1" d="M44.556,28.936H38.132c-.147,0-.265.16-.265.358s.118.357.265.357h6.424c.146,0,.265-.16.265-.357S44.7,28.936,44.556,28.936Z" transform="translate(-2.5 -2.5)"/><path class="cls-1" d="M43.556,30.367H38.132c-.147,0-.265.16-.265.358s.118.358.265.358h5.424c.146,0,.265-.161.265-.358S43.7,30.367,43.556,30.367Z" transform="translate(-2.5 -2.5)"/><path class="cls-1" d="M42.556,27.505H38.132c-.147,0-.265.16-.265.357s.118.358.265.358h4.424c.146,0,.265-.16.265-.358S42.7,27.505,42.556,27.505Z" transform="translate(-2.5 -2.5)"/><path class="cls-1" d="M38.132,26.789H45.3c.146,0,.265-.161.265-.358s-.119-.358-.265-.358H38.132c-.147,0-.265.161-.265.358S37.985,26.789,38.132,26.789Z" transform="translate(-2.5 -2.5)"/><path class="cls-1" d="M43.556,23.211H38.132c-.147,0-.265.161-.265.358s.118.358.265.358h5.424c.146,0,.265-.161.265-.358S43.7,23.211,43.556,23.211Z" transform="translate(-2.5 -2.5)"/><path class="cls-1" d="M44.556,24.642H38.132c-.147,0-.265.161-.265.358s.118.358.265.358h6.424c.146,0,.265-.161.265-.358S44.7,24.642,44.556,24.642Z" transform="translate(-2.5 -2.5)"/><path class="cls-1" d="M42.556,21.78H38.132c-.147,0-.265.16-.265.358s.118.357.265.357h4.424c.146,0,.265-.16.265-.357S42.7,21.78,42.556,21.78Z" transform="translate(-2.5 -2.5)"/><path class="cls-1" d="M38.132,21.064h6.424c.146,0,.265-.16.265-.358s-.119-.357-.265-.357H38.132c-.147,0-.265.16-.265.357S37.985,21.064,38.132,21.064Z" transform="translate(-2.5 -2.5)"/><path class="cls-1" d="M38.132,19.633h7.424c.146,0,.265-.16.265-.358s-.119-.358-.265-.358H38.132c-.147,0-.265.161-.265.358S37.985,19.633,38.132,19.633Z" transform="translate(-2.5 -2.5)"/><path class="cls-1" d="M33.188,18.917a.36.36,0,0,1,.366.366v4.289a.359.359,0,0,1-.366.366H28.062a.356.356,0,0,1-.366-.366V19.283a.357.357,0,0,1,.366-.366ZM31.84,21.506l1.295,1.386v-3.4c0-.1-.057-.157-.17-.157H28.284a.161.161,0,0,0-.169.157v3.4l1.647-1.987a.309.309,0,0,1,.222-.105.279.279,0,0,1,.222.091l.706.772.053.052a.264.264,0,0,0,.143.053.285.285,0,0,0,.157-.066l.236-.209a.293.293,0,0,1,.17-.065A.21.21,0,0,1,31.84,21.506Zm.694-.68a.631.631,0,1,1,.183-.444A.605.605,0,0,1,32.534,20.826Z" transform="translate(-2.5 -2.5)"/><rect class="cls-1" x="13.812" y="16.417" width="6.127" height="5.043"/><path class="cls-2" d="M21.216,19.636a.258.258,0,0,1,.263.262V22.98a.258.258,0,0,1-.263.263H17.533a.256.256,0,0,1-.262-.263V19.9a.249.249,0,0,1,.075-.187.253.253,0,0,1,.187-.075ZM20.248,21.5l.93,1V20.049c0-.075-.041-.113-.122-.113H17.693a.116.116,0,0,0-.122.113v2.442l1.184-1.428a.224.224,0,0,1,.16-.075.2.2,0,0,1,.159.066l.508.554.037.038a.191.191,0,0,0,.1.037.2.2,0,0,0,.113-.047l.169-.15a.216.216,0,0,1,.122-.047A.152.152,0,0,1,20.248,21.5Zm.5-.488a.455.455,0,0,1-.639,0,.452.452,0,1,1,.639,0Z" transform="translate(-2.5 -2.5)"/><path class="cls-1" d="M19.375,25.3a.428.428,0,1,1,.428-.428A.428.428,0,0,1,19.375,25.3Zm0-.731a.3.3,0,1,0,.3.3A.3.3,0,0,0,19.375,24.565Z" transform="translate(-2.5 -2.5)"/><path class="cls-1" d="M17.914,24.441a.428.428,0,1,0,.427.427A.428.428,0,0,0,17.914,24.441Z" transform="translate(-2.5 -2.5)"/><path class="cls-1" d="M20.836,25.3a.428.428,0,1,1,.428-.428A.428.428,0,0,1,20.836,25.3Zm0-.731a.3.3,0,1,0,.3.3A.3.3,0,0,0,20.836,24.565Z" transform="translate(-2.5 -2.5)"/></g><g id="Frame"><path class="cls-1" d="M42.5,3A4.505,4.505,0,0,1,47,7.5v35A4.505,4.505,0,0,1,42.5,47H7.5A4.505,4.505,0,0,1,3,42.5V7.5A4.505,4.505,0,0,1,7.5,3h35m0-.5H7.5a5.015,5.015,0,0,0-5,5v35a5.015,5.015,0,0,0,5,5h35a5.015,5.015,0,0,0,5-5V7.5a5.015,5.015,0,0,0-5-5Z" transform="translate(-2.5 -2.5)"/></g></svg>