<svg id="Ebene_1" data-name="Ebene 1" xmlns="http://www.w3.org/2000/svg" viewBox="0 0 50 50"><defs><style>.cls-1,.cls-2{fill:#43536d;}.cls-2{stroke:#43536d;stroke-miterlimit:10;stroke-width:0.5px;}</style></defs><title>icon-box-standard</title><path class="cls-1" d="M42.5,3A4.51,4.51,0,0,1,47,7.5v35A4.51,4.51,0,0,1,42.5,47H7.5A4.51,4.51,0,0,1,3,42.5V7.5A4.51,4.51,0,0,1,7.5,3h35m0-.5H7.5a5,5,0,0,0-5,5v35a5,5,0,0,0,5,5h35a5,5,0,0,0,5-5V7.5a5,5,0,0,0-5-5Z"/><path class="cls-1" d="M9.09,8.47h.52v3.6h1.73v.44H9.09Z"/><path class="cls-1" d="M14.45,11A1.42,1.42,0,0,1,13,12.58a1.38,1.38,0,0,1-1.39-1.49,1.42,1.42,0,0,1,1.44-1.54A1.37,1.37,0,0,1,14.45,11Zm-2.3,0c0,.64.37,1.12.88,1.12s.88-.47.88-1.13c0-.49-.25-1.12-.87-1.12S12.15,10.51,12.15,11.07Z"/><path class="cls-1" d="M15.12,10.51c0-.34,0-.63,0-.91h.46l0,.57h0a.87.87,0,0,1,.8-.64l.15,0v.5l-.18,0a.74.74,0,0,0-.71.68,1.53,1.53,0,0,0,0,.25v1.55h-.52Z"/><path class="cls-1" d="M17.31,11.16a.93.93,0,0,0,1,1,1.91,1.91,0,0,0,.8-.15l.09.38a2.34,2.34,0,0,1-1,.18,1.35,1.35,0,0,1-1.43-1.46,1.41,1.41,0,0,1,1.36-1.56,1.23,1.23,0,0,1,1.2,1.37,2,2,0,0,1,0,.25Zm1.55-.38a.75.75,0,0,0-.73-.86.88.88,0,0,0-.81.86Z"/><path class="cls-1" d="M20,10.39c0-.3,0-.55,0-.79h.46l0,.47h0a1,1,0,0,1,.91-.53.86.86,0,0,1,.82.58h0a1.21,1.21,0,0,1,.32-.38,1,1,0,0,1,.64-.2c.38,0,1,.25,1,1.26v1.71h-.52V10.87c0-.56-.2-.89-.63-.89a.68.68,0,0,0-.62.48.86.86,0,0,0,0,.26v1.79h-.52V10.77c0-.46-.2-.8-.61-.8a.72.72,0,0,0-.65.53.74.74,0,0,0,0,.26v1.75H20Z"/><path class="cls-1" d="M26.89,8.79a.33.33,0,0,1-.65,0,.32.32,0,0,1,.33-.33A.31.31,0,0,1,26.89,8.79Zm-.59,3.72V9.61h.53v2.9Z"/><path class="cls-1" d="M27.7,10.56c0-.37,0-.67,0-.95h.47l0,.5h0a1.14,1.14,0,0,1,1-.56A1.32,1.32,0,0,1,30.45,11a1.37,1.37,0,0,1-1.32,1.56,1,1,0,0,1-.89-.46h0V13.7H27.7Zm.52.77a1.23,1.23,0,0,0,0,.22.81.81,0,0,0,.79.62c.56,0,.88-.46.88-1.12S29.62,10,29.06,10a.84.84,0,0,0-.8.65.87.87,0,0,0,0,.22Z"/><path class="cls-1" d="M31,12a1.38,1.38,0,0,0,.7.21c.38,0,.56-.19.56-.43s-.15-.39-.54-.53-.77-.47-.77-.82a.9.9,0,0,1,1-.85,1.45,1.45,0,0,1,.71.18l-.13.38A1.13,1.13,0,0,0,32,9.94c-.31,0-.49.18-.49.4s.17.35.55.49.76.44.76.88-.4.87-1.08.87a1.66,1.66,0,0,1-.82-.2Z"/><path class="cls-1" d="M35.92,11.72c0,.3,0,.56,0,.79h-.47l0-.47h0a1.09,1.09,0,0,1-1,.54c-.46,0-1-.25-1-1.27V9.61H34v1.61c0,.55.17.92.65.92a.76.76,0,0,0,.7-.48.79.79,0,0,0,0-.27V9.61h.53Z"/><path class="cls-1" d="M36.8,10.39c0-.3,0-.55,0-.79h.46l0,.47h0a1,1,0,0,1,.91-.53.86.86,0,0,1,.82.58h0a1.21,1.21,0,0,1,.32-.38,1,1,0,0,1,.64-.2c.38,0,1,.25,1,1.26v1.71h-.52V10.87c0-.56-.2-.89-.63-.89a.68.68,0,0,0-.62.48.86.86,0,0,0,0,.26v1.79h-.52V10.77c0-.46-.2-.8-.61-.8a.72.72,0,0,0-.65.53.74.74,0,0,0,0,.26v1.75H36.8Z"/><path class="cls-1" d="M29.91,19.43H20.09v9.82h9.82ZM21.6,28.76c.84-.91,1.91-1.73,1.83-3H22.32A4.37,4.37,0,0,0,24,23h-.92a10.59,10.59,0,0,0,2-3.33A7,7,0,0,0,27,23.09H26a9.74,9.74,0,0,0,1.83,2.82H26.47a6.78,6.78,0,0,0,2.22,2.85Z"/><path class="cls-1" d="M30.18,16.83H19.82a2.33,2.33,0,0,0-2.33,2.33V29.52a2.33,2.33,0,0,0,2.33,2.33H30.18a2.33,2.33,0,0,0,2.33-2.33V19.16A2.33,2.33,0,0,0,30.18,16.83Zm1.05,13.74H18.77V18.11H31.23Z"/><rect class="cls-2" x="14" y="41.5" width="22" height="1" rx="0.5" ry="0.5"/><rect class="cls-2" x="14" y="38.5" width="22" height="1" rx="0.5" ry="0.5"/><rect class="cls-2" x="14" y="35.5" width="22" height="1" rx="0.5" ry="0.5"/></svg>