<svg xmlns="http://www.w3.org/2000/svg" viewBox="0 0 45 45"><defs><style>.cls-1{fill:#43536d;}</style></defs><title>icon-text-center-align</title><g id="Text_align_Center" data-name="Text align Center"><path class="cls-1" d="M14.5,20h21a1,1,0,0,0,0-2h-21a1,1,0,0,0,0,2Z" transform="translate(-2.5 -2.5)"/><path class="cls-1" d="M39.5,26h-29a1,1,0,0,0,0,2h29a1,1,0,0,0,0-2Z" transform="translate(-2.5 -2.5)"/><path class="cls-1" d="M13.5,24h23a1,1,0,0,0,0-2h-23a1,1,0,0,0,0,2Z" transform="translate(-2.5 -2.5)"/><path class="cls-1" d="M31.5,32a1,1,0,0,0,0-2h-13a1,1,0,0,0,0,2Z" transform="translate(-2.5 -2.5)"/><path class="cls-1" d="M34.5,34h-19a1,1,0,0,0,0,2h19a1,1,0,0,0,0-2Z" transform="translate(-2.5 -2.5)"/><path class="cls-1" d="M18.5,16h13a1,1,0,0,0,0-2h-13a1,1,0,0,0,0,2Z" transform="translate(-2.5 -2.5)"/></g><g id="Frame"><path class="cls-1" d="M42.5,3A4.505,4.505,0,0,1,47,7.5v35A4.505,4.505,0,0,1,42.5,47H7.5A4.505,4.505,0,0,1,3,42.5V7.5A4.505,4.505,0,0,1,7.5,3h35m0-.5H7.5a5.015,5.015,0,0,0-5,5v35a5.015,5.015,0,0,0,5,5h35a5.015,5.015,0,0,0,5-5V7.5a5.015,5.015,0,0,0-5-5Z" transform="translate(-2.5 -2.5)"/></g></svg>