<svg id="Ebene_1" data-name="Ebene 1" xmlns="http://www.w3.org/2000/svg" viewBox="0 0 50 50"><defs><style>.cls-1,.cls-2{fill:#43536d;}.cls-2{stroke:#43536d;stroke-miterlimit:10;stroke-width:0.25px;}</style></defs><title>icon-parent-4-columns</title><path class="cls-1" d="M42.5,3A4.51,4.51,0,0,1,47,7.5v35A4.51,4.51,0,0,1,42.5,47H7.5A4.51,4.51,0,0,1,3,42.5V7.5A4.51,4.51,0,0,1,7.5,3h35m0-.5H7.5a5,5,0,0,0-5,5v35a5,5,0,0,0,5,5h35a5,5,0,0,0,5-5V7.5a5,5,0,0,0-5-5Z"/><path class="cls-1" d="M11.44,14.56a1.5,1.5,0,0,1,1.5,1.5v5.88a1.5,1.5,0,0,1-1.5,1.5H5.56a1.5,1.5,0,0,1-1.5-1.5V16.06a1.5,1.5,0,0,1,1.5-1.5h5.88m0-.5H5.56a2,2,0,0,0-2,2v5.88a2,2,0,0,0,2,2h5.88a2,2,0,0,0,2-2V16.06a2,2,0,0,0-2-2Z"/><rect class="cls-2" x="5.35" y="17.2" width="6.3" height="0.9" rx="0.45" ry="0.45"/><rect class="cls-2" x="5.35" y="19.9" width="6.3" height="0.9" rx="0.45" ry="0.45"/><path class="cls-1" d="M33.44,14.56a1.5,1.5,0,0,1,1.5,1.5v5.88a1.5,1.5,0,0,1-1.5,1.5H27.56a1.5,1.5,0,0,1-1.5-1.5V16.06a1.5,1.5,0,0,1,1.5-1.5h5.88m0-.5H27.56a2,2,0,0,0-2,2v5.88a2,2,0,0,0,2,2h5.88a2,2,0,0,0,2-2V16.06a2,2,0,0,0-2-2Z"/><rect class="cls-2" x="27.35" y="17.2" width="6.3" height="0.9" rx="0.45" ry="0.45"/><rect class="cls-2" x="27.35" y="19.9" width="6.3" height="0.9" rx="0.45" ry="0.45"/><path class="cls-1" d="M22.44,14.56a1.5,1.5,0,0,1,1.5,1.5v5.88a1.5,1.5,0,0,1-1.5,1.5H16.56a1.5,1.5,0,0,1-1.5-1.5V16.06a1.5,1.5,0,0,1,1.5-1.5h5.88m0-.5H16.56a2,2,0,0,0-2,2v5.88a2,2,0,0,0,2,2h5.88a2,2,0,0,0,2-2V16.06a2,2,0,0,0-2-2Z"/><rect class="cls-2" x="16.35" y="17.2" width="6.3" height="0.9" rx="0.45" ry="0.45"/><rect class="cls-2" x="16.35" y="19.9" width="6.3" height="0.9" rx="0.45" ry="0.45"/><path class="cls-1" d="M44.44,14.56a1.5,1.5,0,0,1,1.5,1.5v5.88a1.5,1.5,0,0,1-1.5,1.5H38.56a1.5,1.5,0,0,1-1.5-1.5V16.06a1.5,1.5,0,0,1,1.5-1.5h5.88m0-.5H38.56a2,2,0,0,0-2,2v5.88a2,2,0,0,0,2,2h5.88a2,2,0,0,0,2-2V16.06a2,2,0,0,0-2-2Z"/><rect class="cls-2" x="38.35" y="17.2" width="6.3" height="0.9" rx="0.45" ry="0.45"/><rect class="cls-2" x="38.35" y="19.9" width="6.3" height="0.9" rx="0.45" ry="0.45"/><path class="cls-1" d="M11.44,26.56a1.5,1.5,0,0,1,1.5,1.5v5.88a1.5,1.5,0,0,1-1.5,1.5H5.56a1.5,1.5,0,0,1-1.5-1.5V28.06a1.5,1.5,0,0,1,1.5-1.5h5.88m0-.5H5.56a2,2,0,0,0-2,2v5.88a2,2,0,0,0,2,2h5.88a2,2,0,0,0,2-2V28.06a2,2,0,0,0-2-2Z"/><rect class="cls-2" x="5.35" y="29.2" width="6.3" height="0.9" rx="0.45" ry="0.45"/><rect class="cls-2" x="5.35" y="31.9" width="6.3" height="0.9" rx="0.45" ry="0.45"/><path class="cls-1" d="M33.44,26.56a1.5,1.5,0,0,1,1.5,1.5v5.88a1.5,1.5,0,0,1-1.5,1.5H27.56a1.5,1.5,0,0,1-1.5-1.5V28.06a1.5,1.5,0,0,1,1.5-1.5h5.88m0-.5H27.56a2,2,0,0,0-2,2v5.88a2,2,0,0,0,2,2h5.88a2,2,0,0,0,2-2V28.06a2,2,0,0,0-2-2Z"/><rect class="cls-2" x="27.35" y="29.2" width="6.3" height="0.9" rx="0.45" ry="0.45"/><rect class="cls-2" x="27.35" y="31.9" width="6.3" height="0.9" rx="0.45" ry="0.45"/><path class="cls-1" d="M22.44,26.56a1.5,1.5,0,0,1,1.5,1.5v5.88a1.5,1.5,0,0,1-1.5,1.5H16.56a1.5,1.5,0,0,1-1.5-1.5V28.06a1.5,1.5,0,0,1,1.5-1.5h5.88m0-.5H16.56a2,2,0,0,0-2,2v5.88a2,2,0,0,0,2,2h5.88a2,2,0,0,0,2-2V28.06a2,2,0,0,0-2-2Z"/><rect class="cls-2" x="16.35" y="29.2" width="6.3" height="0.9" rx="0.45" ry="0.45"/><rect class="cls-2" x="16.35" y="31.9" width="6.3" height="0.9" rx="0.45" ry="0.45"/><path class="cls-1" d="M44.44,26.56a1.5,1.5,0,0,1,1.5,1.5v5.88a1.5,1.5,0,0,1-1.5,1.5H38.56a1.5,1.5,0,0,1-1.5-1.5V28.06a1.5,1.5,0,0,1,1.5-1.5h5.88m0-.5H38.56a2,2,0,0,0-2,2v5.88a2,2,0,0,0,2,2h5.88a2,2,0,0,0,2-2V28.06a2,2,0,0,0-2-2Z"/><rect class="cls-2" x="38.35" y="29.2" width="6.3" height="0.9" rx="0.45" ry="0.45"/><rect class="cls-2" x="38.35" y="31.9" width="6.3" height="0.9" rx="0.45" ry="0.45"/></svg>