<svg id="Text_5_Cols" data-name="Text 5 Cols" xmlns="http://www.w3.org/2000/svg" viewBox="0 0 39 18"><defs><style>.cls-1{fill:#43536d;stroke:#43536d;stroke-miterlimit:10;}</style></defs><title>icon-text-5-columns</title><rect class="cls-1" x="0.5" y="0.5" width="6" height="1" rx="0.25" ry="0.25"/><rect class="cls-1" x="0.5" y="12.5" width="6" height="1" rx="0.25" ry="0.25"/><rect class="cls-1" x="0.5" y="16.5" width="6" height="1" rx="0.25" ry="0.25"/><rect class="cls-1" x="0.5" y="8.5" width="6" height="1" rx="0.25" ry="0.25"/><rect class="cls-1" x="0.5" y="4.5" width="6" height="1" rx="0.25" ry="0.25"/><rect class="cls-1" x="8.5" y="0.5" width="6" height="1" rx="0.25" ry="0.25"/><rect class="cls-1" x="8.5" y="12.5" width="6" height="1" rx="0.25" ry="0.25"/><rect class="cls-1" x="8.5" y="16.5" width="6" height="1" rx="0.25" ry="0.25"/><rect class="cls-1" x="8.5" y="8.5" width="6" height="1" rx="0.25" ry="0.25"/><rect class="cls-1" x="8.5" y="4.5" width="6" height="1" rx="0.25" ry="0.25"/><rect class="cls-1" x="16.5" y="0.5" width="6" height="1" rx="0.25" ry="0.25"/><rect class="cls-1" x="16.5" y="12.5" width="6" height="1" rx="0.25" ry="0.25"/><rect class="cls-1" x="16.5" y="16.5" width="6" height="1" rx="0.25" ry="0.25"/><rect class="cls-1" x="16.5" y="8.5" width="6" height="1" rx="0.25" ry="0.25"/><rect class="cls-1" x="16.5" y="4.5" width="6" height="1" rx="0.25" ry="0.25"/><rect class="cls-1" x="24.5" y="0.5" width="6" height="1" rx="0.25" ry="0.25"/><rect class="cls-1" x="24.5" y="12.5" width="6" height="1" rx="0.25" ry="0.25"/><rect class="cls-1" x="24.5" y="16.5" width="6" height="1" rx="0.25" ry="0.25"/><rect class="cls-1" x="24.5" y="8.5" width="6" height="1" rx="0.25" ry="0.25"/><rect class="cls-1" x="24.5" y="4.5" width="6" height="1" rx="0.25" ry="0.25"/><rect class="cls-1" x="32.5" y="0.5" width="6" height="1" rx="0.25" ry="0.25"/><rect class="cls-1" x="32.5" y="12.5" width="6" height="1" rx="0.25" ry="0.25"/><rect class="cls-1" x="32.5" y="16.5" width="6" height="1" rx="0.25" ry="0.25"/><rect class="cls-1" x="32.5" y="8.5" width="6" height="1" rx="0.25" ry="0.25"/><rect class="cls-1" x="32.5" y="4.5" width="6" height="1" rx="0.25" ry="0.25"/></svg>