<svg xmlns="http://www.w3.org/2000/svg" viewBox="0 0 45 45"><defs><style>.cls-1{fill:#43536d;}</style></defs><title>icon-parent-1-columns</title><g id="Parentblock_1_Col" data-name="Parentblock 1 Col"><path class="cls-1" d="M42.394,14.568H25.427c-.334,0-.606.366-.606.817s.272.818.606.818H42.394c.334,0,.606-.367.606-.818S42.728,14.568,42.394,14.568Z" transform="translate(-2.5 -2.5)"/><path class="cls-1" d="M42.394,17.838H25.427c-.334,0-.606.367-.606.818s.272.818.606.818H42.394c.334,0,.606-.367.606-.818S42.728,17.838,42.394,17.838Z" transform="translate(-2.5 -2.5)"/><path class="cls-1" d="M42.394,11.3H25.427c-.334,0-.606.367-.606.818s.272.817.606.817H42.394c.334,0,.606-.366.606-.817S42.728,11.3,42.394,11.3Z" transform="translate(-2.5 -2.5)"/><path class="cls-1" d="M25.427,9.662H42.394c.334,0,.606-.367.606-.818s-.272-.818-.606-.818H25.427c-.334,0-.606.367-.606.818S25.093,9.662,25.427,9.662Z" transform="translate(-2.5 -2.5)"/><path class="cls-1" d="M21.34,7.2a.938.938,0,0,1,.957.956v11.2a.938.938,0,0,1-.957.956H7.956A.933.933,0,0,1,7,19.349V8.151A.933.933,0,0,1,7.956,7.2Zm-3.518,6.76,3.38,3.619V8.7c0-.273-.149-.41-.443-.41H8.537a.421.421,0,0,0-.444.41v8.877l4.3-5.19a.819.819,0,0,1,.581-.273.723.723,0,0,1,.58.239L15.4,14.365l.136.136a.694.694,0,0,0,.376.136.748.748,0,0,0,.409-.17l.615-.546a.776.776,0,0,1,.445-.171A.548.548,0,0,1,17.822,13.955Zm1.811-1.775A1.642,1.642,0,0,1,17.31,9.858a1.642,1.642,0,0,1,2.323,2.322Z" transform="translate(-2.5 -2.5)"/><path class="cls-1" d="M42.708,24.739H7.292c-.107,0-.194.117-.194.261s.087.261.194.261H42.708c.107,0,.194-.117.194-.261S42.815,24.739,42.708,24.739Z" transform="translate(-2.5 -2.5)"/><path class="cls-1" d="M42.394,37.068H25.427c-.334,0-.606.366-.606.817s.272.818.606.818H42.394c.334,0,.606-.367.606-.818S42.728,37.068,42.394,37.068Z" transform="translate(-2.5 -2.5)"/><path class="cls-1" d="M42.394,40.338H25.427c-.334,0-.606.367-.606.818s.272.818.606.818H42.394c.334,0,.606-.367.606-.818S42.728,40.338,42.394,40.338Z" transform="translate(-2.5 -2.5)"/><path class="cls-1" d="M42.394,33.8H25.427c-.334,0-.606.367-.606.818s.272.817.606.817H42.394c.334,0,.606-.366.606-.817S42.728,33.8,42.394,33.8Z" transform="translate(-2.5 -2.5)"/><path class="cls-1" d="M25.427,32.162H42.394c.334,0,.606-.367.606-.818s-.272-.818-.606-.818H25.427c-.334,0-.606.367-.606.818S25.093,32.162,25.427,32.162Z" transform="translate(-2.5 -2.5)"/><path class="cls-1" d="M21.34,29.7a.938.938,0,0,1,.957.956v11.2a.938.938,0,0,1-.957.956H7.956A.933.933,0,0,1,7,41.849v-11.2a.933.933,0,0,1,.956-.956Zm-3.518,6.76,3.38,3.619V31.2c0-.273-.149-.41-.443-.41H8.537a.421.421,0,0,0-.444.41v8.877l4.3-5.19a.819.819,0,0,1,.581-.273.723.723,0,0,1,.58.239L15.4,36.865l.136.136a.694.694,0,0,0,.376.136.748.748,0,0,0,.409-.17l.615-.546a.776.776,0,0,1,.445-.171A.548.548,0,0,1,17.822,36.455Zm1.811-1.775a1.649,1.649,0,1,1,.478-1.161A1.579,1.579,0,0,1,19.633,34.68Z" transform="translate(-2.5 -2.5)"/></g><g id="Frame"><path class="cls-1" d="M42.5,3A4.505,4.505,0,0,1,47,7.5v35A4.505,4.505,0,0,1,42.5,47H7.5A4.505,4.505,0,0,1,3,42.5V7.5A4.505,4.505,0,0,1,7.5,3h35m0-.5H7.5a5.015,5.015,0,0,0-5,5v35a5.015,5.015,0,0,0,5,5h35a5.015,5.015,0,0,0,5-5V7.5a5.015,5.015,0,0,0-5-5Z" transform="translate(-2.5 -2.5)"/></g></svg>