<svg id="Textblock_Lauyout_5" data-name="Textblock Lauyout 5" xmlns="http://www.w3.org/2000/svg" viewBox="0 0 36 13.11"><defs><style>.cls-1{fill:#43536d;}</style></defs><title>icon-text-left</title><path class="cls-1" d="M24.573,25.818H7.606c-.334,0-.606.366-.606.817s.272.818.606.818H24.573c.333,0,.606-.367.606-.818S24.906,25.818,24.573,25.818Z" transform="translate(-7 -18.445)"/><path class="cls-1" d="M24.573,29.088H7.606c-.334,0-.606.367-.606.818s.272.818.606.818H24.573c.333,0,.606-.367.606-.818S24.906,29.088,24.573,29.088Z" transform="translate(-7 -18.445)"/><path class="cls-1" d="M24.573,22.547H7.606c-.334,0-.606.367-.606.818s.272.817.606.817H24.573c.333,0,.606-.366.606-.817S24.906,22.547,24.573,22.547Z" transform="translate(-7 -18.445)"/><path class="cls-1" d="M7.606,20.912H24.573c.333,0,.606-.367.606-.818s-.273-.818-.606-.818H7.606c-.334,0-.606.367-.606.818S7.272,20.912,7.606,20.912Z" transform="translate(-7 -18.445)"/><path class="cls-1" d="M42.043,18.445A.938.938,0,0,1,43,19.4V30.6a.938.938,0,0,1-.957.956H28.659A.933.933,0,0,1,27.7,30.6V19.4a.933.933,0,0,1,.956-.956Zm-3.518,6.76,3.38,3.619V19.947c0-.273-.149-.41-.443-.41H29.24a.421.421,0,0,0-.444.41v8.877l4.3-5.19a.821.821,0,0,1,.581-.273.723.723,0,0,1,.58.239L36.1,25.615l.137.136a.688.688,0,0,0,.375.136.748.748,0,0,0,.409-.17l.615-.546A.776.776,0,0,1,38.083,25,.548.548,0,0,1,38.525,25.205Zm1.811-1.775a1.649,1.649,0,1,1,.478-1.161A1.579,1.579,0,0,1,40.336,23.43Z" transform="translate(-7 -18.445)"/></svg>