<svg id="Text_align_Center" data-name="Text align Center" xmlns="http://www.w3.org/2000/svg" viewBox="0 0 31 22"><defs><style>.cls-1{fill:#43536d;}</style></defs><title>icon-text-center-align</title><path class="cls-1" d="M14.5,20h21a1,1,0,0,0,0-2h-21a1,1,0,0,0,0,2Z" transform="translate(-9.5 -14)"/><path class="cls-1" d="M39.5,26h-29a1,1,0,0,0,0,2h29a1,1,0,0,0,0-2Z" transform="translate(-9.5 -14)"/><path class="cls-1" d="M13.5,24h23a1,1,0,0,0,0-2h-23a1,1,0,0,0,0,2Z" transform="translate(-9.5 -14)"/><path class="cls-1" d="M31.5,32a1,1,0,0,0,0-2h-13a1,1,0,0,0,0,2Z" transform="translate(-9.5 -14)"/><path class="cls-1" d="M34.5,34h-19a1,1,0,0,0,0,2h19a1,1,0,0,0,0-2Z" transform="translate(-9.5 -14)"/><path class="cls-1" d="M18.5,16h13a1,1,0,0,0,0-2h-13a1,1,0,0,0,0,2Z" transform="translate(-9.5 -14)"/></svg>