<?xml version="1.0" encoding="utf-8"?>
<!-- Generator: Adobe Illustrator 22.0.1, SVG Export Plug-In . SVG Version: 6.00 Build 0)  -->
<svg version="1.1" id="Calque_1" xmlns="http://www.w3.org/2000/svg" xmlns:xlink="http://www.w3.org/1999/xlink" x="0px" y="0px"
	 viewBox="0 0 37.8 33.3" style="enable-background:new 0 0 37.8 33.3;" xml:space="preserve">
<style type="text/css">
	.st0{opacity:0.6;fill:#43536D;enable-background:new    ;}
	.st1{fill:#43536D;}
	.st2{enable-background:new    ;}
	.st3{fill:#FFFFFF;}
</style>
<title>icon-text-center-right</title>
<path class="st0" d="M2.5,0h32.8c1.4,0,2.5,1.1,2.5,2.5v20.7c0,1.4-1.1,2.5-2.5,2.5H23.4v5.4H24c0.6,0,1,0.5,1,1l0,0
	c0,0.6-0.5,1-1,1H13.3c-0.6,0-1-0.5-1-1l0,0c0-0.6,0.5-1,1-1h1.1v-5.4H2.5c-1.4,0-2.5-1.1-2.5-2.5V2.5C0,1.1,1.1,0,2.5,0z M1.5,1.7
	v22.1h34.7V1.7H1.5z"/>
<path class="st1" d="M23.9,8.3h-9.8c-0.2,0-0.3,0.1-0.4,0.3c0,0,0,0,0,0v7.1l3.5-4.2c0.1-0.1,0.3-0.2,0.5-0.2c0.2,0,0.3,0.1,0.5,0.2
	l1.5,1.6l0.1,0.1c0.1,0.1,0.2,0.1,0.3,0.1c0.1,0,0.2-0.1,0.3-0.1l0.5-0.4c0.1-0.1,0.2-0.1,0.4-0.1c0.1,0,0.3,0.1,0.4,0.2l2.7,2.9
	V8.7C24.2,8.5,24.1,8.3,23.9,8.3z M23,11.5c-0.5,0.5-1.4,0.5-1.9,0c-0.5-0.5-0.5-1.4,0-1.9c0.5-0.5,1.4-0.5,1.9,0
	c0.3,0.2,0.4,0.6,0.4,0.9C23.3,10.9,23.2,11.2,23,11.5L23,11.5z"/>
<path class="st1" d="M1.6,1.7v22.1h34.7V1.7H1.6z M25.1,17.2c0,0.4-0.3,0.8-0.7,0.8c0,0,0,0,0,0H13.6c-0.4,0-0.8-0.3-0.8-0.7
	c0,0,0,0,0,0v-9c0-0.4,0.3-0.8,0.7-0.8c0,0,0,0,0,0h10.7c0.4,0,0.8,0.3,0.8,0.7c0,0,0,0,0,0L25.1,17.2z"/>
<g class="st2">
	<path class="st3" d="M14.3,11.6h0.3V14h1.2v0.3h-1.5V11.6z"/>
</g>
<g class="st2">
	<path class="st3" d="M17.8,13.3c0,0.7-0.5,1-1,1c-0.5,0-0.9-0.4-0.9-1c0-0.6,0.4-1,1-1C17.5,12.3,17.8,12.7,17.8,13.3z M16.3,13.3
		c0,0.4,0.2,0.7,0.6,0.7c0.3,0,0.6-0.3,0.6-0.8c0-0.3-0.2-0.7-0.6-0.7C16.5,12.5,16.3,12.9,16.3,13.3z"/>
</g>
<g class="st2">
	<path class="st3" d="M18.3,12.9c0-0.2,0-0.4,0-0.6h0.3l0,0.4h0c0.1-0.3,0.3-0.4,0.5-0.4c0,0,0.1,0,0.1,0v0.3c0,0-0.1,0-0.1,0
		c-0.2,0-0.4,0.2-0.5,0.5c0,0,0,0.1,0,0.2v1h-0.3V12.9z"/>
</g>
<g class="st2">
	<path class="st3" d="M19.8,13.4c0,0.5,0.3,0.7,0.7,0.7c0.3,0,0.4,0,0.5-0.1l0.1,0.3c-0.1,0.1-0.3,0.1-0.6,0.1c-0.6,0-1-0.4-1-1
		s0.3-1,0.9-1c0.6,0,0.8,0.6,0.8,0.9c0,0.1,0,0.1,0,0.2H19.8z M20.8,13.1c0-0.2-0.1-0.6-0.5-0.6c-0.4,0-0.5,0.3-0.5,0.6H20.8z"/>
	<path class="st3" d="M21.6,12.8c0-0.2,0-0.4,0-0.5h0.3l0,0.3h0c0.1-0.2,0.3-0.4,0.6-0.4c0.3,0,0.5,0.2,0.5,0.4h0
		c0.1-0.1,0.1-0.2,0.2-0.3c0.1-0.1,0.2-0.1,0.4-0.1c0.3,0,0.6,0.2,0.6,0.8v1.1H24v-1.1c0-0.4-0.1-0.6-0.4-0.6
		c-0.2,0-0.4,0.1-0.4,0.3c0,0,0,0.1,0,0.2v1.2h-0.3v-1.2c0-0.3-0.1-0.5-0.4-0.5c-0.2,0-0.4,0.2-0.4,0.4c0,0.1,0,0.1,0,0.2v1.2h-0.3
		V12.8z"/>
	<path class="st3" d="M26.1,11.8c0,0.1-0.1,0.2-0.2,0.2c-0.1,0-0.2-0.1-0.2-0.2c0-0.1,0.1-0.2,0.2-0.2
		C26.1,11.6,26.1,11.7,26.1,11.8z M25.7,14.3v-1.9h0.4v1.9H25.7z"/>
	<path class="st3" d="M26.7,13c0-0.2,0-0.4,0-0.6H27l0,0.3h0c0.1-0.2,0.4-0.4,0.7-0.4c0.5,0,0.8,0.4,0.8,1c0,0.7-0.4,1-0.9,1
		c-0.3,0-0.5-0.1-0.6-0.3h0V15h-0.3V13z M27,13.5c0,0.1,0,0.1,0,0.1c0.1,0.2,0.3,0.4,0.5,0.4c0.4,0,0.6-0.3,0.6-0.7
		c0-0.4-0.2-0.7-0.6-0.7c-0.2,0-0.5,0.2-0.5,0.4c0,0,0,0.1,0,0.1V13.5z"/>
	<path class="st3" d="M28.9,13.9C29,14,29.2,14,29.4,14c0.3,0,0.4-0.1,0.4-0.3c0-0.2-0.1-0.3-0.4-0.4c-0.3-0.1-0.5-0.3-0.5-0.5
		c0-0.3,0.3-0.6,0.7-0.6c0.2,0,0.4,0.1,0.5,0.1l-0.1,0.3c-0.1,0-0.2-0.1-0.4-0.1c-0.2,0-0.3,0.1-0.3,0.3c0,0.2,0.1,0.2,0.4,0.3
		c0.3,0.1,0.5,0.3,0.5,0.6c0,0.3-0.3,0.6-0.7,0.6c-0.2,0-0.4-0.1-0.5-0.1L28.9,13.9z"/>
	<path class="st3" d="M32.2,13.7c0,0.2,0,0.4,0,0.5h-0.3l0-0.3h0c-0.1,0.2-0.3,0.4-0.6,0.4c-0.3,0-0.7-0.2-0.7-0.8v-1.1h0.4v1.1
		c0,0.4,0.1,0.6,0.4,0.6c0.2,0,0.4-0.2,0.5-0.3c0-0.1,0-0.1,0-0.2v-1.2h0.4V13.7z"/>
	<path class="st3" d="M32.7,12.8c0-0.2,0-0.4,0-0.5H33l0,0.3h0c0.1-0.2,0.3-0.4,0.6-0.4c0.3,0,0.5,0.2,0.5,0.4h0
		c0.1-0.1,0.1-0.2,0.2-0.3c0.1-0.1,0.2-0.1,0.4-0.1c0.3,0,0.6,0.2,0.6,0.8v1.1h-0.3v-1.1c0-0.4-0.1-0.6-0.4-0.6
		c-0.2,0-0.4,0.1-0.4,0.3c0,0,0,0.1,0,0.2v1.2H34v-1.2c0-0.3-0.1-0.5-0.4-0.5c-0.2,0-0.4,0.2-0.4,0.4c0,0.1,0,0.1,0,0.2v1.2h-0.3
		V12.8z"/>
</g>
</svg>
