<svg id="Textblock_Lauyout_3" data-name="Textblock Lauyout 3" xmlns="http://www.w3.org/2000/svg" viewBox="0 0 27.125 31.292"><defs><style>.cls-1{fill:#43536d;}</style></defs><title>icon-text-oben</title><path class="cls-1" d="M37.658,16.484H12.341a.822.822,0,1,0,0,1.636H37.658a.822.822,0,1,0,0-1.636Z" transform="translate(-11.437 -9.943)"/><path class="cls-1" d="M37.658,19.755H12.341a.822.822,0,1,0,0,1.636H37.658a.822.822,0,1,0,0-1.636Z" transform="translate(-11.437 -9.943)"/><path class="cls-1" d="M37.658,13.214H12.341a.822.822,0,1,0,0,1.635H37.658a.822.822,0,1,0,0-1.635Z" transform="translate(-11.437 -9.943)"/><path class="cls-1" d="M12.341,11.578H37.658a.822.822,0,1,0,0-1.635H12.341a.822.822,0,1,0,0,1.635Z" transform="translate(-11.437 -9.943)"/><path class="cls-1" d="M31.691,28.125a.938.938,0,0,1,.957.956v11.2a.936.936,0,0,1-.957.955H18.307a.931.931,0,0,1-.956-.955v-11.2a.933.933,0,0,1,.956-.956Zm-3.518,6.76,3.38,3.619V29.627c0-.272-.149-.41-.443-.41H18.888a.422.422,0,0,0-.444.41V38.5l4.3-5.189a.817.817,0,0,1,.581-.273.722.722,0,0,1,.58.238L25.75,35.3l.137.136a.682.682,0,0,0,.375.137.75.75,0,0,0,.409-.171l.615-.546a.776.776,0,0,1,.445-.171A.548.548,0,0,1,28.173,34.885Zm1.811-1.775a1.648,1.648,0,1,1,.478-1.161A1.579,1.579,0,0,1,29.984,33.11Z" transform="translate(-11.437 -9.943)"/></svg>