<svg xmlns="http://www.w3.org/2000/svg" viewBox="0 0 45 45"><defs><style>.cls-1{fill:#43536d;}</style></defs><title>icon-box-2</title><g id="_2_Boxes" data-name="2 Boxes"><path class="cls-1" d="M22.138,32.443H10.419c-.231,0-.419.253-.419.565s.188.565.419.565H22.138c.23,0,.418-.254.418-.565S22.368,32.443,22.138,32.443Z" transform="translate(-2.5 -2.5)"/><path class="cls-1" d="M22.138,30.184H10.419c-.231,0-.419.253-.419.565s.188.565.419.565H22.138c.23,0,.418-.254.418-.565S22.368,30.184,22.138,30.184Z" transform="translate(-2.5 -2.5)"/><path class="cls-1" d="M10.419,29.054H22.138c.23,0,.418-.253.418-.564s-.188-.565-.418-.565H10.419c-.231,0-.419.253-.419.565S10.188,29.054,10.419,29.054Z" transform="translate(-2.5 -2.5)"/><path class="cls-1" d="M20.9,16.427a.649.649,0,0,1,.661.66v7.736a.649.649,0,0,1-.661.66H11.655a.646.646,0,0,1-.66-.66V17.087a.646.646,0,0,1,.66-.66ZM18.47,21.1l2.335,2.5V17.465c0-.189-.1-.283-.306-.283H12.057a.29.29,0,0,0-.307.283V23.6l2.971-3.584a.563.563,0,0,1,.4-.189.5.5,0,0,1,.4.165L16.8,21.38l.094.094a.474.474,0,0,0,.259.094.518.518,0,0,0,.283-.118l.424-.377a.536.536,0,0,1,.307-.118A.38.38,0,0,1,18.47,21.1Zm1.251-1.226a1.138,1.138,0,1,1,.33-.8A1.088,1.088,0,0,1,19.721,19.87Z" transform="translate(-2.5 -2.5)"/><path class="cls-1" d="M39.581,32.443H27.862c-.23,0-.418.253-.418.565s.188.565.418.565H39.581c.231,0,.419-.254.419-.565S39.812,32.443,39.581,32.443Z" transform="translate(-2.5 -2.5)"/><path class="cls-1" d="M39.581,30.184H27.862c-.23,0-.418.253-.418.565s.188.565.418.565H39.581c.231,0,.419-.254.419-.565S39.812,30.184,39.581,30.184Z" transform="translate(-2.5 -2.5)"/><path class="cls-1" d="M27.862,29.054H39.581c.231,0,.419-.253.419-.564s-.188-.565-.419-.565H27.862c-.23,0-.418.253-.418.565S27.632,29.054,27.862,29.054Z" transform="translate(-2.5 -2.5)"/><path class="cls-1" d="M38.344,16.427a.649.649,0,0,1,.661.66v7.736a.649.649,0,0,1-.661.66H29.1a.644.644,0,0,1-.66-.66V17.087a.644.644,0,0,1,.66-.66ZM35.914,21.1l2.335,2.5V17.465c0-.189-.1-.283-.306-.283H29.5a.29.29,0,0,0-.306.283V23.6l2.971-3.584a.563.563,0,0,1,.4-.189.5.5,0,0,1,.4.165L34.24,21.38l.095.094a.474.474,0,0,0,.259.094.518.518,0,0,0,.283-.118l.424-.377a.536.536,0,0,1,.307-.118A.38.38,0,0,1,35.914,21.1Zm1.251-1.226a1.138,1.138,0,1,1,.33-.8A1.09,1.09,0,0,1,37.165,19.87Z" transform="translate(-2.5 -2.5)"/></g><g id="Frame"><path class="cls-1" d="M42.5,3A4.505,4.505,0,0,1,47,7.5v35A4.505,4.505,0,0,1,42.5,47H7.5A4.505,4.505,0,0,1,3,42.5V7.5A4.505,4.505,0,0,1,7.5,3h35m0-.5H7.5a5.015,5.015,0,0,0-5,5v35a5.015,5.015,0,0,0,5,5h35a5.015,5.015,0,0,0,5-5V7.5a5.015,5.015,0,0,0-5-5Z" transform="translate(-2.5 -2.5)"/></g></svg>