<svg id="Ebene_1" data-name="Ebene 1" xmlns="http://www.w3.org/2000/svg" viewBox="0 0 50 50"><defs><style>.cls-1,.cls-2{fill:#43536d;}.cls-2{stroke:#43536d;stroke-miterlimit:10;}</style></defs><title>icon-parent-3-columns</title><path class="cls-1" d="M42.5,3A4.51,4.51,0,0,1,47,7.5v35A4.51,4.51,0,0,1,42.5,47H7.5A4.51,4.51,0,0,1,3,42.5V7.5A4.51,4.51,0,0,1,7.5,3h35m0-.5H7.5a5,5,0,0,0-5,5v35a5,5,0,0,0,5,5h35a5,5,0,0,0,5-5V7.5a5,5,0,0,0-5-5Z"/><path class="cls-1" d="M14.75,11.75a2.5,2.5,0,0,1,2.5,2.5v7.5a2.5,2.5,0,0,1-2.5,2.5H7.25a2.5,2.5,0,0,1-2.5-2.5v-7.5a2.5,2.5,0,0,1,2.5-2.5h7.5m0-.5H7.25a3,3,0,0,0-3,3v7.5a3,3,0,0,0,3,3h7.5a3,3,0,0,0,3-3v-7.5a3,3,0,0,0-3-3Z"/><rect class="cls-2" x="7.85" y="14.62" width="6.3" height="0.9" rx="0.45" ry="0.45"/><rect class="cls-2" x="7.85" y="20.02" width="6.3" height="0.9" rx="0.45" ry="0.45"/><rect class="cls-2" x="7.85" y="17.32" width="6.3" height="0.9" rx="0.45" ry="0.45"/><path class="cls-1" d="M28.75,11.75a2.5,2.5,0,0,1,2.5,2.5v7.5a2.5,2.5,0,0,1-2.5,2.5h-7.5a2.5,2.5,0,0,1-2.5-2.5v-7.5a2.5,2.5,0,0,1,2.5-2.5h7.5m0-.5h-7.5a3,3,0,0,0-3,3v7.5a3,3,0,0,0,3,3h7.5a3,3,0,0,0,3-3v-7.5a3,3,0,0,0-3-3Z"/><rect class="cls-2" x="21.85" y="14.62" width="6.3" height="0.9" rx="0.45" ry="0.45"/><rect class="cls-2" x="21.85" y="20.02" width="6.3" height="0.9" rx="0.45" ry="0.45"/><rect class="cls-2" x="21.85" y="17.32" width="6.3" height="0.9" rx="0.45" ry="0.45"/><path class="cls-1" d="M42.75,11.75a2.5,2.5,0,0,1,2.5,2.5v7.5a2.5,2.5,0,0,1-2.5,2.5h-7.5a2.5,2.5,0,0,1-2.5-2.5v-7.5a2.5,2.5,0,0,1,2.5-2.5h7.5m0-.5h-7.5a3,3,0,0,0-3,3v7.5a3,3,0,0,0,3,3h7.5a3,3,0,0,0,3-3v-7.5a3,3,0,0,0-3-3Z"/><rect class="cls-2" x="35.85" y="14.62" width="6.3" height="0.9" rx="0.45" ry="0.45"/><rect class="cls-2" x="35.85" y="20.02" width="6.3" height="0.9" rx="0.45" ry="0.45"/><rect class="cls-2" x="35.85" y="17.32" width="6.3" height="0.9" rx="0.45" ry="0.45"/><path class="cls-1" d="M14.75,25.75a2.5,2.5,0,0,1,2.5,2.5v7.5a2.5,2.5,0,0,1-2.5,2.5H7.25a2.5,2.5,0,0,1-2.5-2.5v-7.5a2.5,2.5,0,0,1,2.5-2.5h7.5m0-.5H7.25a3,3,0,0,0-3,3v7.5a3,3,0,0,0,3,3h7.5a3,3,0,0,0,3-3v-7.5a3,3,0,0,0-3-3Z"/><rect class="cls-2" x="7.85" y="28.62" width="6.3" height="0.9" rx="0.45" ry="0.45"/><rect class="cls-2" x="7.85" y="34.03" width="6.3" height="0.9" rx="0.45" ry="0.45"/><rect class="cls-2" x="7.85" y="31.32" width="6.3" height="0.9" rx="0.45" ry="0.45"/><path class="cls-1" d="M28.75,25.75a2.5,2.5,0,0,1,2.5,2.5v7.5a2.5,2.5,0,0,1-2.5,2.5h-7.5a2.5,2.5,0,0,1-2.5-2.5v-7.5a2.5,2.5,0,0,1,2.5-2.5h7.5m0-.5h-7.5a3,3,0,0,0-3,3v7.5a3,3,0,0,0,3,3h7.5a3,3,0,0,0,3-3v-7.5a3,3,0,0,0-3-3Z"/><rect class="cls-2" x="21.85" y="28.62" width="6.3" height="0.9" rx="0.45" ry="0.45"/><rect class="cls-2" x="21.85" y="34.03" width="6.3" height="0.9" rx="0.45" ry="0.45"/><rect class="cls-2" x="21.85" y="31.32" width="6.3" height="0.9" rx="0.45" ry="0.45"/><path class="cls-1" d="M42.75,25.75a2.5,2.5,0,0,1,2.5,2.5v7.5a2.5,2.5,0,0,1-2.5,2.5h-7.5a2.5,2.5,0,0,1-2.5-2.5v-7.5a2.5,2.5,0,0,1,2.5-2.5h7.5m0-.5h-7.5a3,3,0,0,0-3,3v7.5a3,3,0,0,0,3,3h7.5a3,3,0,0,0,3-3v-7.5a3,3,0,0,0-3-3Z"/><rect class="cls-2" x="35.85" y="28.62" width="6.3" height="0.9" rx="0.45" ry="0.45"/><rect class="cls-2" x="35.85" y="34.03" width="6.3" height="0.9" rx="0.45" ry="0.45"/><rect class="cls-2" x="35.85" y="31.32" width="6.3" height="0.9" rx="0.45" ry="0.45"/></svg>