<svg id="Ebene_1" data-name="Ebene 1" xmlns="http://www.w3.org/2000/svg" viewBox="0 0 50 50"><defs><style>.cls-1{fill:#43536d;}</style></defs><title>icon-slide-fullscreen</title><path class="cls-1" d="M42.5,3A4.51,4.51,0,0,1,47,7.5v35A4.51,4.51,0,0,1,42.5,47H7.5A4.51,4.51,0,0,1,3,42.5V7.5A4.51,4.51,0,0,1,7.5,3h35m0-.5H7.5a5,5,0,0,0-5,5v35a5,5,0,0,0,5,5h35a5,5,0,0,0,5-5V7.5a5,5,0,0,0-5-5Z"/><path class="cls-1" d="M29.91,20.09H20.09v9.82h9.82ZM21.6,29.42c.84-.91,1.91-1.73,1.83-3H22.32A4.37,4.37,0,0,0,24,23.69h-.92a10.59,10.59,0,0,0,2-3.33A7,7,0,0,0,27,23.75H26a9.74,9.74,0,0,0,1.83,2.82H26.47a6.78,6.78,0,0,0,2.22,2.85Z"/><path class="cls-1" d="M40.19,2.75H9.81A6.85,6.85,0,0,0,3,9.64V40.36a6.85,6.85,0,0,0,6.81,6.89H40.19A6.86,6.86,0,0,0,47,40.36V9.64A6.85,6.85,0,0,0,40.19,2.75Zm3.08,40.72H6.73V6.53H43.26Z"/></svg>