<svg id="Ebene_1" data-name="Ebene 1" xmlns="http://www.w3.org/2000/svg" viewBox="0 0 50 50"><defs><style>.cls-1{fill:#43536d;}</style></defs><title>icon-box-2</title><path class="cls-1" d="M42.5,3A4.51,4.51,0,0,1,47,7.5v35A4.51,4.51,0,0,1,42.5,47H7.5A4.51,4.51,0,0,1,3,42.5V7.5A4.51,4.51,0,0,1,7.5,3h35m0-.5H7.5a5,5,0,0,0-5,5v35a5,5,0,0,0,5,5h35a5,5,0,0,0,5-5V7.5a5,5,0,0,0-5-5Z"/><path class="cls-1" d="M38.73,18.49h-6.4v6.4h6.4Zm-5.42,6.08c.55-.59,1.25-1.13,1.19-2h-.72a2.85,2.85,0,0,0,1.13-1.77h-.6a6.9,6.9,0,0,0,1.32-2.17,4.56,4.56,0,0,0,1.22,2.21h-.68a6.35,6.35,0,0,0,1.19,1.83h-.87a4.42,4.42,0,0,0,1.45,1.86Z"/><path class="cls-1" d="M38.91,16.8H32.15a1.52,1.52,0,0,0-1.52,1.52v6.75a1.52,1.52,0,0,0,1.52,1.52h6.75a1.52,1.52,0,0,0,1.52-1.52V18.31A1.52,1.52,0,0,0,38.91,16.8Zm.68,9H31.47V17.63h8.12Z"/><rect class="cls-1" x="27.06" y="28.64" width="16.94" height="0.65" rx="0.33" ry="0.33"/><rect class="cls-1" x="27.06" y="32.55" width="16.94" height="0.65" rx="0.33" ry="0.33"/><rect class="cls-1" x="27.06" y="30.6" width="16.94" height="0.65" rx="0.33" ry="0.33"/><path class="cls-1" d="M17.67,18.49h-6.4v6.4h6.4Zm-5.42,6.08c.55-.59,1.25-1.13,1.19-2h-.72a2.85,2.85,0,0,0,1.13-1.77h-.6a6.9,6.9,0,0,0,1.32-2.17,4.56,4.56,0,0,0,1.22,2.21h-.68a6.35,6.35,0,0,0,1.19,1.83h-.87a4.42,4.42,0,0,0,1.45,1.86Z"/><path class="cls-1" d="M17.85,16.8H11.09a1.52,1.52,0,0,0-1.52,1.52v6.75a1.52,1.52,0,0,0,1.52,1.52h6.75a1.52,1.52,0,0,0,1.52-1.52V18.31A1.52,1.52,0,0,0,17.85,16.8Zm.68,9H10.41V17.63h8.12Z"/><rect class="cls-1" x="6" y="28.64" width="16.94" height="0.65" rx="0.33" ry="0.33"/><rect class="cls-1" x="6" y="32.55" width="16.94" height="0.65" rx="0.33" ry="0.33"/><rect class="cls-1" x="6" y="30.6" width="16.94" height="0.65" rx="0.33" ry="0.33"/></svg>