<svg xmlns="http://www.w3.org/2000/svg" viewBox="0 0 45 45"><defs><style>.cls-1{fill:#43536d;}</style></defs><title>icon-text-1-columns</title><g id="Textblock_Lauyout_1" data-name="Textblock Lauyout 1"><path class="cls-1" d="M37.658,25.818H12.342a.822.822,0,1,0,0,1.635H37.658a.822.822,0,1,0,0-1.635Z" transform="translate(-2.5 -2.5)"/><path class="cls-1" d="M37.658,29.088H12.342a.822.822,0,1,0,0,1.636H37.658a.822.822,0,1,0,0-1.636Z" transform="translate(-2.5 -2.5)"/><path class="cls-1" d="M37.658,22.547H12.342a.822.822,0,1,0,0,1.635H37.658a.822.822,0,1,0,0-1.635Z" transform="translate(-2.5 -2.5)"/><path class="cls-1" d="M12.342,20.912H37.658a.822.822,0,1,0,0-1.636H12.342a.822.822,0,1,0,0,1.636Z" transform="translate(-2.5 -2.5)"/></g><g id="Frame"><path class="cls-1" d="M42.5,3A4.505,4.505,0,0,1,47,7.5v35A4.505,4.505,0,0,1,42.5,47H7.5A4.505,4.505,0,0,1,3,42.5V7.5A4.505,4.505,0,0,1,7.5,3h35m0-.5H7.5a5.015,5.015,0,0,0-5,5v35a5.015,5.015,0,0,0,5,5h35a5.015,5.015,0,0,0,5-5V7.5a5.015,5.015,0,0,0-5-5Z" transform="translate(-2.5 -2.5)"/></g></svg>