<svg id="Slider_Nav_4" data-name="Slider Nav 4" xmlns="http://www.w3.org/2000/svg" viewBox="0 0 37.763 33.258"><defs><style>.cls-1,.cls-2{fill:#43536d;}.cls-2{fill-rule:evenodd;opacity:0.6;}</style></defs><title>icon-slide-both</title><path class="cls-1" d="M24.949,30.645a.858.858,0,1,1,.858-.858A.859.859,0,0,1,24.949,30.645Zm0-1.466a.608.608,0,1,0,.608.608A.608.608,0,0,0,24.949,29.179Z" transform="translate(-6.119 -8.992)"/><path class="cls-1" d="M22.018,28.929a.858.858,0,1,0,.857.858A.858.858,0,0,0,22.018,28.929Z" transform="translate(-6.119 -8.992)"/><path class="cls-1" d="M27.88,30.645a.858.858,0,1,1,.858-.858A.859.859,0,0,1,27.88,30.645Zm0-1.466a.608.608,0,1,0,.608.608A.608.608,0,0,0,27.88,29.179Z" transform="translate(-6.119 -8.992)"/><path class="cls-2" d="M8.624,8.992H41.375A2.514,2.514,0,0,1,43.881,11.5V32.222a2.513,2.513,0,0,1-2.506,2.5H29.5v5.434h.627a1.048,1.048,0,0,1,1.045,1.046h0a1.049,1.049,0,0,1-1.045,1.043H19.429a1.048,1.048,0,0,1-1.045-1.043h0a1.047,1.047,0,0,1,1.045-1.046H20.5V34.727H8.624a2.511,2.511,0,0,1-2.505-2.5V11.5A2.513,2.513,0,0,1,8.624,8.992Zm-1,1.722V32.8h34.65V10.714Z" transform="translate(-6.119 -8.992)"/><path class="cls-1" d="M7.623,16.605V26.911H42.274V16.605Zm4.75,7.371-.3.272-2.45-2.292,2.45-2.292.3.273-2.148,2.019Zm16.844.869a.519.519,0,0,1-.528.527H21.31a.516.516,0,0,1-.527-.527V18.671a.516.516,0,0,1,.527-.527h7.379a.519.519,0,0,1,.528.527Zm8.423-.6-.3-.272,2.148-2.02L37.34,19.937l.3-.273,2.45,2.292Z" transform="translate(-6.119 -8.992)"/><path class="cls-1" d="M28.369,18.746H21.631a.232.232,0,0,0-.245.226v4.894l2.371-2.861a.451.451,0,0,1,.32-.15.4.4,0,0,1,.32.131L25.414,22.1l.075.075a.381.381,0,0,0,.207.075.412.412,0,0,0,.226-.094l.338-.3a.428.428,0,0,1,.246-.094.305.305,0,0,1,.244.113l1.863,2V18.972C28.613,18.822,28.531,18.746,28.369,18.746Zm-.621,2.146a.91.91,0,1,1,.263-.64A.871.871,0,0,1,27.748,20.892Z" transform="translate(-6.119 -8.992)"/></svg>