<svg id="_3_Boxes" data-name="3 Boxes" xmlns="http://www.w3.org/2000/svg" viewBox="0 0 38 13.757"><defs><style>.cls-1{fill:#43536d;}</style></defs><title>icon-box-3</title><path class="cls-1" d="M15.739,30.972h-9.4c-.185,0-.336.2-.336.453s.151.453.336.453h9.4c.185,0,.335-.2.335-.453S15.924,30.972,15.739,30.972Z" transform="translate(-6 -18.122)"/><path class="cls-1" d="M15.739,29.159h-9.4c-.185,0-.336.2-.336.454s.151.453.336.453h9.4c.185,0,.335-.2.335-.453S15.924,29.159,15.739,29.159Z" transform="translate(-6 -18.122)"/><path class="cls-1" d="M6.336,28.253h9.4c.185,0,.335-.2.335-.453s-.15-.453-.335-.453h-9.4c-.185,0-.336.2-.336.453S6.151,28.253,6.336,28.253Z" transform="translate(-6 -18.122)"/><path class="cls-1" d="M14.746,18.122a.519.519,0,0,1,.53.529v6.207a.519.519,0,0,1-.53.529H7.328a.518.518,0,0,1-.53-.529V18.651a.518.518,0,0,1,.53-.529ZM12.8,21.868l1.873,2.005V18.954c0-.151-.082-.227-.245-.227H7.65a.233.233,0,0,0-.246.227v4.919L9.788,21a.453.453,0,0,1,.322-.152.4.4,0,0,1,.321.132L11.453,22.1l.076.076a.384.384,0,0,0,.208.075.417.417,0,0,0,.227-.094l.34-.3a.435.435,0,0,1,.247-.095A.3.3,0,0,1,12.8,21.868Zm1-.984a.913.913,0,1,1,.265-.643A.875.875,0,0,1,13.8,20.884Z" transform="translate(-6 -18.122)"/><path class="cls-1" d="M29.7,30.972H20.3c-.186,0-.336.2-.336.453s.15.453.336.453h9.4c.185,0,.336-.2.336-.453S29.886,30.972,29.7,30.972Z" transform="translate(-6 -18.122)"/><path class="cls-1" d="M29.7,29.159H20.3c-.186,0-.336.2-.336.454s.15.453.336.453h9.4c.185,0,.336-.2.336-.453S29.886,29.159,29.7,29.159Z" transform="translate(-6 -18.122)"/><path class="cls-1" d="M20.3,28.253h9.4c.185,0,.336-.2.336-.453s-.151-.453-.336-.453H20.3c-.186,0-.336.2-.336.453S20.113,28.253,20.3,28.253Z" transform="translate(-6 -18.122)"/><path class="cls-1" d="M28.709,18.122a.519.519,0,0,1,.53.529v6.207a.519.519,0,0,1-.53.529H21.291a.516.516,0,0,1-.53-.529V18.651a.516.516,0,0,1,.53-.529Zm-1.95,3.746,1.873,2.005V18.954c0-.151-.082-.227-.245-.227H21.613a.233.233,0,0,0-.246.227v4.919L23.751,21a.453.453,0,0,1,.322-.152.4.4,0,0,1,.321.132L25.416,22.1l.076.076a.381.381,0,0,0,.208.075.412.412,0,0,0,.226-.094l.341-.3a.432.432,0,0,1,.247-.095A.3.3,0,0,1,26.759,21.868Zm1-.984a.913.913,0,1,1,.265-.643A.872.872,0,0,1,27.762,20.884Z" transform="translate(-6 -18.122)"/><path class="cls-1" d="M43.664,30.972h-9.4c-.185,0-.335.2-.335.453s.15.453.335.453h9.4c.185,0,.336-.2.336-.453S43.849,30.972,43.664,30.972Z" transform="translate(-6 -18.122)"/><path class="cls-1" d="M43.664,29.159h-9.4c-.185,0-.335.2-.335.454s.15.453.335.453h9.4c.185,0,.336-.2.336-.453S43.849,29.159,43.664,29.159Z" transform="translate(-6 -18.122)"/><path class="cls-1" d="M34.261,28.253h9.4c.185,0,.336-.2.336-.453s-.151-.453-.336-.453h-9.4c-.185,0-.335.2-.335.453S34.076,28.253,34.261,28.253Z" transform="translate(-6 -18.122)"/><path class="cls-1" d="M42.671,18.122a.521.521,0,0,1,.531.529v6.207a.521.521,0,0,1-.531.529H35.254a.516.516,0,0,1-.53-.529V18.651a.516.516,0,0,1,.53-.529Zm-1.949,3.746L42.6,23.873V18.954c0-.151-.083-.227-.246-.227H35.576a.233.233,0,0,0-.246.227v4.919L37.713,21a.453.453,0,0,1,.322-.152.405.405,0,0,1,.322.132L39.379,22.1l.075.076a.387.387,0,0,0,.208.075.415.415,0,0,0,.227-.094l.341-.3a.432.432,0,0,1,.246-.095A.306.306,0,0,1,40.722,21.868Zm1-.984a.913.913,0,1,1,.265-.643A.875.875,0,0,1,41.725,20.884Z" transform="translate(-6 -18.122)"/></svg>