<svg xmlns="http://www.w3.org/2000/svg" viewBox="0 0 45 45"><defs><style>.cls-1{fill:#43536d;}</style></defs><title>icon-text-under</title><g id="Textblock_Lauyout_4" data-name="Textblock Lauyout 4"><path class="cls-1" d="M37.658,36.329H12.341a.822.822,0,1,0,0,1.636H37.658a.822.822,0,1,0,0-1.636Z" transform="translate(-2.5 -2.5)"/><path class="cls-1" d="M37.658,39.6H12.341a.822.822,0,1,0,0,1.635H37.658a.822.822,0,1,0,0-1.635Z" transform="translate(-2.5 -2.5)"/><path class="cls-1" d="M37.658,33.059H12.341a.822.822,0,1,0,0,1.635H37.658a.822.822,0,1,0,0-1.635Z" transform="translate(-2.5 -2.5)"/><path class="cls-1" d="M12.341,31.423H37.658a.822.822,0,1,0,0-1.635H12.341a.822.822,0,1,0,0,1.635Z" transform="translate(-2.5 -2.5)"/><path class="cls-1" d="M31.691,9.929a.938.938,0,0,1,.957.956v11.2a.938.938,0,0,1-.957.956H18.307a.933.933,0,0,1-.956-.956v-11.2a.933.933,0,0,1,.956-.956Zm-3.518,6.76,3.38,3.619V11.432c0-.273-.149-.411-.443-.411H18.888a.422.422,0,0,0-.444.411v8.876l4.3-5.189a.817.817,0,0,1,.581-.273.725.725,0,0,1,.58.238L25.75,17.1l.137.137a.688.688,0,0,0,.375.136.75.75,0,0,0,.409-.171l.615-.546a.776.776,0,0,1,.445-.171A.55.55,0,0,1,28.173,16.689Zm1.811-1.775a1.648,1.648,0,1,1,.478-1.161A1.579,1.579,0,0,1,29.984,14.914Z" transform="translate(-2.5 -2.5)"/></g><g id="Frame"><path class="cls-1" d="M42.5,3A4.505,4.505,0,0,1,47,7.5v35A4.505,4.505,0,0,1,42.5,47H7.5A4.505,4.505,0,0,1,3,42.5V7.5A4.505,4.505,0,0,1,7.5,3h35m0-.5H7.5a5.015,5.015,0,0,0-5,5v35a5.015,5.015,0,0,0,5,5h35a5.015,5.015,0,0,0,5-5V7.5a5.015,5.015,0,0,0-5-5Z" transform="translate(-2.5 -2.5)"/></g></svg>