<svg id="Textblock_Lauyout_2" data-name="Textblock Lauyout 2" xmlns="http://www.w3.org/2000/svg" viewBox="0 0 36 13.11"><defs><style>.cls-1{fill:#43536d;}</style></defs><title>icon-text-right</title><path class="cls-1" d="M42.394,25.818H25.427c-.334,0-.606.366-.606.817s.272.818.606.818H42.394c.334,0,.606-.367.606-.818S42.728,25.818,42.394,25.818Z" transform="translate(-7 -18.445)"/><path class="cls-1" d="M42.394,29.088H25.427c-.334,0-.606.367-.606.818s.272.818.606.818H42.394c.334,0,.606-.367.606-.818S42.728,29.088,42.394,29.088Z" transform="translate(-7 -18.445)"/><path class="cls-1" d="M42.394,22.547H25.427c-.334,0-.606.367-.606.818s.272.817.606.817H42.394c.334,0,.606-.366.606-.817S42.728,22.547,42.394,22.547Z" transform="translate(-7 -18.445)"/><path class="cls-1" d="M25.427,20.912H42.394c.334,0,.606-.367.606-.818s-.272-.818-.606-.818H25.427c-.334,0-.606.367-.606.818S25.093,20.912,25.427,20.912Z" transform="translate(-7 -18.445)"/><path class="cls-1" d="M21.34,18.445a.938.938,0,0,1,.957.956V30.6a.938.938,0,0,1-.957.956H7.956A.933.933,0,0,1,7,30.6V19.4a.933.933,0,0,1,.956-.956Zm-3.518,6.76,3.38,3.619V19.947c0-.273-.149-.41-.443-.41H8.537a.421.421,0,0,0-.444.41v8.877l4.3-5.19a.819.819,0,0,1,.581-.273.723.723,0,0,1,.58.239L15.4,25.615l.136.136a.694.694,0,0,0,.376.136.748.748,0,0,0,.409-.17l.615-.546A.776.776,0,0,1,17.38,25,.548.548,0,0,1,17.822,25.205Zm1.811-1.775a1.649,1.649,0,1,1,.478-1.161A1.579,1.579,0,0,1,19.633,23.43Z" transform="translate(-7 -18.445)"/></svg>