<svg xmlns="http://www.w3.org/2000/svg" viewBox="0 0 45 45"><defs><style>.cls-1,.cls-2{fill:#43536d;}.cls-1{fill-rule:evenodd;opacity:0.6;}</style></defs><title>icon-slide-arrows</title><g id="Slider_Nav_3" data-name="Slider Nav 3"><path class="cls-1" d="M8.624,8.992H41.375A2.514,2.514,0,0,1,43.881,11.5V32.222a2.513,2.513,0,0,1-2.506,2.5H29.5v5.434h.627a1.048,1.048,0,0,1,1.045,1.046h0a1.049,1.049,0,0,1-1.045,1.043H19.429a1.048,1.048,0,0,1-1.045-1.043h0a1.047,1.047,0,0,1,1.045-1.046H20.5V34.727H8.624a2.511,2.511,0,0,1-2.505-2.5V11.5A2.513,2.513,0,0,1,8.624,8.992Zm-1,1.722V32.8h34.65V10.714Z" transform="translate(-2.5 -2.5)"/><path class="cls-2" d="M28.369,18.746H21.631a.232.232,0,0,0-.245.226v4.894l2.371-2.861a.451.451,0,0,1,.32-.15.4.4,0,0,1,.32.131L25.414,22.1l.075.075a.381.381,0,0,0,.207.075.412.412,0,0,0,.226-.094l.338-.3a.428.428,0,0,1,.246-.094.305.305,0,0,1,.244.113l1.863,2V18.972C28.613,18.822,28.531,18.746,28.369,18.746Zm-.621,2.146a.91.91,0,1,1,.263-.64A.871.871,0,0,1,27.748,20.892Z" transform="translate(-2.5 -2.5)"/><path class="cls-2" d="M7.623,16.605V26.911H42.274V16.605Zm4.75,7.371-.3.272-2.45-2.292,2.45-2.292.3.273-2.148,2.019Zm16.844.869a.519.519,0,0,1-.528.527H21.31a.516.516,0,0,1-.527-.527V18.671a.516.516,0,0,1,.527-.527h7.379a.519.519,0,0,1,.528.527Zm8.423-.6-.3-.272,2.148-2.02L37.34,19.937l.3-.273,2.45,2.292Z" transform="translate(-2.5 -2.5)"/></g><g id="Frame"><path class="cls-2" d="M42.5,3A4.505,4.505,0,0,1,47,7.5v35A4.505,4.505,0,0,1,42.5,47H7.5A4.505,4.505,0,0,1,3,42.5V7.5A4.505,4.505,0,0,1,7.5,3h35m0-.5H7.5a5.015,5.015,0,0,0-5,5v35a5.015,5.015,0,0,0,5,5h35a5.015,5.015,0,0,0,5-5V7.5a5.015,5.015,0,0,0-5-5Z" transform="translate(-2.5 -2.5)"/></g></svg>