<svg id="Calque_1" data-name="Calque 1" xmlns="http://www.w3.org/2000/svg" width="13.3216mm" height="11.7327mm" viewBox="0 0 37.762 33.258"><defs><style>.cls-1,.cls-2{fill:#43536d;}.cls-1{opacity:0.6;}.cls-1,.cls-3{isolation:isolate;}.cls-4{fill:#fff;}</style></defs><title>icon-text-center-left</title><path class="cls-1" d="M2.505,0H35.256a2.514,2.514,0,0,1,2.506,2.508V23.229a2.513,2.513,0,0,1-2.506,2.505H23.381v5.435h.627a1.0481,1.0481,0,0,1,1.045,1.046h0a1.049,1.049,0,0,1-1.045,1.043H13.31a1.0479,1.0479,0,0,1-1.045-1.043h0a1.047,1.047,0,0,1,1.045-1.046h1.071V25.735H2.505A2.511,2.511,0,0,1,0,23.229V2.508A2.513,2.513,0,0,1,2.505,0Zm-1,1.722V23.81h34.65V1.722Z"/><path class="cls-2" d="M23.853,8.341h-9.8a.338.338,0,0,0-.3556.3194l0,.0086v7.114l3.451-4.154a.6579.6579,0,0,1,.466-.218.5809.5809,0,0,1,.465.191l1.478,1.615.109.109a.5556.5556,0,0,0,.3.109.6.6,0,0,0,.328-.137l.493-.437a.6178.6178,0,0,1,.356-.137.442.442,0,0,1,.355.164l2.709,2.9V8.669C24.208,8.451,24.089,8.341,23.853,8.341Zm-.9,3.119a1.3211,1.3211,0,1,1,.383-.93,1.2648,1.2648,0,0,1-.386.93Z"/><path class="cls-2" d="M1.556,1.675V23.763h34.65V1.675ZM25.081,17.207a.752.752,0,0,1-.7377.766c-.0095,0-.0189,0-.0283,0H13.591a.748.748,0,0,1-.766-.73c0-.0121,0-.0243,0-.0364V8.229a.748.748,0,0,1,.73-.766c.0121,0,.0243,0,.0364,0H24.319a.752.752,0,0,1,.766.7377c0,.01,0,.0189,0,.0283Z"/><g class="cls-3"><g class="cls-3"><path class="cls-4" d="M2.2746,11.56h.3481v2.4024H3.7741v.292H2.2746Z"/></g><g class="cls-3"><path class="cls-4" d="M5.8458,13.2709a.9453.9453,0,0,1-.9633,1.0273.92.92,0,0,1-.9278-.9951.9444.9444,0,0,1,.96-1.0273A.916.916,0,0,1,5.8458,13.2709Zm-1.5351.02c0,.4238.2436.7441.5874.7441.3359,0,.5879-.3164.5879-.7519,0-.3272-.1641-.7432-.58-.7432S4.3107,12.9232,4.3107,13.29Z"/></g><g class="cls-3"><path class="cls-4" d="M6.2912,12.9232c0-.2285-.0039-.4238-.0162-.6035h.3077l.0122.38H6.611a.5793.5793,0,0,1,.5356-.4238.3846.3846,0,0,1,.1.0117v.332a.4793.4793,0,0,0-.12-.0127.4939.4939,0,0,0-.4717.4522.9517.9517,0,0,0-.0161.164v1.0313H6.2912Z"/></g><g class="cls-3"><path class="cls-4" d="M7.755,13.351a.62.62,0,0,0,.6631.6718,1.2605,1.2605,0,0,0,.5361-.1006l.06.252a1.5715,1.5715,0,0,1-.6435.12.8983.8983,0,0,1-.9512-.9756.9386.9386,0,0,1,.9072-1.0429.82.82,0,0,1,.8.9111,1.3613,1.3613,0,0,1-.0117.1641Zm1.0313-.252a.5008.5008,0,0,0-.4883-.5713.5818.5818,0,0,0-.5391.5713Z"/><path class="cls-4" d="M9.5626,12.8431c0-.2-.0039-.3642-.0156-.5234h.3076l.0157.3115H9.883a.6655.6655,0,0,1,.6074-.3554.5714.5714,0,0,1,.5478.3877h.0078a.7824.7824,0,0,1,.2159-.252.6614.6614,0,0,1,.4277-.1357c.2559,0,.6357.1679.6357.8388v1.14h-.3437V13.1586c0-.3711-.1358-.5957-.42-.5957a.4567.4567,0,0,0-.4161.32.5882.5882,0,0,0-.0273.1758v1.1953h-.3447V13.0951c0-.3076-.1358-.5322-.4033-.5322a.48.48,0,0,0-.4356.3525.471.471,0,0,0-.0283.1719v1.167H9.5626Z"/><path class="cls-4" d="M14.1388,11.7758a.2178.2178,0,0,1-.4355,0,.2141.2141,0,0,1,.22-.22A.2087.2087,0,0,1,14.1388,11.7758Zm-.3916,2.4785V12.32h.3516v1.9346Z"/><path class="cls-4" d="M14.6828,12.9506c0-.2471-.0079-.4473-.0157-.6309h.3155l.0156.3311h.0088a.76.76,0,0,1,.6875-.375.8762.8762,0,0,1,.8193.9834.9156.9156,0,0,1-.88,1.039.68.68,0,0,1-.5957-.3037H15.03v1.0518h-.3476Zm.3476.5166a.7226.7226,0,0,0,.0166.1435.5419.5419,0,0,0,.5274.4121c.372,0,.5879-.3047.5879-.748,0-.3877-.2042-.72-.5762-.72a.5609.5609,0,0,0-.5313.4355.59.59,0,0,0-.0244.1445Z"/><path class="cls-4" d="M16.91,13.8949a.93.93,0,0,0,.4639.14c.2558,0,.3759-.1279.3759-.288,0-.168-.1-.26-.3593-.3555-.3477-.124-.5118-.3164-.5118-.5479a.5965.5965,0,0,1,.667-.5673.975.975,0,0,1,.4766.1191l-.0889.2559a.7514.7514,0,0,0-.3955-.1114c-.208,0-.3232.12-.3232.2637,0,.16.1152.2314.3672.3281.3359.128.5078.2959.5078.583,0,.34-.2637.58-.7236.58a1.105,1.105,0,0,1-.544-.1318Z"/><path class="cls-4" d="M20.1623,13.7269c0,.1992.0039.375.0156.5274h-.3115l-.0206-.3155H19.838a.7289.7289,0,0,1-.64.3594c-.3037,0-.668-.168-.668-.8476V12.32h.3526V13.391c0,.3672.1113.6152.4316.6152a.5106.5106,0,0,0,.4639-.3193.5315.5315,0,0,0,.0312-.1807V12.32h.3526Z"/><path class="cls-4" d="M20.7472,12.8431c0-.2-.0049-.3642-.0166-.5234h.3076l.0166.3115h.0117a.6679.6679,0,0,1,.6075-.3554.57.57,0,0,1,.5478.3877H22.23a.8075.8075,0,0,1,.2159-.252.6614.6614,0,0,1,.4277-.1357c.2558,0,.6357.1679.6357.8388v1.14h-.3437V13.1586c0-.3711-.1358-.5957-.42-.5957a.4553.4553,0,0,0-.4151.32.5567.5567,0,0,0-.0283.1758v1.1953h-.3438V13.0951c0-.3076-.1357-.5322-.4033-.5322a.481.481,0,0,0-.4365.3525.4929.4929,0,0,0-.0273.1719v1.167h-.3438Z"/></g></g></svg>