<svg xmlns="http://www.w3.org/2000/svg" viewBox="0 0 45 45"><defs><style>.cls-1{fill:#43536d;}.cls-2{fill:#fff;}</style></defs><title>icon-parent-2-columns</title><g id="Parentblock_2_Cols" data-name="Parentblock 2 Cols"><rect class="cls-1" x="25.798" y="8.454" width="15.904" height="13.091"/><path class="cls-1" d="M25.261,42.708V7.292c0-.107-.117-.194-.261-.194s-.261.087-.261.194V42.708c0,.107.117.194.261.194S25.261,42.815,25.261,42.708Z" transform="translate(-2.5 -2.5)"/><path class="cls-2" d="M41.029,12.817a.671.671,0,0,1,.684.683v8a.671.671,0,0,1-.684.683H31.47a.666.666,0,0,1-.683-.683v-8a.666.666,0,0,1,.683-.683Zm-2.512,4.828,2.414,2.585V13.89c0-.2-.107-.293-.317-.293H31.885a.3.3,0,0,0-.317.293v6.34l3.072-3.706a.582.582,0,0,1,.415-.2.518.518,0,0,1,.414.17l1.317,1.439.1.1a.484.484,0,0,0,.268.1.539.539,0,0,0,.292-.122l.439-.39A.552.552,0,0,1,38.2,17.5.394.394,0,0,1,38.517,17.645Zm1.293-1.268a1.178,1.178,0,1,1,.341-.829A1.128,1.128,0,0,1,39.81,16.377Z" transform="translate(-2.5 -2.5)"/><path class="cls-1" d="M22.233,34.15H5.267c-.334,0-.606.367-.606.818s.272.817.606.817H22.233c.334,0,.606-.366.606-.817S22.567,34.15,22.233,34.15Z" transform="translate(-2.5 -2.5)"/><path class="cls-1" d="M22.233,37.421H5.267c-.334,0-.606.367-.606.817s.272.818.606.818H22.233c.334,0,.606-.367.606-.818S22.567,37.421,22.233,37.421Z" transform="translate(-2.5 -2.5)"/><path class="cls-1" d="M22.233,30.879H5.267c-.334,0-.606.367-.606.818s.272.818.606.818H22.233c.334,0,.606-.367.606-.818S22.567,30.879,22.233,30.879Z" transform="translate(-2.5 -2.5)"/><path class="cls-1" d="M5.267,29.244H22.233c.334,0,.606-.367.606-.818s-.272-.817-.606-.817H5.267c-.334,0-.606.366-.606.817S4.933,29.244,5.267,29.244Z" transform="translate(-2.5 -2.5)"/><path class="cls-1" d="M20.442,10.944a.938.938,0,0,1,.956.956V23.1a.938.938,0,0,1-.956.956H7.057A.931.931,0,0,1,6.1,23.1V11.9a.931.931,0,0,1,.955-.956ZM16.924,17.7l3.38,3.619V12.446c0-.273-.149-.41-.443-.41H7.638a.422.422,0,0,0-.444.41v8.877l4.3-5.19a.822.822,0,0,1,.581-.273.726.726,0,0,1,.581.239L14.5,18.114l.136.136a.688.688,0,0,0,.376.136.75.75,0,0,0,.409-.17l.614-.546a.781.781,0,0,1,.445-.171A.548.548,0,0,1,16.924,17.7Zm1.81-1.775a1.647,1.647,0,1,1,.479-1.162A1.582,1.582,0,0,1,18.734,15.929Z" transform="translate(-2.5 -2.5)"/><path class="cls-1" d="M36.25,28.045a.858.858,0,1,1,.858-.857A.859.859,0,0,1,36.25,28.045Zm0-1.466a.608.608,0,1,0,.608.609A.609.609,0,0,0,36.25,26.579Z" transform="translate(-2.5 -2.5)"/><path class="cls-1" d="M33.319,26.329a.858.858,0,1,0,.858.859A.859.859,0,0,0,33.319,26.329Z" transform="translate(-2.5 -2.5)"/><path class="cls-1" d="M39.181,28.045a.858.858,0,1,1,.858-.857A.859.859,0,0,1,39.181,28.045Zm0-1.466a.608.608,0,1,0,.608.609A.609.609,0,0,0,39.181,26.579Z" transform="translate(-2.5 -2.5)"/></g><g id="Frame"><path class="cls-1" d="M42.5,3A4.505,4.505,0,0,1,47,7.5v35A4.505,4.505,0,0,1,42.5,47H7.5A4.505,4.505,0,0,1,3,42.5V7.5A4.505,4.505,0,0,1,7.5,3h35m0-.5H7.5a5.015,5.015,0,0,0-5,5v35a5.015,5.015,0,0,0,5,5h35a5.015,5.015,0,0,0,5-5V7.5a5.015,5.015,0,0,0-5-5Z" transform="translate(-2.5 -2.5)"/></g></svg>