<svg xmlns="http://www.w3.org/2000/svg" viewBox="0 0 45 45"><defs><style>.cls-1,.cls-2{fill:#43536d;}.cls-2{fill-rule:evenodd;opacity:0.6;}.cls-3{fill:#fff;}</style></defs><title>icon-slide-contained</title><g id="Width_1" data-name="Width 1"><rect class="cls-1" x="12.21" y="14.105" width="20.478" height="10.307"/><path class="cls-2" d="M8.624,8.992H41.375A2.514,2.514,0,0,1,43.881,11.5V32.222a2.513,2.513,0,0,1-2.506,2.5H29.5v5.434h.627a1.048,1.048,0,0,1,1.045,1.046h0a1.049,1.049,0,0,1-1.045,1.043H19.429a1.048,1.048,0,0,1-1.045-1.043h0a1.047,1.047,0,0,1,1.045-1.046H20.5V34.727H8.624a2.511,2.511,0,0,1-2.505-2.5V11.5A2.513,2.513,0,0,1,8.624,8.992Zm-1,1.722V32.8h34.65V10.714Z" transform="translate(-2.5 -2.5)"/><path class="cls-3" d="M28.689,18.144a.519.519,0,0,1,.528.527v6.174a.519.519,0,0,1-.528.527H21.31a.516.516,0,0,1-.527-.527V18.671a.516.516,0,0,1,.527-.527ZM26.75,21.871l1.863,2V18.972c0-.15-.082-.226-.244-.226H21.631a.232.232,0,0,0-.245.226v4.894l2.371-2.861a.451.451,0,0,1,.32-.15.4.4,0,0,1,.32.131L25.414,22.1l.075.075a.381.381,0,0,0,.207.075.412.412,0,0,0,.226-.094l.338-.3a.428.428,0,0,1,.246-.094A.305.305,0,0,1,26.75,21.871Zm1-.979a.909.909,0,1,1,.263-.64A.872.872,0,0,1,27.748,20.892Z" transform="translate(-2.5 -2.5)"/></g><g id="Frame"><path class="cls-1" d="M42.5,3A4.505,4.505,0,0,1,47,7.5v35A4.505,4.505,0,0,1,42.5,47H7.5A4.505,4.505,0,0,1,3,42.5V7.5A4.505,4.505,0,0,1,7.5,3h35m0-.5H7.5a5.015,5.015,0,0,0-5,5v35a5.015,5.015,0,0,0,5,5h35a5.015,5.015,0,0,0,5-5V7.5a5.015,5.015,0,0,0-5-5Z" transform="translate(-2.5 -2.5)"/></g></svg>