<svg id="_4_Boxes" data-name="4 Boxes" xmlns="http://www.w3.org/2000/svg" viewBox="0 0 40 11.944"><defs><style>.cls-1{fill:#43536d;}</style></defs><title>icon-box-4</title><path class="cls-1" d="M13.455,30.185H5.292c-.161,0-.292.177-.292.394s.131.393.292.393h8.163c.161,0,.292-.176.292-.393S13.616,30.185,13.455,30.185Z" transform="translate(-5 -19.028)"/><path class="cls-1" d="M13.455,28.611H5.292c-.161,0-.292.177-.292.394s.131.393.292.393h8.163c.161,0,.292-.176.292-.393S13.616,28.611,13.455,28.611Z" transform="translate(-5 -19.028)"/><path class="cls-1" d="M5.292,27.824h8.163c.161,0,.292-.176.292-.393s-.131-.393-.292-.393H5.292c-.161,0-.292.176-.292.393S5.131,27.824,5.292,27.824Z" transform="translate(-5 -19.028)"/><path class="cls-1" d="M12.593,19.028a.451.451,0,0,1,.461.46v5.388a.446.446,0,0,1-.133.329.441.441,0,0,1-.328.131H6.153a.449.449,0,0,1-.46-.46V19.488a.449.449,0,0,1,.46-.46ZM10.9,22.281l1.626,1.741V19.751c0-.131-.072-.2-.213-.2H6.433a.2.2,0,0,0-.214.2v4.271l2.07-2.5a.392.392,0,0,1,.279-.131.348.348,0,0,1,.279.114l.888.97.065.066a.339.339,0,0,0,.181.065.359.359,0,0,0,.2-.082l.3-.263a.37.37,0,0,1,.214-.082A.265.265,0,0,1,10.9,22.281Zm.871-.854a.794.794,0,1,1,.23-.559A.761.761,0,0,1,11.772,21.427Z" transform="translate(-5 -19.028)"/><path class="cls-1" d="M23.873,30.185H15.709c-.161,0-.291.177-.291.394s.13.393.291.393h8.164c.161,0,.292-.176.292-.393S24.034,30.185,23.873,30.185Z" transform="translate(-5 -19.028)"/><path class="cls-1" d="M23.873,28.611H15.709c-.161,0-.291.177-.291.394s.13.393.291.393h8.164c.161,0,.292-.176.292-.393S24.034,28.611,23.873,28.611Z" transform="translate(-5 -19.028)"/><path class="cls-1" d="M15.709,27.824h8.164c.161,0,.292-.176.292-.393s-.131-.393-.292-.393H15.709c-.161,0-.291.176-.291.393S15.548,27.824,15.709,27.824Z" transform="translate(-5 -19.028)"/><path class="cls-1" d="M23.011,19.028a.451.451,0,0,1,.46.46v5.388a.451.451,0,0,1-.46.46h-6.44a.448.448,0,0,1-.46-.46V19.488a.448.448,0,0,1,.46-.46Zm-1.693,3.253,1.627,1.741V19.751c0-.131-.072-.2-.213-.2H16.85a.2.2,0,0,0-.213.2v4.271l2.069-2.5a.4.4,0,0,1,.28-.131.35.35,0,0,1,.279.114l.887.97.066.066a.339.339,0,0,0,.181.065.362.362,0,0,0,.2-.082l.295-.263a.375.375,0,0,1,.214-.082A.263.263,0,0,1,21.318,22.281Zm.871-.854a.792.792,0,1,1,.231-.559A.76.76,0,0,1,22.189,21.427Z" transform="translate(-5 -19.028)"/><path class="cls-1" d="M34.291,30.185H26.127c-.161,0-.292.177-.292.394s.131.393.292.393h8.164c.16,0,.291-.176.291-.393S34.451,30.185,34.291,30.185Z" transform="translate(-5 -19.028)"/><path class="cls-1" d="M34.291,28.611H26.127c-.161,0-.292.177-.292.394s.131.393.292.393h8.164c.16,0,.291-.176.291-.393S34.451,28.611,34.291,28.611Z" transform="translate(-5 -19.028)"/><path class="cls-1" d="M26.127,27.824h8.164c.16,0,.291-.176.291-.393s-.131-.393-.291-.393H26.127c-.161,0-.292.176-.292.393S25.966,27.824,26.127,27.824Z" transform="translate(-5 -19.028)"/><path class="cls-1" d="M33.429,19.028a.451.451,0,0,1,.46.46v5.388a.451.451,0,0,1-.46.46H26.988a.448.448,0,0,1-.459-.46V19.488a.448.448,0,0,1,.459-.46Zm-1.693,3.253,1.626,1.741V19.751c0-.131-.071-.2-.213-.2H27.268a.2.2,0,0,0-.214.2v4.271l2.07-2.5a.4.4,0,0,1,.28-.131.35.35,0,0,1,.279.114l.887.97.066.066a.334.334,0,0,0,.18.065.357.357,0,0,0,.2-.082l.3-.263a.372.372,0,0,1,.214-.082A.265.265,0,0,1,31.736,22.281Zm.871-.854a.794.794,0,1,1,.23-.559A.76.76,0,0,1,32.607,21.427Z" transform="translate(-5 -19.028)"/><path class="cls-1" d="M44.708,30.185H36.545c-.161,0-.292.177-.292.394s.131.393.292.393h8.163c.161,0,.292-.176.292-.393S44.869,30.185,44.708,30.185Z" transform="translate(-5 -19.028)"/><path class="cls-1" d="M44.708,28.611H36.545c-.161,0-.292.177-.292.394s.131.393.292.393h8.163c.161,0,.292-.176.292-.393S44.869,28.611,44.708,28.611Z" transform="translate(-5 -19.028)"/><path class="cls-1" d="M36.545,27.824h8.163c.161,0,.292-.176.292-.393s-.131-.393-.292-.393H36.545c-.161,0-.292.176-.292.393S36.384,27.824,36.545,27.824Z" transform="translate(-5 -19.028)"/><path class="cls-1" d="M43.846,19.028a.451.451,0,0,1,.461.46v5.388a.446.446,0,0,1-.133.329.441.441,0,0,1-.328.131h-6.44a.449.449,0,0,1-.46-.46V19.488a.449.449,0,0,1,.46-.46Zm-1.692,3.253,1.626,1.741V19.751c0-.131-.072-.2-.213-.2H37.686a.2.2,0,0,0-.214.2v4.271l2.07-2.5a.392.392,0,0,1,.279-.131.348.348,0,0,1,.279.114l.888.97.065.066a.339.339,0,0,0,.181.065.359.359,0,0,0,.2-.082l.3-.263a.37.37,0,0,1,.214-.082A.265.265,0,0,1,42.154,22.281Zm.871-.854a.794.794,0,1,1,.23-.559A.761.761,0,0,1,43.025,21.427Z" transform="translate(-5 -19.028)"/></svg>