<svg xmlns="http://www.w3.org/2000/svg" viewBox="0 0 45 45"><defs><style>.cls-1,.cls-2{fill:#43536d;}.cls-1{stroke:#43536d;stroke-miterlimit:10;}</style></defs><title>icon-text-5-columns</title><g id="Text_5_Cols" data-name="Text 5 Cols"><rect class="cls-1" x="3.5" y="14" width="6" height="1" rx="0.25" ry="0.25"/><rect class="cls-1" x="3.5" y="26" width="6" height="1" rx="0.25" ry="0.25"/><rect class="cls-1" x="3.5" y="30" width="6" height="1" rx="0.25" ry="0.25"/><rect class="cls-1" x="3.5" y="22" width="6" height="1" rx="0.25" ry="0.25"/><rect class="cls-1" x="3.5" y="18" width="6" height="1" rx="0.25" ry="0.25"/><rect class="cls-1" x="11.5" y="14" width="6" height="1" rx="0.25" ry="0.25"/><rect class="cls-1" x="11.5" y="26" width="6" height="1" rx="0.25" ry="0.25"/><rect class="cls-1" x="11.5" y="30" width="6" height="1" rx="0.25" ry="0.25"/><rect class="cls-1" x="11.5" y="22" width="6" height="1" rx="0.25" ry="0.25"/><rect class="cls-1" x="11.5" y="18" width="6" height="1" rx="0.25" ry="0.25"/><rect class="cls-1" x="19.5" y="14" width="6" height="1" rx="0.25" ry="0.25"/><rect class="cls-1" x="19.5" y="26" width="6" height="1" rx="0.25" ry="0.25"/><rect class="cls-1" x="19.5" y="30" width="6" height="1" rx="0.25" ry="0.25"/><rect class="cls-1" x="19.5" y="22" width="6" height="1" rx="0.25" ry="0.25"/><rect class="cls-1" x="19.5" y="18" width="6" height="1" rx="0.25" ry="0.25"/><rect class="cls-1" x="27.5" y="14" width="6" height="1" rx="0.25" ry="0.25"/><rect class="cls-1" x="27.5" y="26" width="6" height="1" rx="0.25" ry="0.25"/><rect class="cls-1" x="27.5" y="30" width="6" height="1" rx="0.25" ry="0.25"/><rect class="cls-1" x="27.5" y="22" width="6" height="1" rx="0.25" ry="0.25"/><rect class="cls-1" x="27.5" y="18" width="6" height="1" rx="0.25" ry="0.25"/><rect class="cls-1" x="35.5" y="14" width="6" height="1" rx="0.25" ry="0.25"/><rect class="cls-1" x="35.5" y="26" width="6" height="1" rx="0.25" ry="0.25"/><rect class="cls-1" x="35.5" y="30" width="6" height="1" rx="0.25" ry="0.25"/><rect class="cls-1" x="35.5" y="22" width="6" height="1" rx="0.25" ry="0.25"/><rect class="cls-1" x="35.5" y="18" width="6" height="1" rx="0.25" ry="0.25"/></g><g id="Frame"><path class="cls-2" d="M42.5,3A4.505,4.505,0,0,1,47,7.5v35A4.505,4.505,0,0,1,42.5,47H7.5A4.505,4.505,0,0,1,3,42.5V7.5A4.505,4.505,0,0,1,7.5,3h35m0-.5H7.5a5.015,5.015,0,0,0-5,5v35a5.015,5.015,0,0,0,5,5h35a5.015,5.015,0,0,0,5-5V7.5a5.015,5.015,0,0,0-5-5Z" transform="translate(-2.5 -2.5)"/></g></svg>