<svg id="Ebene_1" data-name="Ebene 1" xmlns="http://www.w3.org/2000/svg" viewBox="0 0 50 50"><defs><style>.cls-1{fill:#43536d;}.cls-2{fill:#fff;}</style></defs><title>icon-text-under</title><path class="cls-1" d="M42.5,3A4.51,4.51,0,0,1,47,7.5v35A4.51,4.51,0,0,1,42.5,47H7.5A4.51,4.51,0,0,1,3,42.5V7.5A4.51,4.51,0,0,1,7.5,3h35m0-.5H7.5a5,5,0,0,0-5,5v35a5,5,0,0,0,5,5h35a5,5,0,0,0,5-5V7.5a5,5,0,0,0-5-5Z"/><path class="cls-2" d="M12.5,29.67a.5.5,0,1,1,0-1h25a.5.5,0,0,1,0,1Z"/><path class="cls-1" d="M37.5,28.17h-25a1,1,0,0,0,0,2h25a1,1,0,0,0,0-2Z"/><path class="cls-2" d="M12.5,34.67a.5.5,0,0,1,0-1h25a.5.5,0,0,1,0,1Z"/><path class="cls-1" d="M37.5,33.17h-25a1,1,0,0,0,0,2h25a1,1,0,0,0,0-2Z"/><path class="cls-2" d="M12.5,39.67a.5.5,0,0,1,0-1h25a.5.5,0,0,1,0,1Z"/><path class="cls-1" d="M37.5,38.17h-25a1,1,0,0,0,0,2h25a1,1,0,0,0,0-2Z"/><path class="cls-1" d="M29.91,12.42H20.09v9.82h9.82ZM21.6,21.75c.84-.91,1.91-1.73,1.83-3H22.32A4.37,4.37,0,0,0,24,16h-.92a10.59,10.59,0,0,0,2-3.33A7,7,0,0,0,27,16.09H26a9.74,9.74,0,0,0,1.83,2.82H26.47a6.78,6.78,0,0,0,2.22,2.85Z"/><path class="cls-1" d="M30.18,9.83H19.82a2.33,2.33,0,0,0-2.33,2.33V22.52a2.33,2.33,0,0,0,2.33,2.33H30.18a2.33,2.33,0,0,0,2.33-2.33V12.15A2.33,2.33,0,0,0,30.18,9.83Zm1.05,13.74H18.77V11.1H31.23Z"/></svg>