<svg id="Ebene_1" data-name="Ebene 1" xmlns="http://www.w3.org/2000/svg" viewBox="0 0 45 45"><defs><style>.cls-1{fill:#43536d;}</style></defs><title>icon-slide-large</title><path class="cls-1" d="M42.5,3A4.51,4.51,0,0,1,47,7.5v35A4.51,4.51,0,0,1,42.5,47H7.5A4.51,4.51,0,0,1,3,42.5V7.5A4.51,4.51,0,0,1,7.5,3h35m0-.5H7.5a5,5,0,0,0-5,5v35a5,5,0,0,0,5,5h35a5,5,0,0,0,5-5V7.5a5,5,0,0,0-5-5Z" transform="translate(-2.5 -2.5)"/><path class="cls-1" d="M29.91,20.09H20.09v9.82h9.82ZM21.6,29.42c.84-.91,1.91-1.73,1.83-3H22.32A4.37,4.37,0,0,0,24,23.69h-.92a10.59,10.59,0,0,0,2-3.33A7,7,0,0,0,27,23.75H26a9.74,9.74,0,0,0,1.83,2.82H26.47a6.78,6.78,0,0,0,2.22,2.85Z" transform="translate(-2.5 -2.5)"/><path class="cls-1" d="M40.19,11.12H9.81C6.05,11.12,3,13,3,15.42V34.58c0,2.37,3.05,4.3,6.81,4.3H40.19c3.76,0,6.81-1.93,6.81-4.3V15.42C47,13,43.95,11.12,40.19,11.12Zm3.08,25.4H6.73v-23H43.26Z" transform="translate(-2.5 -2.5)"/></svg>