<svg id="Text_4_Cols" data-name="Text 4 Cols" xmlns="http://www.w3.org/2000/svg" viewBox="0 0 42 18"><defs><style>.cls-1{fill:#43536d;stroke:#43536d;stroke-miterlimit:10;}</style></defs><title>icon-text-4-columns</title><rect class="cls-1" x="0.5" y="0.5" width="8" height="1" rx="0.5" ry="0.5"/><rect class="cls-1" x="0.5" y="12.5" width="8" height="1" rx="0.5" ry="0.5"/><rect class="cls-1" x="0.5" y="16.5" width="8" height="1" rx="0.5" ry="0.5"/><rect class="cls-1" x="0.5" y="8.5" width="8" height="1" rx="0.5" ry="0.5"/><rect class="cls-1" x="0.5" y="4.5" width="8" height="1" rx="0.5" ry="0.5"/><rect class="cls-1" x="11.5" y="0.5" width="8" height="1" rx="0.5" ry="0.5"/><rect class="cls-1" x="11.5" y="12.5" width="8" height="1" rx="0.5" ry="0.5"/><rect class="cls-1" x="11.5" y="16.5" width="8" height="1" rx="0.5" ry="0.5"/><rect class="cls-1" x="11.5" y="8.5" width="8" height="1" rx="0.5" ry="0.5"/><rect class="cls-1" x="11.5" y="4.5" width="8" height="1" rx="0.5" ry="0.5"/><rect class="cls-1" x="22.5" y="0.5" width="8" height="1" rx="0.5" ry="0.5"/><rect class="cls-1" x="22.5" y="12.5" width="8" height="1" rx="0.5" ry="0.5"/><rect class="cls-1" x="22.5" y="16.5" width="8" height="1" rx="0.5" ry="0.5"/><rect class="cls-1" x="22.5" y="8.5" width="8" height="1" rx="0.5" ry="0.5"/><rect class="cls-1" x="22.5" y="4.5" width="8" height="1" rx="0.5" ry="0.5"/><rect class="cls-1" x="33.5" y="0.5" width="8" height="1" rx="0.5" ry="0.5"/><rect class="cls-1" x="33.5" y="12.5" width="8" height="1" rx="0.5" ry="0.5"/><rect class="cls-1" x="33.5" y="16.5" width="8" height="1" rx="0.5" ry="0.5"/><rect class="cls-1" x="33.5" y="8.5" width="8" height="1" rx="0.5" ry="0.5"/><rect class="cls-1" x="33.5" y="4.5" width="8" height="1" rx="0.5" ry="0.5"/></svg>