<svg id="Ebene_1" data-name="Ebene 1" xmlns="http://www.w3.org/2000/svg" viewBox="0 0 50 50"><defs><style>.cls-1{fill:#43536d;}</style></defs><title>icon-box-3</title><path class="cls-1" d="M42.5,3A4.51,4.51,0,0,1,47,7.5v35A4.51,4.51,0,0,1,42.5,47H7.5A4.51,4.51,0,0,1,3,42.5V7.5A4.51,4.51,0,0,1,7.5,3h35m0-.5H7.5a5,5,0,0,0-5,5v35a5,5,0,0,0,5,5h35a5,5,0,0,0,5-5V7.5a5,5,0,0,0-5-5Z"/><path class="cls-1" d="M27.11,20.7H22.89v4.23h4.23Zm-3.58,4c.36-.39.82-.74.79-1.3h-.48a1.88,1.88,0,0,0,.74-1.17h-.39a4.56,4.56,0,0,0,.87-1.44,3,3,0,0,0,.8,1.46h-.45a4.19,4.19,0,0,0,.79,1.21h-.58a2.92,2.92,0,0,0,1,1.23Z"/><path class="cls-1" d="M27.23,19.58H22.77a1,1,0,0,0-1,1V25a1,1,0,0,0,1,1h4.46a1,1,0,0,0,1-1V20.58A1,1,0,0,0,27.23,19.58Zm.45,5.92H22.32V20.13h5.37Z"/><rect class="cls-1" x="19.4" y="27.41" width="11.19" height="0.43"/><rect class="cls-1" x="19.4" y="29.99" width="11.19" height="0.43"/><rect class="cls-1" x="19.4" y="28.7" width="11.19" height="0.43"/><path class="cls-1" d="M42,20.7H37.79v4.23H42Zm-3.58,4c.36-.39.82-.74.79-1.3h-.48a1.88,1.88,0,0,0,.74-1.17H39.1A4.56,4.56,0,0,0,40,20.81a3,3,0,0,0,.8,1.46h-.45a4.19,4.19,0,0,0,.79,1.21h-.58a2.92,2.92,0,0,0,1,1.23Z"/><path class="cls-1" d="M42.13,19.58H37.67a1,1,0,0,0-1,1V25a1,1,0,0,0,1,1h4.46a1,1,0,0,0,1-1V20.58A1,1,0,0,0,42.13,19.58Zm.45,5.92H37.22V20.13h5.37Z"/><rect class="cls-1" x="34.31" y="27.41" width="11.19" height="0.43"/><rect class="cls-1" x="34.31" y="29.99" width="11.19" height="0.43"/><rect class="cls-1" x="34.31" y="28.7" width="11.19" height="0.43"/><path class="cls-1" d="M12.21,20.7H8v4.23h4.23Zm-3.58,4c.36-.39.82-.74.79-1.3H8.94a1.88,1.88,0,0,0,.74-1.17H9.29a4.56,4.56,0,0,0,.87-1.44,3,3,0,0,0,.8,1.46h-.45a4.19,4.19,0,0,0,.79,1.21h-.58a2.92,2.92,0,0,0,1,1.23Z"/><path class="cls-1" d="M12.33,19.58H7.87a1,1,0,0,0-1,1V25a1,1,0,0,0,1,1h4.46a1,1,0,0,0,1-1V20.58A1,1,0,0,0,12.33,19.58Zm.45,5.92H7.41V20.13h5.37Z"/><rect class="cls-1" x="4.5" y="27.41" width="11.19" height="0.43"/><rect class="cls-1" x="4.5" y="29.99" width="11.19" height="0.43"/><rect class="cls-1" x="4.5" y="28.7" width="11.19" height="0.43"/></svg>