<svg id="Text_Align_Right" data-name="Text Align Right" xmlns="http://www.w3.org/2000/svg" viewBox="0 0 31 22"><defs><style>.cls-1{fill:#43536d;}</style></defs><title>icon-text-right-align</title><path class="cls-1" d="M39.5,18h-21a1,1,0,0,0,0,2h21a1,1,0,0,0,0-2Z" transform="translate(-9.5 -14)"/><path class="cls-1" d="M39.5,26h-29a1,1,0,0,0,0,2h29a1,1,0,0,0,0-2Z" transform="translate(-9.5 -14)"/><path class="cls-1" d="M39.5,22h-23a1,1,0,0,0,0,2h23a1,1,0,0,0,0-2Z" transform="translate(-9.5 -14)"/><path class="cls-1" d="M39.5,30h-13a1,1,0,0,0,0,2h13a1,1,0,0,0,0-2Z" transform="translate(-9.5 -14)"/><path class="cls-1" d="M39.5,34h-19a1,1,0,0,0,0,2h19a1,1,0,0,0,0-2Z" transform="translate(-9.5 -14)"/><path class="cls-1" d="M26.5,16h13a1,1,0,0,0,0-2h-13a1,1,0,0,0,0,2Z" transform="translate(-9.5 -14)"/></svg>