<svg id="block-around" xmlns="http://www.w3.org/2000/svg" viewBox="0 0 37.763 33.258"><defs><style>.cls-1,.cls-3{fill:#43536d;}.cls-1{fill-rule:evenodd;opacity:0.6;}.cls-2{fill:#e6e6e6;}</style></defs><title>icon-block-around</title><path class="cls-1" d="M8.624,8.371H41.375a2.514,2.514,0,0,1,2.506,2.508V31.6a2.513,2.513,0,0,1-2.506,2.505H29.5V39.54h.627a1.048,1.048,0,0,1,1.045,1.046h0a1.049,1.049,0,0,1-1.045,1.043H19.429a1.048,1.048,0,0,1-1.045-1.043h0a1.047,1.047,0,0,1,1.045-1.046H20.5V34.106H8.624A2.511,2.511,0,0,1,6.119,31.6V10.879A2.513,2.513,0,0,1,8.624,8.371Zm-1,1.722V32.181h34.65V10.093Z" transform="translate(-6.119 -8.371)"/><path class="cls-2" d="M7.675,10.046V32.134h34.65V10.046Z" transform="translate(-6.119 -8.371)"/><path class="cls-3" d="M7.675,10.046V32.134h34.65V10.046Z" transform="translate(-6.119 -8.371)"/><rect class="cls-2" x="24.881" y="7.629" width="8" height="8"/><rect class="cls-2" x="4.881" y="7.629" width="8" height="8"/></svg>