<svg id="Box_Layout_1" data-name="Box Layout 1" xmlns="http://www.w3.org/2000/svg" viewBox="0 0 31.851 31.973"><defs><style>.cls-1{fill:#43536d;}</style></defs><title>icon-box-inversed</title><path class="cls-1" d="M9.08,9.02H9.6v3.6h1.728v.438H9.08Z" transform="translate(-9.08 -9.014)"/><path class="cls-1" d="M14.436,11.586a1.418,1.418,0,0,1-1.445,1.541,1.379,1.379,0,0,1-1.39-1.493,1.416,1.416,0,0,1,1.438-1.541A1.374,1.374,0,0,1,14.436,11.586Zm-2.3.03c0,.636.366,1.116.882,1.116s.88-.474.88-1.127c0-.492-.246-1.116-.869-1.116S12.134,11.064,12.134,11.616Z" transform="translate(-9.08 -9.014)"/><path class="cls-1" d="M15.1,11.064c0-.341,0-.635-.023-.9h.462l.017.57h.025a.87.87,0,0,1,.8-.636.571.571,0,0,1,.15.018v.5a.793.793,0,0,0-.18-.018.741.741,0,0,0-.708.678,1.584,1.584,0,0,0-.023.245v1.548H15.1Z" transform="translate(-9.08 -9.014)"/><path class="cls-1" d="M17.3,11.706a.929.929,0,0,0,1,1.008,1.908,1.908,0,0,0,.8-.15l.089.377a2.337,2.337,0,0,1-.964.181A1.349,1.349,0,0,1,16.8,11.658a1.409,1.409,0,0,1,1.361-1.565,1.23,1.23,0,0,1,1.2,1.367,2.034,2.034,0,0,1-.017.246Zm1.547-.377a.752.752,0,0,0-.732-.858.875.875,0,0,0-.809.858Z" transform="translate(-9.08 -9.014)"/><path class="cls-1" d="M20.012,10.945c0-.3-.006-.546-.024-.786h.462l.024.468h.018a1,1,0,0,1,.911-.534.858.858,0,0,1,.822.582h.011a1.209,1.209,0,0,1,.324-.378.993.993,0,0,1,.642-.2c.384,0,.953.252.953,1.26v1.709H23.64V11.418c0-.557-.2-.893-.629-.893a.683.683,0,0,0-.624.48.835.835,0,0,0-.042.264v1.793h-.516v-1.74c0-.461-.2-.8-.605-.8a.722.722,0,0,0-.655.528.747.747,0,0,0-.042.258v1.751h-.515Z" transform="translate(-9.08 -9.014)"/><path class="cls-1" d="M26.875,9.344a.327.327,0,0,1-.653,0,.321.321,0,0,1,.329-.33A.313.313,0,0,1,26.875,9.344Zm-.588,3.718v-2.9h.528v2.9Z" transform="translate(-9.08 -9.014)"/><path class="cls-1" d="M27.691,11.106c0-.371-.011-.671-.023-.947h.474l.023.5h.013a1.139,1.139,0,0,1,1.031-.564,1.315,1.315,0,0,1,1.229,1.475,1.373,1.373,0,0,1-1.319,1.559,1.017,1.017,0,0,1-.893-.455h-.012v1.577h-.523Zm.523.774a1.289,1.289,0,0,0,.023.216.815.815,0,0,0,.792.618c.558,0,.881-.456.881-1.122,0-.581-.306-1.079-.863-1.079a.91.91,0,0,0-.833.869Z" transform="translate(-9.08 -9.014)"/><path class="cls-1" d="M31.034,12.522a1.38,1.38,0,0,0,.7.21c.384,0,.564-.192.564-.432s-.15-.39-.54-.534c-.522-.185-.768-.474-.768-.821a.9.9,0,0,1,1-.852,1.449,1.449,0,0,1,.714.18l-.132.384a1.129,1.129,0,0,0-.593-.168c-.313,0-.487.18-.487.4,0,.24.174.347.552.491.5.192.762.444.762.876,0,.51-.4.87-1.085.87a1.668,1.668,0,0,1-.817-.2Z" transform="translate(-9.08 -9.014)"/><path class="cls-1" d="M35.91,12.27c0,.3.006.564.024.792h-.467l-.031-.474h-.011a1.093,1.093,0,0,1-.96.539c-.455,0-1-.251-1-1.271v-1.7h.527v1.607c0,.552.168.924.648.924a.764.764,0,0,0,.7-.48.8.8,0,0,0,.048-.27V10.159h.527Z" transform="translate(-9.08 -9.014)"/><path class="cls-1" d="M36.787,10.945c0-.3-.006-.546-.023-.786h.462l.023.468h.018a1,1,0,0,1,.912-.534.858.858,0,0,1,.821.582h.012a1.2,1.2,0,0,1,.324-.378.99.99,0,0,1,.641-.2c.384,0,.954.252.954,1.26v1.709h-.516V11.418c0-.557-.2-.893-.629-.893a.684.684,0,0,0-.624.48.864.864,0,0,0-.042.264v1.793H38.6v-1.74c0-.461-.2-.8-.6-.8a.787.787,0,0,0-.7.786v1.751h-.516Z" transform="translate(-9.08 -9.014)"/><path class="cls-1" d="M35.506,24.218h-21a.75.75,0,1,0,0,1.5h21a.75.75,0,0,0,0-1.5Z" transform="translate(-9.08 -9.014)"/><path class="cls-1" d="M35.506,21.218h-21a.75.75,0,1,0,0,1.5h21a.75.75,0,0,0,0-1.5Z" transform="translate(-9.08 -9.014)"/><path class="cls-1" d="M14.505,19.718h21a.75.75,0,0,0,0-1.5h-21a.75.75,0,1,0,0,1.5Z" transform="translate(-9.08 -9.014)"/><path class="cls-1" d="M31.143,28.961a.863.863,0,0,1,.878.877V40.11a.861.861,0,0,1-.878.876H18.866a.855.855,0,0,1-.876-.876V29.838a.856.856,0,0,1,.876-.877Zm-3.227,6.2,3.1,3.32V30.339c0-.25-.137-.376-.407-.376H19.4a.387.387,0,0,0-.407.376v8.142l3.945-4.76a.754.754,0,0,1,.533-.25.666.666,0,0,1,.532.218l1.692,1.849.125.125a.638.638,0,0,0,.344.125.69.69,0,0,0,.376-.157l.563-.5a.715.715,0,0,1,.408-.157A.5.5,0,0,1,27.916,35.161Zm1.661-1.628a1.51,1.51,0,1,1,.439-1.065A1.447,1.447,0,0,1,29.577,33.533Z" transform="translate(-9.08 -9.014)"/></svg>