<svg xmlns="http://www.w3.org/2000/svg" viewBox="0 0 45 45"><defs><style>.cls-1,.cls-2{fill:#43536d;}.cls-1{fill-rule:evenodd;opacity:0.6;}</style></defs><title>icon-slide-fullscreen</title><g id="Height_3" data-name="Height 3"><path class="cls-1" d="M8.624,8.992H41.375A2.514,2.514,0,0,1,43.881,11.5V32.222a2.513,2.513,0,0,1-2.506,2.5H29.5v5.434h.627a1.048,1.048,0,0,1,1.045,1.046h0a1.049,1.049,0,0,1-1.045,1.043H19.429a1.048,1.048,0,0,1-1.045-1.043h0a1.047,1.047,0,0,1,1.045-1.046H20.5V34.727H8.624a2.511,2.511,0,0,1-2.505-2.5V11.5A2.513,2.513,0,0,1,8.624,8.992Zm-1,1.722V32.8h34.65V10.714Z" transform="translate(-2.5 -2.5)"/><path class="cls-2" d="M29.921,17.38h-9.8a.338.338,0,0,0-.356.328v7.114l3.447-4.159a.658.658,0,0,1,.466-.218.581.581,0,0,1,.465.191l1.478,1.615.109.109a.553.553,0,0,0,.3.109.6.6,0,0,0,.328-.137l.493-.437a.615.615,0,0,1,.356-.137.442.442,0,0,1,.355.164l2.709,2.9V17.708C30.276,17.49,30.156,17.38,29.921,17.38Zm-.9,3.119a1.321,1.321,0,1,1,.383-.93A1.265,1.265,0,0,1,29.018,20.5Z" transform="translate(-2.5 -2.5)"/><path class="cls-2" d="M7.624,10.714V32.8h34.65V10.714ZM31.153,26.246a.752.752,0,0,1-.767.766H19.659a.748.748,0,0,1-.766-.766V17.27a.748.748,0,0,1,.766-.766H30.386a.752.752,0,0,1,.767.766Z" transform="translate(-2.5 -2.5)"/></g><g id="Frame"><path class="cls-2" d="M42.5,3A4.505,4.505,0,0,1,47,7.5v35A4.505,4.505,0,0,1,42.5,47H7.5A4.505,4.505,0,0,1,3,42.5V7.5A4.505,4.505,0,0,1,7.5,3h35m0-.5H7.5a5.015,5.015,0,0,0-5,5v35a5.015,5.015,0,0,0,5,5h35a5.015,5.015,0,0,0,5-5V7.5a5.015,5.015,0,0,0-5-5Z" transform="translate(-2.5 -2.5)"/></g></svg>