<svg id="Ebene_1" data-name="Ebene 1" xmlns="http://www.w3.org/2000/svg" viewBox="0 0 50 50"><defs><style>.cls-1{fill:#43536d;}</style></defs><title>icon-box-4</title><path class="cls-1" d="M42.5,3A4.51,4.51,0,0,1,47,7.5v35A4.51,4.51,0,0,1,42.5,47H7.5A4.51,4.51,0,0,1,3,42.5V7.5A4.51,4.51,0,0,1,7.5,3h35m0-.5H7.5a5,5,0,0,0-5,5v35a5,5,0,0,0,5,5h35a5,5,0,0,0,5-5V7.5a5,5,0,0,0-5-5Z"/><path class="cls-1" d="M32,21.5H28.55v3.44H32Zm-2.92,3.27c.3-.32.67-.61.64-1.06h-.39a1.53,1.53,0,0,0,.61-1h-.32a3.71,3.71,0,0,0,.71-1.17A2.45,2.45,0,0,0,31,22.78h-.37a3.42,3.42,0,0,0,.64,1h-.47a2.38,2.38,0,0,0,.78,1Z"/><path class="cls-1" d="M32.09,20.58H28.45a.82.82,0,0,0-.82.82V25a.82.82,0,0,0,.82.82h3.63A.82.82,0,0,0,32.9,25V21.4A.82.82,0,0,0,32.09,20.58Zm.37,4.82H28.08V21h4.37Z"/><rect class="cls-1" x="25.71" y="26.96" width="9.12" height="0.35" rx="0.18" ry="0.18"/><rect class="cls-1" x="25.71" y="29.06" width="9.12" height="0.35" rx="0.18" ry="0.18"/><rect class="cls-1" x="25.71" y="28.01" width="9.12" height="0.35" rx="0.18" ry="0.18"/><path class="cls-1" d="M42.53,21.5H39.08v3.44h3.44Zm-2.92,3.27c.3-.32.67-.61.64-1.06h-.39a1.53,1.53,0,0,0,.61-1h-.32a3.71,3.71,0,0,0,.71-1.17,2.45,2.45,0,0,0,.65,1.19h-.37a3.42,3.42,0,0,0,.64,1h-.47a2.38,2.38,0,0,0,.78,1Z"/><path class="cls-1" d="M42.62,20.58H39a.82.82,0,0,0-.82.82V25a.82.82,0,0,0,.82.82h3.63a.82.82,0,0,0,.82-.82V21.4A.82.82,0,0,0,42.62,20.58ZM43,25.4H38.62V21H43Z"/><rect class="cls-1" x="36.24" y="26.96" width="9.12" height="0.35" rx="0.18" ry="0.18"/><rect class="cls-1" x="36.24" y="29.06" width="9.12" height="0.35" rx="0.18" ry="0.18"/><rect class="cls-1" x="36.24" y="28.01" width="9.12" height="0.35" rx="0.18" ry="0.18"/><path class="cls-1" d="M10.92,21.5H7.47v3.44h3.44ZM8,24.77c.3-.32.67-.61.64-1.06H8.26a1.53,1.53,0,0,0,.61-1H8.54a3.71,3.71,0,0,0,.71-1.17,2.45,2.45,0,0,0,.65,1.19H9.54a3.42,3.42,0,0,0,.64,1H9.71a2.38,2.38,0,0,0,.78,1Z"/><path class="cls-1" d="M11,20.58H7.38a.82.82,0,0,0-.82.82V25a.82.82,0,0,0,.82.82H11a.82.82,0,0,0,.82-.82V21.4A.82.82,0,0,0,11,20.58Zm.37,4.82H7V21h4.37Z"/><rect class="cls-1" x="4.64" y="26.96" width="9.12" height="0.35" rx="0.18" ry="0.18"/><rect class="cls-1" x="4.64" y="29.06" width="9.12" height="0.35" rx="0.18" ry="0.18"/><rect class="cls-1" x="4.64" y="28.01" width="9.12" height="0.35" rx="0.18" ry="0.18"/><path class="cls-1" d="M21.45,21.5H18v3.44h3.44Zm-2.92,3.27c.3-.32.67-.61.64-1.06h-.39a1.53,1.53,0,0,0,.61-1h-.32a3.71,3.71,0,0,0,.71-1.17,2.45,2.45,0,0,0,.65,1.19h-.37a3.42,3.42,0,0,0,.64,1h-.47a2.38,2.38,0,0,0,.78,1Z"/><path class="cls-1" d="M21.55,20.58H17.91a.82.82,0,0,0-.82.82V25a.82.82,0,0,0,.82.82h3.63a.82.82,0,0,0,.82-.82V21.4A.82.82,0,0,0,21.55,20.58Zm.37,4.82H17.55V21h4.37Z"/><rect class="cls-1" x="15.17" y="26.96" width="9.12" height="0.35" rx="0.18" ry="0.18"/><rect class="cls-1" x="15.17" y="29.06" width="9.12" height="0.35" rx="0.18" ry="0.18"/><rect class="cls-1" x="15.17" y="28.01" width="9.12" height="0.35" rx="0.18" ry="0.18"/></svg>