<svg id="Ebene_1" data-name="Ebene 1" xmlns="http://www.w3.org/2000/svg" viewBox="0 0 50 50"><defs><style>.cls-1{fill:#43536d;}</style></defs><title>icon-text-left</title><path class="cls-1" d="M42.5,3A4.51,4.51,0,0,1,47,7.5v35A4.51,4.51,0,0,1,42.5,47H7.5A4.51,4.51,0,0,1,3,42.5V7.5A4.51,4.51,0,0,1,7.5,3h35m0-.5H7.5a5,5,0,0,0-5,5v35a5,5,0,0,0,5,5h35a5,5,0,0,0,5-5V7.5a5,5,0,0,0-5-5Z"/><path class="cls-1" d="M6.75,20.34a.5.5,0,0,1,0-1h17.5a.5.5,0,0,1,0,1Z"/><path class="cls-1" d="M24.25,18.84H6.75a1,1,0,1,0,0,2h17.5a1,1,0,0,0,0-2Z"/><path class="cls-1" d="M6.75,25.34a.5.5,0,0,1,0-1h17.5a.5.5,0,0,1,0,1Z"/><path class="cls-1" d="M24.25,23.84H6.75a1,1,0,1,0,0,2h17.5a1,1,0,0,0,0-2Z"/><path class="cls-1" d="M6.75,30.34a.5.5,0,0,1,0-1h17.5a.5.5,0,0,1,0,1Z"/><path class="cls-1" d="M24.25,28.84H6.75a1,1,0,0,0,0,2h17.5a1,1,0,0,0,0-2Z"/><path class="cls-1" d="M41.17,20.09H31.34v9.82h9.82Zm-8.31,9.33c.84-.91,1.91-1.73,1.83-3H33.57a4.37,4.37,0,0,0,1.73-2.72h-.92a10.59,10.59,0,0,0,2-3.33,7,7,0,0,0,1.87,3.4h-1a9.74,9.74,0,0,0,1.83,2.82H37.73a6.78,6.78,0,0,0,2.22,2.85Z"/><path class="cls-1" d="M41.44,17.49H31.07a2.33,2.33,0,0,0-2.33,2.33V30.18a2.33,2.33,0,0,0,2.33,2.33H41.44a2.33,2.33,0,0,0,2.33-2.33V19.82A2.33,2.33,0,0,0,41.44,17.49Zm1.05,13.74H30V18.77H42.49Z"/></svg>