<svg id="Parentblock_3_Cols" data-name="Parentblock 3 Cols" xmlns="http://www.w3.org/2000/svg" viewBox="0 0 41.789 25.804"><defs><style>.cls-1{fill:#43536d;}.cls-2{fill:#fff;}</style></defs><title>icon-parent-3-columns</title><path class="cls-1" d="M17.761,37.708V12.292c0-.107-.117-.194-.261-.194s-.261.087-.261.194V37.708c0,.107.117.194.261.194S17.761,37.815,17.761,37.708Z" transform="translate(-4.105 -12.098)"/><path class="cls-1" d="M32.761,37.708V12.292c0-.107-.117-.194-.261-.194s-.261.087-.261.194V37.708c0,.107.117.194.261.194S32.761,37.815,32.761,37.708Z" transform="translate(-4.105 -12.098)"/><path class="cls-1" d="M15.731,30.717H4.506c-.221,0-.4.242-.4.541s.18.541.4.541H15.731c.221,0,.4-.243.4-.541S15.952,30.717,15.731,30.717Z" transform="translate(-4.105 -12.098)"/><path class="cls-1" d="M15.731,32.88H4.506c-.221,0-.4.243-.4.541s.18.541.4.541H15.731c.221,0,.4-.242.4-.541S15.952,32.88,15.731,32.88Z" transform="translate(-4.105 -12.098)"/><path class="cls-1" d="M15.731,28.553H4.506c-.221,0-.4.242-.4.541s.18.541.4.541H15.731c.221,0,.4-.243.4-.541S15.952,28.553,15.731,28.553Z" transform="translate(-4.105 -12.098)"/><path class="cls-1" d="M4.506,27.471H15.731c.221,0,.4-.243.4-.541s-.18-.541-.4-.541H4.506c-.221,0-.4.242-.4.541S4.285,27.471,4.506,27.471Z" transform="translate(-4.105 -12.098)"/><path class="cls-1" d="M13.993,16.038a.543.543,0,0,1,.554.553v6.484a.543.543,0,0,1-.554.553H6.244a.54.54,0,0,1-.554-.553V16.591a.54.54,0,0,1,.554-.553Zm-2.037,3.913,1.957,2.1v-5.14c0-.158-.086-.237-.256-.237H6.58a.244.244,0,0,0-.257.237v5.14l2.49-3a.476.476,0,0,1,.337-.158.42.42,0,0,1,.336.138l1.067,1.167.079.079a.4.4,0,0,0,.218.079.439.439,0,0,0,.237-.1l.356-.316a.448.448,0,0,1,.257-.1A.316.316,0,0,1,11.956,19.951Zm1.049-1.027a.954.954,0,1,1,.277-.673A.918.918,0,0,1,13.005,18.924Z" transform="translate(-4.105 -12.098)"/><path class="cls-1" d="M45.494,30.717H34.269c-.221,0-.4.242-.4.541s.18.541.4.541H45.494c.221,0,.4-.243.4-.541S45.715,30.717,45.494,30.717Z" transform="translate(-4.105 -12.098)"/><path class="cls-1" d="M45.494,32.88H34.269c-.221,0-.4.243-.4.541s.18.541.4.541H45.494c.221,0,.4-.242.4-.541S45.715,32.88,45.494,32.88Z" transform="translate(-4.105 -12.098)"/><path class="cls-1" d="M45.494,28.553H34.269c-.221,0-.4.242-.4.541s.18.541.4.541H45.494c.221,0,.4-.243.4-.541S45.715,28.553,45.494,28.553Z" transform="translate(-4.105 -12.098)"/><path class="cls-1" d="M34.269,27.471H45.494c.221,0,.4-.243.4-.541s-.18-.541-.4-.541H34.269c-.221,0-.4.242-.4.541S34.048,27.471,34.269,27.471Z" transform="translate(-4.105 -12.098)"/><path class="cls-1" d="M43.756,16.038a.543.543,0,0,1,.554.553v6.484a.543.543,0,0,1-.554.553h-7.75a.54.54,0,0,1-.553-.553V16.591a.54.54,0,0,1,.553-.553Zm-2.037,3.913,1.957,2.1v-5.14c0-.158-.086-.237-.256-.237H36.343a.243.243,0,0,0-.257.237v5.14l2.49-3a.474.474,0,0,1,.336-.158.419.419,0,0,1,.336.138l1.068,1.167.079.079a.4.4,0,0,0,.217.079.433.433,0,0,0,.237-.1l.356-.316a.451.451,0,0,1,.258-.1A.319.319,0,0,1,41.719,19.951Zm1.048-1.027a.954.954,0,1,1,.277-.673A.915.915,0,0,1,42.767,18.924Z" transform="translate(-4.105 -12.098)"/><rect class="cls-1" x="16.29" y="3.939" width="9.208" height="7.58"/><path class="cls-2" d="M27.767,17.117a.389.389,0,0,1,.4.395v4.631a.389.389,0,0,1-.4.395H22.232a.386.386,0,0,1-.395-.395V17.512a.386.386,0,0,1,.395-.395Zm-1.455,2.795,1.4,1.5V17.738c0-.113-.062-.17-.183-.17H22.472a.175.175,0,0,0-.183.17v3.671l1.778-2.146a.341.341,0,0,1,.241-.113.3.3,0,0,1,.24.1l.762.834.057.056a.281.281,0,0,0,.155.056.309.309,0,0,0,.169-.07l.254-.226a.324.324,0,0,1,.184-.071A.229.229,0,0,1,26.312,19.912Zm.749-.734a.681.681,0,1,1,.2-.48A.654.654,0,0,1,27.061,19.178Z" transform="translate(-4.105 -12.098)"/><path class="cls-1" d="M25,25.624a.643.643,0,1,1,.643-.642A.643.643,0,0,1,25,25.624Zm0-1.1a.456.456,0,1,0,.455.456A.456.456,0,0,0,25,24.526Z" transform="translate(-4.105 -12.098)"/><path class="cls-1" d="M22.8,24.338a.643.643,0,1,0,.643.644A.644.644,0,0,0,22.8,24.338Z" transform="translate(-4.105 -12.098)"/><path class="cls-1" d="M27.2,25.624a.643.643,0,1,1,.643-.642A.643.643,0,0,1,27.2,25.624Zm0-1.1a.456.456,0,1,0,.456.456A.456.456,0,0,0,27.2,24.526Z" transform="translate(-4.105 -12.098)"/></svg>