<svg id="text-position-3" xmlns="http://www.w3.org/2000/svg" viewBox="0 0 37.763 33.258"><defs><style>.cls-1,.cls-2{fill:#43536d;}.cls-1{fill-rule:evenodd;opacity:0.6;}.cls-3{font-size:4px;fill:#fff;font-family:MyriadPro-Regular, Myriad Pro;}.cls-4{letter-spacing:-0.014em;}.cls-5{letter-spacing:-0.01em;}</style></defs><title>icon-text-top-right</title><path class="cls-1" d="M8.624,8.371H41.375a2.514,2.514,0,0,1,2.506,2.508V31.6a2.513,2.513,0,0,1-2.506,2.505H29.5V39.54h.627a1.048,1.048,0,0,1,1.045,1.046h0a1.049,1.049,0,0,1-1.045,1.043H19.429a1.048,1.048,0,0,1-1.045-1.043h0a1.047,1.047,0,0,1,1.045-1.046H20.5V34.106H8.624A2.511,2.511,0,0,1,6.119,31.6V10.879A2.513,2.513,0,0,1,8.624,8.371Zm-1,1.722V32.181h34.65V10.093Z" transform="translate(-6.119 -8.371)"/><path class="cls-2" d="M29.972,16.712h-9.8a.338.338,0,0,0-.356.328v7.114L23.267,20a.658.658,0,0,1,.466-.218.581.581,0,0,1,.465.191l1.478,1.615.109.109a.556.556,0,0,0,.3.109.6.6,0,0,0,.328-.137l.493-.437a.618.618,0,0,1,.356-.137.442.442,0,0,1,.355.164l2.709,2.9V17.04C30.327,16.822,30.208,16.712,29.972,16.712Zm-.9,3.119a1.321,1.321,0,1,1,.383-.93A1.265,1.265,0,0,1,29.069,19.831Z" transform="translate(-6.119 -8.371)"/><path class="cls-2" d="M7.675,10.046V32.134h34.65V10.046ZM31.2,25.578a.752.752,0,0,1-.766.766H19.71a.748.748,0,0,1-.766-.766V16.6a.748.748,0,0,1,.766-.766H30.438a.752.752,0,0,1,.766.766Z" transform="translate(-6.119 -8.371)"/><text class="cls-3" transform="translate(13.972 5.254)"><tspan class="cls-4">L</tspan><tspan x="1.832" y="0">o</tspan><tspan class="cls-5" x="4.028" y="0">r</tspan><tspan x="5.296" y="0">em ipsum</tspan></text></svg>